Palanquin Light.ufo
<glyph name="exclam" format="1">
  <advance width="222"/>
  <unicode hex="0021"/>
  <outline>
    <contour>
      <point x="148" y="702" type="line"/>
      <point x="74" y="702" type="line"/>
      <point x="90" y="217" type="line"/>
      <point x="132" y="196" type="line"/>
    </contour>
    <contour>
      <point x="158" y="74"/>
      <point x="138" y="94"/>
      <point x="111" y="94" type="curve" smooth="yes"/>
      <point x="85" y="94"/>
      <point x="62" y="74"/>
      <point x="62" y="48" type="curve" smooth="yes"/>
      <point x="62" y="21"/>
      <point x="85" y="0"/>
      <point x="111" y="0" type="curve" smooth="yes"/>
      <point x="138" y="0"/>
      <point x="158" y="21"/>
      <point x="158" y="48" type="curve"/>
    </contour>
  </outline>
</glyph>
<glyph name="numbersign" format="1">
  <advance width="480"/>
  <unicode hex="0023"/>
  <outline>
    <contour>
      <point x="418" y="502" type="line"/>
      <point x="366" y="502" type="line"/>
      <point x="335" y="371" type="line"/>
      <point x="198" y="371" type="line"/>
      <point x="230" y="502" type="line"/>
      <point x="179" y="502" type="line"/>
      <point x="148" y="371" type="line"/>
      <point x="21" y="371" type="line"/>
      <point x="29" y="322" type="line"/>
      <point x="135" y="322" type="line"/>
      <point x="104" y="190" type="line"/>
      <point x="21" y="190" type="line"/>
      <point x="29" y="140" type="line"/>
      <point x="92" y="140" type="line"/>
      <point x="60" y="6" type="line"/>
      <point x="110" y="1" type="line"/>
      <point x="143" y="140" type="line"/>
      <point x="280" y="140" type="line"/>
      <point x="248" y="6" type="line"/>
      <point x="297" y="1" type="line"/>
      <point x="330" y="140" type="line"/>
      <point x="458" y="140" type="line"/>
      <point x="451" y="190" type="line"/>
      <point x="342" y="190" type="line"/>
      <point x="373" y="322" type="line"/>
      <point x="458" y="322" type="line"/>
      <point x="451" y="371" type="line"/>
      <point x="386" y="371" type="line"/>
    </contour>
    <contour>
      <point x="187" y="322" type="line"/>
      <point x="323" y="322" type="line"/>
      <point x="291" y="190" type="line"/>
      <point x="155" y="190" type="line"/>
    </contour>
  </outline>
</glyph>
<glyph name="dollar" format="1">
  <advance width="533"/>
  <unicode hex="0024"/>
  <outline>
    <contour>
      <point x="339" y="800" type="line"/>
      <point x="292" y="800" type="line"/>
      <point x="292" y="694" type="line"/>
      <point x="284" y="695"/>
      <point x="275" y="696"/>
      <point x="265" y="696" type="curve" smooth="yes"/>
      <point x="253" y="696"/>
      <point x="239" y="694"/>
      <point x="225" y="692" type="curve"/>
      <point x="225" y="797" type="line"/>
      <point x="179" y="800" type="line"/>
      <point x="179" y="683" type="line"/>
      <point x="101" y="658"/>
      <point x="54" y="600"/>
      <point x="53" y="530" type="curve" smooth="yes"/>
      <point x="51" y="323"/>
      <point x="422" y="317"/>
      <point x="422" y="160" type="curve" smooth="yes"/>
      <point x="422" y="90"/>
      <point x="360" y="38"/>
      <point x="245" y="38" type="curve" smooth="yes"/>
      <point x="178" y="38"/>
      <point x="114" y="60"/>
      <point x="79" y="77" type="curve"/>
      <point x="64" y="29" type="line"/>
      <point x="80" y="16"/>
      <point x="129" y="2"/>
      <point x="179" y="-7" type="curve"/>
      <point x="179" y="-111" type="line"/>
      <point x="225" y="-111" type="line"/>
      <point x="225" y="-13" type="line"/>
      <point x="246" y="-13" type="line" smooth="yes"/>
      <point x="262" y="-13"/>
      <point x="278" y="-12"/>
      <point x="292" y="-10" type="curve"/>
      <point x="292" y="-107" type="line"/>
      <point x="339" y="-111" type="line"/>
      <point x="339" y="-2" type="line"/>
      <point x="429" y="23"/>
      <point x="480" y="83"/>
      <point x="481" y="160" type="curve"/>
      <point x="486" y="360"/>
      <point x="111" y="370"/>
      <point x="111" y="530" type="curve" smooth="yes"/>
      <point x="111" y="600"/>
      <point x="170" y="644"/>
      <point x="267" y="644" type="curve" smooth="yes"/>
      <point x="337" y="644"/>
      <point x="376" y="626"/>
      <point x="411" y="610" type="curve"/>
      <point x="433" y="657" type="line"/>
      <point x="407" y="668"/>
      <point x="376" y="680"/>
      <point x="339" y="687" type="curve"/>
    </contour>
  </outline>
</glyph>
<glyph name="parenright" format="1">
  <advance width="239"/>
  <unicode hex="0029"/>
  <outline>
    <contour>
      <point x="187" y="426"/>
      <point x="150" y="568"/>
      <point x="68" y="675" type="curve"/>
      <point x="16" y="657" type="line"/>
      <point x="74" y="594"/>
      <point x="124" y="416"/>
      <point x="124" y="319" type="curve" smooth="yes"/>
      <point x="124" y="223"/>
      <point x="74" y="43"/>
      <point x="16" y="-19" type="curve"/>
      <point x="68" y="-37" type="line"/>
      <point x="150" y="71"/>
      <point x="187" y="213"/>
      <point x="187" y="320" type="curve"/>
    </contour>
  </outline>
</glyph>
<glyph name="plus" format="1">
  <advance width="516"/>
  <unicode hex="002B"/>
  <outline>
    <contour>
      <point x="496" y="248" type="line"/>
      <point x="486" y="298" type="line"/>
      <point x="286" y="298" type="line"/>
      <point x="286" y="531" type="line"/>
      <point x="229" y="534" type="line"/>
      <point x="229" y="298" type="line"/>
      <point x="21" y="298" type="line"/>
      <point x="29" y="248" type="line"/>
      <point x="229" y="248" type="line"/>
      <point x="229" y="8" type="line"/>
      <point x="286" y="4" type="line"/>
      <point x="286" y="248" type="line"/>
    </contour>
  </outline>
</glyph>
<glyph name="comma" format="1">
  <advance width="141"/>
  <unicode hex="002C"/>
  <outline>
    <contour>
      <point x="126" y="75"/>
      <point x="105" y="94"/>
      <point x="78" y="94" type="curve" smooth="yes"/>
      <point x="52" y="94"/>
      <point x="30" y="74"/>
      <point x="30" y="48" type="curve" smooth="yes"/>
      <point x="30" y="24"/>
      <point x="48" y="3"/>
      <point x="73" y="1" type="curve"/>
      <point x="71" y="-35"/>
      <point x="48" y="-57"/>
      <point x="16" y="-79" type="curve"/>
      <point x="34" y="-108" type="line"/>
      <point x="85" y="-83"/>
      <point x="126" y="-20"/>
      <point x="126" y="41" type="curve" smooth="yes"/>
    </contour>
  </outline>
</glyph>
<glyph name="hyphen" format="1">
  <advance width="288"/>
  <unicode hex="002D"/>
  <outline>
    <contour>
      <point x="272" y="248" type="line"/>
      <point x="264" y="298" type="line"/>
      <point x="16" y="298" type="line"/>
      <point x="24" y="248" type="line"/>
    </contour>
  </outline>
</glyph>
<glyph name="two" format="1">
  <advance width="489"/>
  <unicode hex="0032"/>
  <outline>
    <contour>
      <point x="419" y="487"/>
      <point x="369" y="579"/>
      <point x="225" y="579" type="curve" smooth="yes"/>
      <point x="134" y="579"/>
      <point x="66" y="527"/>
      <point x="64" y="527" type="curve"/>
      <point x="92" y="481" type="line"/>
      <point x="93" y="482"/>
      <point x="156" y="528"/>
      <point x="223" y="528" type="curve" smooth="yes"/>
      <point x="312" y="528"/>
      <point x="353" y="479"/>
      <point x="353" y="412" type="curve"/>
      <point x="353" y="356"/>
      <point x="323" y="317"/>
      <point x="236" y="238" type="curve" smooth="yes"/>
      <point x="31" y="50" type="line"/>
      <point x="31" y="0" type="line"/>
      <point x="436" y="0" type="line"/>
      <point x="428" y="50" type="line"/>
      <point x="106" y="50" type="line"/>
      <point x="270" y="196" type="line" smooth="yes"/>
      <point x="366" y="281"/>
      <point x="419" y="337"/>
      <point x="419" y="412" type="curve" smooth="yes"/>
    </contour>
  </outline>
</glyph>
<glyph name="six" format="1">
  <advance width="540"/>
  <unicode hex="0036"/>
  <outline>
    <contour>
      <point x="350" y="634" type="line"/>
      <point x="179" y="600"/>
      <point x="62" y="409"/>
      <point x="62" y="261" type="curve" smooth="yes"/>
      <point x="62" y="83"/>
      <point x="152" y="-13"/>
      <point x="289" y="-13" type="curve" smooth="yes"/>
      <point x="407" y="-13"/>
      <point x="487" y="85"/>
      <point x="487" y="190" type="curve" smooth="yes"/>
      <point x="487" y="292"/>
      <point x="412" y="387"/>
      <point x="288" y="387" type="curve" smooth="yes"/>
      <point x="227" y="387"/>
      <point x="169" y="356"/>
      <point x="132" y="321" type="curve"/>
      <point x="155" y="447"/>
      <point x="250" y="568"/>
      <point x="375" y="597" type="curve"/>
    </contour>
    <contour>
      <point x="374" y="337"/>
      <point x="426" y="265"/>
      <point x="426" y="185" type="curve" smooth="yes"/>
      <point x="426" y="109"/>
      <point x="372" y="40"/>
      <point x="287" y="40" type="curve" smooth="yes"/>
      <point x="180" y="40"/>
      <point x="129" y="122"/>
      <point x="127" y="248" type="curve"/>
      <point x="156" y="295"/>
      <point x="214" y="337"/>
      <point x="288" y="337" type="curve" smooth="yes"/>
    </contour>
  </outline>
</glyph>
<glyph name="colon" format="1">
  <advance width="127"/>
  <unicode hex="003A"/>
  <outline>
    <contour>
      <point x="16" y="376"/>
      <point x="37" y="355"/>
      <point x="63" y="355" type="curve" smooth="yes"/>
      <point x="90" y="355"/>
      <point x="111" y="376"/>
      <point x="111" y="402" type="curve" smooth="yes"/>
      <point x="111" y="428"/>
      <point x="90" y="451"/>
      <point x="63" y="451" type="curve" smooth="yes"/>
      <point x="37" y="451"/>
      <point x="16" y="428"/>
      <point x="16" y="402" type="curve" smooth="yes"/>
    </contour>
    <contour>
      <point x="16" y="57"/>
      <point x="37" y="36"/>
      <point x="63" y="36" type="curve" smooth="yes"/>
      <point x="90" y="36"/>
      <point x="111" y="57"/>
      <point x="111" y="84" type="curve" smooth="yes"/>
      <point x="111" y="111"/>
      <point x="90" y="132"/>
      <point x="63" y="132" type="curve" smooth="yes"/>
      <point x="37" y="132"/>
      <point x="16" y="111"/>
      <point x="16" y="84" type="curve" smooth="yes"/>
    </contour>
  </outline>
</glyph>
<glyph name="equal" format="1">
  <advance width="480"/>
  <unicode hex="003D"/>
  <outline>
    <contour>
      <point x="458" y="322" type="line"/>
      <point x="451" y="371" type="line"/>
      <point x="21" y="371" type="line"/>
      <point x="29" y="322" type="line"/>
    </contour>
    <contour>
      <point x="458" y="140" type="line"/>
      <point x="451" y="190" type="line"/>
      <point x="21" y="190" type="line"/>
      <point x="29" y="140" type="line"/>
    </contour>
  </outline>
</glyph>
<glyph name="at" format="1">
  <advance width="799"/>
  <unicode hex="0040"/>
  <outline>
    <contour>
      <point x="555" y="384" type="line"/>
      <point x="534" y="409" type="line"/>
      <point x="463" y="409" type="line" smooth="yes"/>
      <point x="347" y="409"/>
      <point x="241" y="332"/>
      <point x="241" y="211" type="curve" smooth="yes"/>
      <point x="241" y="125"/>
      <point x="292" y="66"/>
      <point x="403" y="66" type="curve" smooth="yes"/>
      <point x="439" y="66"/>
      <point x="476" y="83"/>
      <point x="500" y="100" type="curve"/>
      <point x="519" y="76"/>
      <point x="549" y="65"/>
      <point x="581" y="65" type="curve" smooth="yes"/>
      <point x="682" y="65"/>
      <point x="746" y="144"/>
      <point x="746" y="304" type="curve" smooth="yes"/>
      <point x="746" y="471"/>
      <point x="621" y="594"/>
      <point x="440" y="594" type="curve" smooth="yes"/>
      <point x="196" y="594"/>
      <point x="52" y="421"/>
      <point x="52" y="213" type="curve" smooth="yes"/>
      <point x="52" y="20"/>
      <point x="206" y="-107"/>
      <point x="371" y="-107" type="curve" smooth="yes"/>
      <point x="437" y="-107"/>
      <point x="505" y="-95"/>
      <point x="561" y="-66" type="curve"/>
      <point x="545" y="-20" type="line"/>
      <point x="503" y="-43"/>
      <point x="439" y="-55"/>
      <point x="382" y="-55" type="curve" smooth="yes"/>
      <point x="232" y="-55"/>
      <point x="114" y="46"/>
      <point x="114" y="214" type="curve" smooth="yes"/>
      <point x="114" y="419"/>
      <point x="265" y="546"/>
      <point x="437" y="546" type="curve" smooth="yes"/>
      <point x="594" y="546"/>
      <point x="692" y="443"/>
      <point x="692" y="297" type="curve" smooth="yes"/>
      <point x="692" y="182"/>
      <point x="650" y="112"/>
      <point x="589" y="112" type="curve" smooth="yes"/>
      <point x="561" y="112"/>
      <point x="526" y="127"/>
      <point x="531" y="183" type="curve" smooth="yes"/>
    </contour>
    <contour>
      <point x="463" y="122"/>
      <point x="436" y="112"/>
      <point x="402" y="112" type="curve" smooth="yes"/>
      <point x="328" y="112"/>
      <point x="301" y="164"/>
      <point x="301" y="211" type="curve" smooth="yes"/>
      <point x="301" y="307"/>
      <point x="374" y="367"/>
      <point x="458" y="367" type="curve" smooth="yes"/>
      <point x="503" y="367" type="line"/>
      <point x="480" y="190" type="line" smooth="yes"/>
      <point x="477" y="171"/>
      <point x="478" y="154"/>
      <point x="481" y="140" type="curve"/>
    </contour>
  </outline>
</glyph>
<glyph name="E" format="1">
  <advance width="524"/>
  <unicode hex="0045"/>
  <outline>
    <contour>
      <point x="105" y="0" type="line"/>
      <point x="493" y="0" type="line"/>
      <point x="487" y="50" type="line"/>
      <point x="167" y="50" type="line"/>
      <point x="167" y="326" type="line"/>
      <point x="372" y="326" type="line"/>
      <point x="367" y="371" type="line"/>
      <point x="167" y="371" type="line"/>
      <point x="167" y="635" type="line"/>
      <point x="470" y="635" type="line"/>
      <point x="465" y="680" type="line"/>
      <point x="105" y="680" type="line"/>
    </contour>
    <contour>
      <point x="282" y="702" type="move" name="topU"/>
    </contour>
    <contour>
      <point x="390" y="0" type="move" name="bottom"/>
    </contour>
  </outline>
</glyph>
<glyph name="F" format="1">
  <advance width="482"/>
  <unicode hex="0046"/>
  <outline>
    <contour>
      <point x="362" y="322" type="line"/>
      <point x="356" y="367" type="line"/>
      <point x="167" y="367" type="line"/>
      <point x="167" y="635" type="line"/>
      <point x="461" y="635" type="line"/>
      <point x="454" y="680" type="line"/>
      <point x="105" y="680" type="line"/>
      <point x="105" y="0" type="line"/>
      <point x="167" y="0" type="line"/>
      <point x="167" y="322" type="line"/>
    </contour>
  </outline>
</glyph>
<glyph name="G" format="1">
  <advance width="657"/>
  <unicode hex="0047"/>
  <outline>
    <contour>
      <point x="370" y="342" type="line"/>
      <point x="364" y="297" type="line"/>
      <point x="517" y="297" type="line"/>
      <point x="517" y="64" type="line"/>
      <point x="484" y="52"/>
      <point x="443" y="41"/>
      <point x="395" y="41" type="curve" smooth="yes"/>
      <point x="239" y="41"/>
      <point x="139" y="154"/>
      <point x="139" y="337" type="curve" smooth="yes"/>
      <point x="139" y="531"/>
      <point x="260" y="639"/>
      <point x="404" y="640" type="curve" smooth="yes"/>
      <point x="475" y="640"/>
      <point x="507" y="628"/>
      <point x="549" y="611" type="curve"/>
      <point x="568" y="657" type="line"/>
      <point x="531" y="683"/>
      <point x="443" y="694"/>
      <point x="402" y="694" type="curve" smooth="yes"/>
      <point x="206" y="694"/>
      <point x="73" y="552"/>
      <point x="73" y="336" type="curve" smooth="yes"/>
      <point x="73" y="136"/>
      <point x="188" y="-14"/>
      <point x="396" y="-14" type="curve" smooth="yes"/>
      <point x="453" y="-14"/>
      <point x="542" y="6"/>
      <point x="579" y="31" type="curve"/>
      <point x="578" y="32" type="line"/>
      <point x="579" y="32" type="line"/>
      <point x="579" y="342" type="line"/>
    </contour>
    <contour>
      <point x="402" y="702" type="move" name="topU"/>
    </contour>
    <contour>
      <point x="395" y="0" type="move" name="bottom"/>
    </contour>
  </outline>
</glyph>
<glyph name="H" format="1">
  <advance width="671"/>
  <unicode hex="0048"/>
  <outline>
    <contour>
      <point x="504" y="0" type="line"/>
      <point x="566" y="0" type="line"/>
      <point x="566" y="680" type="line"/>
      <point x="504" y="680" type="line"/>
      <point x="504" y="369" type="line"/>
      <point x="167" y="369" type="line"/>
      <point x="167" y="685" type="line"/>
      <point x="105" y="680" type="line"/>
      <point x="105" y="0" type="line"/>
      <point x="167" y="0" type="line"/>
      <point x="167" y="319" type="line"/>
      <point x="504" y="319" type="line"/>
    </contour>
  </outline>
</glyph>
<glyph name="J" format="1">
  <advance width="273"/>
  <unicode hex="004A"/>
  <outline>
    <contour>
      <point x="106" y="139" type="line"/>
      <point x="107" y="58"/>
      <point x="88" y="45"/>
      <point x="21" y="20" type="curve"/>
      <point x="45" y="-22" type="line"/>
      <point x="141" y="8"/>
      <point x="168" y="41"/>
      <point x="168" y="122" type="curve" smooth="yes"/>
      <point x="168" y="680" type="line"/>
      <point x="106" y="680" type="line"/>
    </contour>
  </outline>
</glyph>
<glyph name="K" format="1">
  <advance width="603"/>
  <unicode hex="004B"/>
  <outline>
    <contour>
      <point x="519" y="0" type="line"/>
      <point x="593" y="0" type="line"/>
      <point x="283" y="391" type="line"/>
      <point x="513" y="657" type="line"/>
      <point x="473" y="695" type="line"/>
      <point x="167" y="335" type="line"/>
      <point x="167" y="680" type="line"/>
      <point x="105" y="680" type="line"/>
      <point x="105" y="0" type="line"/>
      <point x="167" y="0" type="line"/>
      <point x="167" y="257" type="line"/>
      <point x="244" y="346" type="line"/>
    </contour>
    <contour>
      <point x="332" y="0" type="move" name="bottom"/>
    </contour>
  </outline>
</glyph>
<glyph name="N" format="1">
  <advance width="703"/>
  <unicode hex="004E"/>
  <outline>
    <contour>
      <point x="105" y="0" type="line"/>
      <point x="167" y="0" type="line"/>
      <point x="167" y="560" type="line"/>
      <point x="181" y="531" type="line"/>
      <point x="559" y="0" type="line"/>
      <point x="600" y="0" type="line"/>
      <point x="600" y="680" type="line"/>
      <point x="537" y="680" type="line"/>
      <point x="537" y="129" type="line"/>
      <point x="503" y="188" type="line"/>
      <point x="146" y="680" type="line"/>
      <point x="105" y="680" type="line"/>
    </contour>
    <contour>
      <point x="365" y="702" type="move" name="topU"/>
    </contour>
    <contour>
      <point x="351" y="0" type="move" name="bottom"/>
    </contour>
  </outline>
</glyph>
<glyph name="T" format="1">
  <advance width="514"/>
  <unicode hex="0054"/>
  <outline>
    <contour>
      <point x="503" y="631" type="line"/>
      <point x="498" y="680" type="line"/>
      <point x="10" y="680" type="line"/>
      <point x="10" y="631" type="line"/>
      <point x="225" y="631" type="line"/>
      <point x="225" y="0" type="line"/>
      <point x="288" y="0" type="line"/>
      <point x="288" y="631" type="line"/>
    </contour>
    <contour>
      <point x="257" y="702" type="move" name="topU"/>
    </contour>
    <contour>
      <point x="257" y="0" type="move" name="bottom"/>
    </contour>
  </outline>
</glyph>
<glyph name="V" format="1">
  <advance width="584"/>
  <unicode hex="0056"/>
  <outline>
    <contour>
      <point x="265" y="0" type="line"/>
      <point x="331" y="0" type="line"/>
      <point x="578" y="680" type="line"/>
      <point x="519" y="680" type="line"/>
      <point x="297" y="79" type="line"/>
      <point x="66" y="680" type="line"/>
      <point x="6" y="669" type="line"/>
    </contour>
  </outline>
</glyph>
<glyph name="W" format="1">
  <advance width="948"/>
  <unicode hex="0057"/>
  <outline>
    <contour>
      <point x="668" y="0" type="line"/>
      <point x="734" y="0" type="line"/>
      <point x="944" y="680" type="line"/>
      <point x="884" y="680" type="line"/>
      <point x="700" y="85" type="line"/>
      <point x="505" y="680" type="line"/>
      <point x="446" y="680" type="line"/>
      <point x="255" y="85" type="line"/>
      <point x="66" y="680" type="line"/>
      <point x="6" y="669" type="line"/>
      <point x="223" y="0" type="line"/>
      <point x="290" y="0" type="line"/>
      <point x="473" y="580" type="line"/>
    </contour>
  </outline>
</glyph>
<glyph name="Y" format="1">
  <advance width="547"/>
  <unicode hex="0059"/>
  <outline>
    <contour>
      <point x="240" y="0" type="line"/>
      <point x="303" y="0" type="line"/>
      <point x="304" y="283" type="line"/>
      <point x="542" y="680" type="line"/>
      <point x="475" y="680" type="line"/>
      <point x="272" y="336" type="line"/>
      <point x="71" y="680" type="line"/>
      <point x="6" y="669" type="line"/>
      <point x="241" y="276" type="line"/>
    </contour>
    <contour>
      <point x="272" y="702" type="move" name="topU"/>
    </contour>
  </outline>
</glyph>
<glyph name="Z" format="1">
  <advance width="566"/>
  <unicode hex="005A"/>
  <outline>
    <contour>
      <point x="519" y="0" type="line"/>
      <point x="514" y="50" type="line"/>
      <point x="94" y="50" type="line"/>
      <point x="534" y="631" type="line"/>
      <point x="529" y="680" type="line"/>
      <point x="52" y="680" type="line"/>
      <point x="62" y="631" type="line"/>
      <point x="467" y="631" type="line"/>
      <point x="25" y="50" type="line"/>
      <point x="31" y="0" type="line"/>
    </contour>
    <contour>
      <point x="290" y="702" type="move" name="topU"/>
    </contour>
  </outline>
</glyph>
<glyph name="asciicircum" format="1">
  <advance width="423"/>
  <unicode hex="005E"/>
  <outline>
    <contour>
      <point x="76" y="143" type="line"/>
      <point x="212" y="344" type="line"/>
      <point x="347" y="143" type="line"/>
      <point x="407" y="143" type="line"/>
      <point x="241" y="390" type="line"/>
      <point x="182" y="390" type="line"/>
      <point x="16" y="143" type="line"/>
    </contour>
  </outline>
</glyph>
<glyph name="underscore" format="1">
  <advance width="412"/>
  <unicode hex="005F"/>
  <outline>
    <contour>
      <point x="395" y="0" type="line"/>
      <point x="387" y="50" type="line"/>
      <point x="16" y="50" type="line"/>
      <point x="24" y="0" type="line"/>
    </contour>
  </outline>
</glyph>
<glyph name="c" format="1">
  <advance width="463"/>
  <unicode hex="0063"/>
  <outline>
    <contour>
      <point x="307" y="-13"/>
      <point x="372" y="3"/>
      <point x="412" y="28" type="curve"/>
      <point x="392" y="73" type="line"/>
      <point x="357" y="55"/>
      <point x="335" y="39"/>
      <point x="264" y="39" type="curve" smooth="yes"/>
      <point x="154" y="39"/>
      <point x="115" y="127"/>
      <point x="115" y="246" type="curve"/>
      <point x="117" y="360"/>
      <point x="162" y="446"/>
      <point x="269" y="446" type="curve" smooth="yes"/>
      <point x="339" y="446"/>
      <point x="363" y="428"/>
      <point x="397" y="412" type="curve"/>
      <point x="417" y="456" type="line"/>
      <point x="378" y="482"/>
      <point x="311" y="498"/>
      <point x="272" y="498" type="curve" smooth="yes"/>
      <point x="129" y="498"/>
      <point x="54" y="391"/>
      <point x="52" y="245" type="curve"/>
      <point x="52" y="94"/>
      <point x="122" y="-13"/>
      <point x="265" y="-13" type="curve" smooth="yes"/>
    </contour>
    <contour>
      <point x="271" y="535" type="move" name="top"/>
    </contour>
    <contour>
      <point x="265" y="0" type="move" name="bottom"/>
    </contour>
  </outline>
</glyph>
<glyph name="f" format="1">
  <advance width="288"/>
  <unicode hex="0066"/>
  <outline>
    <contour>
      <point x="21" y="475" type="line"/>
      <point x="22" y="428" type="line"/>
      <point x="94" y="428" type="line"/>
      <point x="94" y="0" type="line"/>
      <point x="156" y="0" type="line"/>
      <point x="156" y="428" type="line"/>
      <point x="265" y="428" type="line"/>
      <point x="244" y="475" type="line"/>
      <point x="156" y="475" type="line"/>
      <point x="156" y="563" type="line" smooth="yes"/>
      <point x="156" y="611"/>
      <point x="174" y="645"/>
      <point x="225" y="645" type="curve" smooth="yes"/>
      <point x="239" y="645"/>
      <point x="258" y="640"/>
      <point x="266" y="636" type="curve"/>
      <point x="278" y="689" type="line"/>
      <point x="265" y="694"/>
      <point x="239" y="702"/>
      <point x="212" y="702" type="curve" smooth="yes"/>
      <point x="140" y="702"/>
      <point x="94" y="647"/>
      <point x="94" y="563" type="curve" smooth="yes"/>
      <point x="94" y="475" type="line"/>
    </contour>
  </outline>
</glyph>
<glyph name="g" format="1">
  <advance width="542"/>
  <unicode hex="0067"/>
  <outline>
    <contour>
      <point x="389" y="-221"/>
      <point x="458" y="-150"/>
      <point x="458" y="-53" type="curve" smooth="yes"/>
      <point x="458" y="485" type="line"/>
      <point x="417" y="485" type="line"/>
      <point x="400" y="440" type="line"/>
      <point x="360" y="473"/>
      <point x="307" y="498"/>
      <point x="260" y="498" type="curve" smooth="yes"/>
      <point x="118" y="498"/>
      <point x="52" y="391"/>
      <point x="52" y="241" type="curve" smooth="yes"/>
      <point x="52" y="92"/>
      <point x="118" y="-13"/>
      <point x="260" y="-13" type="curve" smooth="yes"/>
      <point x="304" y="-13"/>
      <point x="356" y="8"/>
      <point x="395" y="40" type="curve"/>
      <point x="395" y="-52" type="line" smooth="yes"/>
      <point x="395" y="-132"/>
      <point x="342" y="-169"/>
      <point x="260" y="-169" type="curve"/>
      <point x="192" y="-168"/>
      <point x="160" y="-150"/>
      <point x="126" y="-134" type="curve"/>
      <point x="107" y="-180" type="line"/>
      <point x="145" y="-206"/>
      <point x="223" y="-221"/>
      <point x="262" y="-221" type="curve" smooth="yes"/>
    </contour>
    <contour>
      <point x="306" y="445"/>
      <point x="354" y="425"/>
      <point x="395" y="386" type="curve"/>
      <point x="395" y="98" type="line"/>
      <point x="354" y="59"/>
      <point x="306" y="40"/>
      <point x="266" y="40" type="curve" smooth="yes"/>
      <point x="156" y="40"/>
      <point x="115" y="124"/>
      <point x="115" y="242" type="curve" smooth="yes"/>
      <point x="115" y="360"/>
      <point x="156" y="445"/>
      <point x="266" y="445" type="curve" smooth="yes"/>
    </contour>
    <contour>
      <point x="260" y="535" type="move" name="top"/>
    </contour>
  </outline>
</glyph>
<glyph name="i" format="1">
  <advance width="232"/>
  <unicode hex="0069"/>
  <outline>
    <contour>
      <point x="69" y="611"/>
      <point x="88" y="591"/>
      <point x="116" y="591" type="curve" smooth="yes"/>
      <point x="142" y="591"/>
      <point x="164" y="611"/>
      <point x="164" y="638" type="curve" smooth="yes"/>
      <point x="164" y="665"/>
      <point x="142" y="685"/>
      <point x="116" y="685" type="curve" smooth="yes"/>
      <point x="88" y="685"/>
      <point x="69" y="665"/>
      <point x="69" y="638" type="curve" smooth="yes"/>
    </contour>
    <contour>
      <point x="85" y="0" type="line"/>
      <point x="148" y="0" type="line"/>
      <point x="148" y="485" type="line"/>
      <point x="85" y="485" type="line"/>
    </contour>
    <contour>
      <point x="108" y="0" type="move" name="bottom"/>
    </contour>
  </outline>
</glyph>
<glyph name="m" format="1">
  <advance width="843"/>
  <unicode hex="006D"/>
  <outline>
    <contour>
      <point x="84" y="0" type="line"/>
      <point x="146" y="0" type="line"/>
      <point x="146" y="366" type="line"/>
      <point x="192" y="419"/>
      <point x="248" y="445"/>
      <point x="295" y="445" type="curve" smooth="yes"/>
      <point x="365" y="444"/>
      <point x="395" y="392"/>
      <point x="395" y="325" type="curve" smooth="yes"/>
      <point x="395" y="1" type="line"/>
      <point x="458" y="1" type="line"/>
      <point x="458" y="337" type="line" smooth="yes"/>
      <point x="458" y="348"/>
      <point x="458" y="358"/>
      <point x="456" y="370" type="curve"/>
      <point x="502" y="419"/>
      <point x="556" y="445"/>
      <point x="601" y="445" type="curve" smooth="yes"/>
      <point x="671" y="444"/>
      <point x="703" y="392"/>
      <point x="703" y="325" type="curve" smooth="yes"/>
      <point x="703" y="1" type="line"/>
      <point x="766" y="1" type="line"/>
      <point x="766" y="337" type="line" smooth="yes"/>
      <point x="766" y="431"/>
      <point x="714" y="498"/>
      <point x="608" y="498" type="curve" smooth="yes"/>
      <point x="550" y="498"/>
      <point x="484" y="461"/>
      <point x="442" y="417" type="curve"/>
      <point x="420" y="466"/>
      <point x="372" y="498"/>
      <point x="301" y="498" type="curve" smooth="yes"/>
      <point x="247" y="498"/>
      <point x="187" y="466"/>
      <point x="145" y="426" type="curve"/>
      <point x="125" y="485" type="line"/>
      <point x="84" y="485" type="line"/>
    </contour>
  </outline>
</glyph>
<glyph name="n" format="1">
  <advance width="552"/>
  <unicode hex="006E"/>
  <outline>
    <contour>
      <point x="84" y="0" type="line"/>
      <point x="146" y="0" type="line"/>
      <point x="146" y="356" type="line"/>
      <point x="192" y="414"/>
      <point x="267" y="445"/>
      <point x="310" y="445" type="curve" smooth="yes"/>
      <point x="381" y="444"/>
      <point x="412" y="392"/>
      <point x="412" y="325" type="curve" smooth="yes"/>
      <point x="412" y="1" type="line"/>
      <point x="474" y="1" type="line"/>
      <point x="474" y="337" type="line" smooth="yes"/>
      <point x="474" y="431"/>
      <point x="422" y="498"/>
      <point x="317" y="498" type="curve" smooth="yes"/>
      <point x="257" y="498"/>
      <point x="186" y="457"/>
      <point x="145" y="409" type="curve"/>
      <point x="125" y="485" type="line"/>
      <point x="84" y="485" type="line"/>
    </contour>
    <contour>
      <point x="317" y="535" type="move" name="top"/>
    </contour>
    <contour>
      <point x="277" y="0" type="move" name="bottom"/>
    </contour>
  </outline>
</glyph>
<glyph name="t" format="1">
  <advance width="309"/>
  <unicode hex="0074"/>
  <outline>
    <contour>
      <point x="265" y="428" type="line"/>
      <point x="244" y="475" type="line"/>
      <point x="156" y="475" type="line"/>
      <point x="156" y="623" type="line"/>
      <point x="93" y="601" type="line"/>
      <point x="93" y="475" type="line"/>
      <point x="21" y="475" type="line"/>
      <point x="22" y="428" type="line"/>
      <point x="93" y="428" type="line"/>
      <point x="93" y="116" type="line" smooth="yes"/>
      <point x="93" y="31"/>
      <point x="140" y="-13"/>
      <point x="211" y="-13" type="curve" smooth="yes"/>
      <point x="239" y="-13"/>
      <point x="264" y="-4"/>
      <point x="277" y="-1" type="curve"/>
      <point x="265" y="50" type="line"/>
      <point x="258" y="47"/>
      <point x="239" y="41"/>
      <point x="224" y="41" type="curve" smooth="yes"/>
      <point x="174" y="41"/>
      <point x="156" y="75"/>
      <point x="156" y="123" type="curve" smooth="yes"/>
      <point x="156" y="428" type="line"/>
    </contour>
    <contour>
      <point x="198" y="0" type="move" name="bottom"/>
    </contour>
  </outline>
</glyph>
<glyph name="v" format="1">
  <advance width="469"/>
  <unicode hex="0076"/>
  <outline>
    <contour>
      <point x="206" y="0" type="line"/>
      <point x="272" y="0" type="line"/>
      <point x="449" y="485" type="line"/>
      <point x="389" y="485" type="line"/>
      <point x="239" y="79" type="line"/>
      <point x="83" y="485" type="line"/>
      <point x="21" y="475" type="line"/>
    </contour>
  </outline>
</glyph>
<glyph name="z" format="1">
  <advance width="472"/>
  <unicode hex="007A"/>
  <outline>
    <contour>
      <point x="428" y="453" type="line"/>
      <point x="425" y="485" type="line"/>
      <point x="71" y="485" type="line"/>
      <point x="87" y="436" type="line"/>
      <point x="343" y="436" type="line"/>
      <point x="42" y="31" type="line"/>
      <point x="50" y="0" type="line"/>
      <point x="422" y="0" type="line"/>
      <point x="412" y="48" type="line"/>
      <point x="123" y="48" type="line"/>
    </contour>
    <contour>
      <point x="245" y="535" type="move" name="top"/>
    </contour>
  </outline>
</glyph>
<glyph name="braceleft" format="1">
  <advance width="272"/>
  <unicode hex="007B"/>
  <outline>
    <contour>
      <point x="198" y="454"/>
      <point x="160" y="524"/>
      <point x="160" y="560" type="curve" smooth="yes"/>
      <point x="160" y="588"/>
      <point x="183" y="614"/>
      <point x="232" y="614" type="curve" smooth="yes"/>
      <point x="251" y="614" type="line"/>
      <point x="256" y="659" type="line"/>
      <point x="230" y="659" type="line" smooth="yes"/>
      <point x="145" y="659"/>
      <point x="106" y="618"/>
      <point x="106" y="554" type="curve" smooth="yes"/>
      <point x="106" y="513"/>
      <point x="142" y="452"/>
      <point x="142" y="410" type="curve" smooth="yes"/>
      <point x="142" y="360"/>
      <point x="104" y="328"/>
      <point x="64" y="328" type="curve" smooth="yes"/>
      <point x="31" y="328" type="line"/>
      <point x="31" y="288" type="line"/>
      <point x="64" y="288" type="line" smooth="yes"/>
      <point x="104" y="288"/>
      <point x="142" y="258"/>
      <point x="142" y="207" type="curve" smooth="yes"/>
      <point x="142" y="166"/>
      <point x="106" y="105"/>
      <point x="106" y="64" type="curve" smooth="yes"/>
      <point x="106" y="-1"/>
      <point x="145" y="-42"/>
      <point x="230" y="-42" type="curve" smooth="yes"/>
      <point x="256" y="-42" type="line"/>
      <point x="251" y="3" type="line"/>
      <point x="232" y="3" type="line" smooth="yes"/>
      <point x="183" y="3"/>
      <point x="160" y="29"/>
      <point x="160" y="58" type="curve" smooth="yes"/>
      <point x="160" y="93"/>
      <point x="198" y="162"/>
      <point x="198" y="199" type="curve" smooth="yes"/>
      <point x="198" y="254"/>
      <point x="175" y="293"/>
      <point x="134" y="311" type="curve"/>
      <point x="179" y="326"/>
      <point x="198" y="360"/>
      <point x="198" y="419" type="curve" smooth="yes"/>
    </contour>
  </outline>
</glyph>
<glyph name="braceright" format="1">
  <advance width="272"/>
  <unicode hex="007D"/>
  <outline>
    <contour>
      <point x="73" y="162"/>
      <point x="111" y="93"/>
      <point x="111" y="58" type="curve" smooth="yes"/>
      <point x="111" y="29"/>
      <point x="88" y="3"/>
      <point x="40" y="3" type="curve" smooth="yes"/>
      <point x="21" y="3" type="line"/>
      <point x="16" y="-42" type="line"/>
      <point x="41" y="-42" type="line" smooth="yes"/>
      <point x="127" y="-42"/>
      <point x="166" y="-1"/>
      <point x="166" y="64" type="curve" smooth="yes"/>
      <point x="166" y="105"/>
      <point x="129" y="166"/>
      <point x="129" y="207" type="curve" smooth="yes"/>
      <point x="129" y="258"/>
      <point x="167" y="290"/>
      <point x="207" y="290" type="curve" smooth="yes"/>
      <point x="240" y="290" type="line"/>
      <point x="240" y="329" type="line"/>
      <point x="207" y="329" type="line" smooth="yes"/>
      <point x="167" y="329"/>
      <point x="129" y="360"/>
      <point x="129" y="410" type="curve" smooth="yes"/>
      <point x="129" y="452"/>
      <point x="166" y="513"/>
      <point x="166" y="554" type="curve" smooth="yes"/>
      <point x="166" y="618"/>
      <point x="127" y="659"/>
      <point x="41" y="659" type="curve" smooth="yes"/>
      <point x="16" y="659" type="line"/>
      <point x="21" y="614" type="line"/>
      <point x="40" y="614" type="line" smooth="yes"/>
      <point x="88" y="614"/>
      <point x="111" y="588"/>
      <point x="111" y="560" type="curve" smooth="yes"/>
      <point x="111" y="524"/>
      <point x="73" y="454"/>
      <point x="73" y="419" type="curve" smooth="yes"/>
      <point x="73" y="363"/>
      <point x="96" y="324"/>
      <point x="139" y="306" type="curve"/>
      <point x="93" y="291"/>
      <point x="73" y="257"/>
      <point x="73" y="199" type="curve" smooth="yes"/>
    </contour>
  </outline>
</glyph>
<glyph name="exclamdown" format="1">
  <advance width="222"/>
  <unicode hex="00A1"/>
  <outline>
    <contour>
      <point x="74" y="0" type="line"/>
      <point x="148" y="0" type="line"/>
      <point x="132" y="485" type="line"/>
      <point x="90" y="505" type="line"/>
    </contour>
    <contour>
      <point x="62" y="627"/>
      <point x="84" y="605"/>
      <point x="111" y="605" type="curve" smooth="yes"/>
      <point x="137" y="605"/>
      <point x="158" y="627"/>
      <point x="158" y="654" type="curve" smooth="yes"/>
      <point x="158" y="680"/>
      <point x="137" y="702"/>
      <point x="111" y="702" type="curve" smooth="yes"/>
      <point x="84" y="702"/>
      <point x="62" y="680"/>
      <point x="62" y="654" type="curve"/>
    </contour>
  </outline>
</glyph>
<glyph name="currency" format="1">
  <advance width="667"/>
  <unicode hex="00A4"/>
  <outline>
    <contour>
      <point x="31" y="-18" type="line"/>
      <point x="65" y="-59" type="line"/>
      <point x="170" y="47" type="line"/>
      <point x="210" y="9"/>
      <point x="263" y="-12"/>
      <point x="325" y="-13" type="curve"/>
      <point x="392" y="-13"/>
      <point x="451" y="9"/>
      <point x="494" y="49" type="curve"/>
      <point x="601" y="-59" type="line"/>
      <point x="635" y="-18" type="line"/>
      <point x="531" y="90" type="line"/>
      <point x="559" y="131"/>
      <point x="576" y="182"/>
      <point x="577" y="239" type="curve"/>
      <point x="577" y="300"/>
      <point x="561" y="354"/>
      <point x="532" y="395" type="curve"/>
      <point x="635" y="501" type="line"/>
      <point x="601" y="543" type="line"/>
      <point x="497" y="437" type="line"/>
      <point x="456" y="475"/>
      <point x="401" y="498"/>
      <point x="337" y="498" type="curve"/>
      <point x="272" y="497"/>
      <point x="216" y="473"/>
      <point x="173" y="435" type="curve"/>
      <point x="65" y="543" type="line"/>
      <point x="31" y="501" type="line"/>
      <point x="136" y="394" type="line"/>
      <point x="108" y="353"/>
      <point x="90" y="302"/>
      <point x="90" y="245" type="curve"/>
      <point x="90" y="185"/>
      <point x="106" y="130"/>
      <point x="134" y="87" type="curve"/>
    </contour>
    <contour>
      <point x="449" y="445"/>
      <point x="514" y="356"/>
      <point x="514" y="239" type="curve"/>
      <point x="513" y="123"/>
      <point x="435" y="40"/>
      <point x="328" y="40" type="curve" smooth="yes"/>
      <point x="219" y="40"/>
      <point x="153" y="127"/>
      <point x="153" y="246" type="curve"/>
      <point x="154" y="360"/>
      <point x="231" y="445"/>
      <point x="338" y="445" type="curve" smooth="yes"/>
    </contour>
  </outline>
</glyph>
<glyph name="yen" format="1">
  <advance width="547"/>
  <unicode hex="00A5"/>
  <outline>
    <contour>
      <point x="240" y="0" type="line"/>
      <point x="303" y="0" type="line"/>
      <point x="303" y="78" type="line"/>
      <point x="493" y="78" type="line"/>
      <point x="484" y="127" type="line"/>
      <point x="304" y="127" type="line"/>
      <point x="304" y="259" type="line"/>
      <point x="493" y="259" type="line"/>
      <point x="484" y="309" type="line"/>
      <point x="320" y="309" type="line"/>
      <point x="542" y="680" type="line"/>
      <point x="475" y="680" type="line"/>
      <point x="272" y="336" type="line"/>
      <point x="71" y="680" type="line"/>
      <point x="6" y="669" type="line"/>
      <point x="223" y="309" type="line"/>
      <point x="55" y="309" type="line"/>
      <point x="63" y="259" type="line"/>
      <point x="241" y="259" type="line"/>
      <point x="241" y="127" type="line"/>
      <point x="55" y="127" type="line"/>
      <point x="63" y="78" type="line"/>
      <point x="240" y="78" type="line"/>
    </contour>
  </outline>
</glyph>
<glyph name="brokenbar" format="1">
  <advance width="272"/>
  <unicode hex="00A6"/>
  <outline>
    <contour>
      <point x="167" y="288" type="line"/>
      <point x="105" y="292" type="line"/>
      <point x="105" y="0" type="line"/>
      <point x="167" y="-4" type="line"/>
    </contour>
    <contour>
      <point x="167" y="706" type="line"/>
      <point x="105" y="710" type="line"/>
      <point x="105" y="410" type="line"/>
      <point x="167" y="406" type="line"/>
    </contour>
  </outline>
</glyph>
<glyph name="section" format="1">
  <advance width="589"/>
  <unicode hex="00A7"/>
  <outline>
    <contour>
      <point x="178" y="-68"/>
      <point x="114" y="-45"/>
      <point x="79" y="-28" type="curve"/>
      <point x="64" y="-76" type="line"/>
      <point x="87" y="-96"/>
      <point x="188" y="-119"/>
      <point x="246" y="-119" type="curve" smooth="yes"/>
      <point x="395" y="-119"/>
      <point x="479" y="-46"/>
      <point x="481" y="54" type="curve" smooth="yes"/>
      <point x="482" y="85"/>
      <point x="473" y="109"/>
      <point x="459" y="132" type="curve"/>
      <point x="507" y="162"/>
      <point x="534" y="209"/>
      <point x="535" y="265" type="curve" smooth="yes"/>
      <point x="540" y="466"/>
      <point x="166" y="454"/>
      <point x="166" y="615" type="curve" smooth="yes"/>
      <point x="166" y="685"/>
      <point x="224" y="729"/>
      <point x="321" y="729" type="curve" smooth="yes"/>
      <point x="392" y="729"/>
      <point x="430" y="711"/>
      <point x="465" y="695" type="curve"/>
      <point x="486" y="742" type="line"/>
      <point x="447" y="762"/>
      <point x="387" y="780"/>
      <point x="321" y="780" type="curve" smooth="yes"/>
      <point x="190" y="780"/>
      <point x="108" y="708"/>
      <point x="107" y="614" type="curve" smooth="yes"/>
      <point x="107" y="583"/>
      <point x="115" y="556"/>
      <point x="129" y="533" type="curve"/>
      <point x="82" y="503"/>
      <point x="54" y="457"/>
      <point x="53" y="402" type="curve" smooth="yes"/>
      <point x="51" y="196"/>
      <point x="422" y="211"/>
      <point x="422" y="55" type="curve" smooth="yes"/>
      <point x="422" y="-16"/>
      <point x="360" y="-68"/>
      <point x="245" y="-68" type="curve" smooth="yes"/>
    </contour>
    <contour>
      <point x="477" y="227"/>
      <point x="458" y="195"/>
      <point x="422" y="173" type="curve"/>
      <point x="318" y="259"/>
      <point x="111" y="284"/>
      <point x="111" y="403" type="curve" smooth="yes"/>
      <point x="111" y="442"/>
      <point x="130" y="475"/>
      <point x="164" y="494" type="curve"/>
      <point x="269" y="403"/>
      <point x="477" y="384"/>
      <point x="477" y="265" type="curve" smooth="yes"/>
    </contour>
  </outline>
</glyph>
<glyph name="registered" format="1">
  <advance width="738"/>
  <unicode hex="00AE"/>
  <outline>
    <contour>
      <point x="566" y="174"/>
      <point x="687" y="312"/>
      <point x="687" y="487" type="curve" smooth="yes"/>
      <point x="687" y="664"/>
      <point x="566" y="802"/>
      <point x="370" y="802" type="curve" smooth="yes"/>
      <point x="173" y="802"/>
      <point x="52" y="664"/>
      <point x="52" y="487" type="curve" smooth="yes"/>
      <point x="52" y="312"/>
      <point x="173" y="174"/>
      <point x="370" y="174" type="curve" smooth="yes"/>
    </contour>
    <contour>
      <point x="204" y="223"/>
      <point x="106" y="335"/>
      <point x="106" y="488" type="curve" smooth="yes"/>
      <point x="106" y="643"/>
      <point x="204" y="755"/>
      <point x="370" y="755" type="curve"/>
      <point x="534" y="755"/>
      <point x="633" y="643"/>
      <point x="633" y="488" type="curve" smooth="yes"/>
      <point x="633" y="335"/>
      <point x="534" y="223"/>
      <point x="370" y="221" type="curve"/>
    </contour>
    <contour>
      <point x="470" y="304" type="line"/>
      <point x="528" y="304" type="line"/>
      <point x="428" y="475" type="line"/>
      <point x="465" y="491"/>
      <point x="492" y="521"/>
      <point x="492" y="572" type="curve"/>
      <point x="492" y="651"/>
      <point x="435" y="680"/>
      <point x="356" y="680" type="curve" smooth="yes"/>
      <point x="259" y="680" type="line"/>
      <point x="259" y="304" type="line"/>
      <point x="309" y="304" type="line"/>
      <point x="309" y="462" type="line"/>
      <point x="351" y="462" type="line" smooth="yes"/>
      <point x="360" y="462"/>
      <point x="370" y="463"/>
      <point x="380" y="463" type="curve"/>
    </contour>
    <contour>
      <point x="342" y="640" type="line" smooth="yes"/>
      <point x="400" y="640"/>
      <point x="442" y="637"/>
      <point x="442" y="571" type="curve"/>
      <point x="441" y="509"/>
      <point x="393" y="501"/>
      <point x="337" y="501" type="curve" smooth="yes"/>
      <point x="309" y="501" type="line"/>
      <point x="309" y="640" type="line"/>
    </contour>
  </outline>
</glyph>
<glyph name="twosuperior" format="1">
  <advance width="390"/>
  <unicode hex="00B2"/>
  <outline>
    <contour>
      <point x="324" y="703"/>
      <point x="287" y="771"/>
      <point x="178" y="771" type="curve" smooth="yes"/>
      <point x="109" y="771"/>
      <point x="57" y="733"/>
      <point x="55" y="733" type="curve"/>
      <point x="77" y="689" type="line"/>
      <point x="78" y="691"/>
      <point x="125" y="726"/>
      <point x="176" y="726" type="curve" smooth="yes"/>
      <point x="244" y="726"/>
      <point x="269" y="684"/>
      <point x="269" y="647" type="curve" smooth="yes"/>
      <point x="269" y="616"/>
      <point x="253" y="575"/>
      <point x="187" y="515" type="curve"/>
      <point x="31" y="379" type="line"/>
      <point x="31" y="336" type="line"/>
      <point x="338" y="336" type="line"/>
      <point x="332" y="379" type="line"/>
      <point x="95" y="379" type="line"/>
      <point x="214" y="481" type="line" smooth="yes"/>
      <point x="288" y="545"/>
      <point x="324" y="591"/>
      <point x="324" y="647" type="curve" smooth="yes"/>
    </contour>
  </outline>
</glyph>
<glyph name="acute" format="1">
  <advance width="162"/>
  <unicode hex="00B4"/>
  <outline>
    <contour>
      <point x="76" y="742" type="line"/>
      <point x="16" y="589" type="line"/>
      <point x="62" y="589" type="line"/>
      <point x="148" y="742" type="line"/>
    </contour>
    <contour>
      <point x="66" y="535" type="move" name="_top"/>
    </contour>
  </outline>
</glyph>
<glyph name="ordmasculine" format="1">
  <advance width="395"/>
  <unicode hex="00BA"/>
  <outline>
    <contour>
      <point x="354" y="640"/>
      <point x="291" y="702"/>
      <point x="197" y="702" type="curve" smooth="yes"/>
      <point x="109" y="702"/>
      <point x="42" y="636"/>
      <point x="42" y="532" type="curve" smooth="yes"/>
      <point x="42" y="424"/>
      <point x="104" y="363"/>
      <point x="197" y="363" type="curve" smooth="yes"/>
      <point x="286" y="363"/>
      <point x="354" y="428"/>
      <point x="354" y="532" type="curve" smooth="yes"/>
    </contour>
    <contour>
      <point x="102" y="619"/>
      <point x="154" y="652"/>
      <point x="197" y="652" type="curve" smooth="yes"/>
      <point x="246" y="652"/>
      <point x="292" y="617"/>
      <point x="292" y="532" type="curve" smooth="yes"/>
      <point x="292" y="445"/>
      <point x="241" y="412"/>
      <point x="197" y="412" type="curve" smooth="yes"/>
      <point x="150" y="412"/>
      <point x="102" y="449"/>
      <point x="102" y="532" type="curve" smooth="yes"/>
    </contour>
  </outline>
</glyph>
<glyph name="onequarter" format="1">
  <advance width="736"/>
  <unicode hex="00BC"/>
  <outline>
    <contour>
      <point x="700" y="-75" type="line"/>
      <point x="704" y="-31" type="line"/>
      <point x="627" y="-31" type="line"/>
      <point x="627" y="321" type="line"/>
      <point x="591" y="321" type="line"/>
      <point x="338" y="-31" type="line"/>
      <point x="337" y="-31" type="line"/>
      <point x="337" y="-34" type="line"/>
      <point x="342" y="-75" type="line"/>
      <point x="575" y="-75" type="line"/>
      <point x="575" y="-163" type="line"/>
      <point x="627" y="-163" type="line"/>
      <point x="627" y="-75" type="line"/>
    </contour>
    <contour>
      <point x="269" y="336" type="line"/>
      <point x="262" y="379" type="line"/>
      <point x="196" y="379" type="line"/>
      <point x="196" y="765" type="line"/>
      <point x="160" y="765" type="line"/>
      <point x="64" y="700" type="line"/>
      <point x="87" y="663" type="line"/>
      <point x="141" y="700" type="line"/>
      <point x="141" y="379" type="line"/>
      <point x="62" y="379" type="line"/>
      <point x="69" y="336" type="line"/>
    </contour>
    <contour>
      <point x="509" y="498" type="line"/>
      <point x="454" y="501" type="line"/>
      <point x="164" y="0" type="line"/>
      <point x="219" y="-4" type="line"/>
    </contour>
    <contour>
      <point x="395" y="-31" type="line"/>
      <point x="575" y="220" type="line"/>
      <point x="575" y="-31" type="line"/>
    </contour>
  </outline>
</glyph>
<glyph name="threequarters" format="1">
  <advance width="801"/>
  <unicode hex="00BE"/>
  <outline>
    <contour>
      <point x="766" y="-75" type="line"/>
      <point x="770" y="-31" type="line"/>
      <point x="692" y="-31" type="line"/>
      <point x="692" y="321" type="line"/>
      <point x="656" y="321" type="line"/>
      <point x="403" y="-31" type="line"/>
      <point x="401" y="-31" type="line"/>
      <point x="401" y="-34" type="line"/>
      <point x="407" y="-75" type="line"/>
      <point x="640" y="-75" type="line"/>
      <point x="640" y="-163" type="line"/>
      <point x="692" y="-163" type="line"/>
      <point x="692" y="-75" type="line"/>
    </contour>
    <contour>
      <point x="336" y="716"/>
      <point x="287" y="771"/>
      <point x="186" y="771" type="curve" smooth="yes"/>
      <point x="125" y="771"/>
      <point x="80" y="752"/>
      <point x="40" y="727" type="curve"/>
      <point x="62" y="689" type="line"/>
      <point x="87" y="705"/>
      <point x="128" y="727"/>
      <point x="185" y="727" type="curve" smooth="yes"/>
      <point x="247" y="727"/>
      <point x="281" y="696"/>
      <point x="281" y="650" type="curve" smooth="yes"/>
      <point x="281" y="593"/>
      <point x="236" y="560"/>
      <point x="153" y="560" type="curve" smooth="yes"/>
      <point x="127" y="560" type="line"/>
      <point x="134" y="516" type="line"/>
      <point x="148" y="516" type="line" smooth="yes"/>
      <point x="253" y="516"/>
      <point x="291" y="480"/>
      <point x="291" y="415" type="curve" smooth="yes"/>
      <point x="291" y="353"/>
      <point x="238" y="323"/>
      <point x="178" y="323" type="curve" smooth="yes"/>
      <point x="121" y="323"/>
      <point x="90" y="335"/>
      <point x="55" y="356" type="curve"/>
      <point x="31" y="318" type="line"/>
      <point x="66" y="298"/>
      <point x="118" y="278"/>
      <point x="174" y="278" type="curve" smooth="yes"/>
      <point x="280" y="278"/>
      <point x="345" y="338"/>
      <point x="345" y="416" type="curve" smooth="yes"/>
      <point x="345" y="479"/>
      <point x="308" y="525"/>
      <point x="251" y="538" type="curve"/>
      <point x="297" y="553"/>
      <point x="336" y="596"/>
      <point x="336" y="651" type="curve" smooth="yes"/>
    </contour>
    <contour>
      <point x="574" y="498" type="line"/>
      <point x="519" y="501" type="line"/>
      <point x="229" y="0" type="line"/>
      <point x="283" y="-4" type="line"/>
    </contour>
    <contour>
      <point x="461" y="-31" type="line"/>
      <point x="640" y="220" type="line"/>
      <point x="640" y="-31" type="line"/>
    </contour>
  </outline>
</glyph>
<glyph name="questiondown" format="1">
  <advance width="412"/>
  <unicode hex="00BF"/>
  <outline>
    <contour>
      <point x="31" y="-13"/>
      <point x="85" y="-80"/>
      <point x="219" y="-80" type="curve" smooth="yes"/>
      <point x="298" y="-80"/>
      <point x="344" y="-55"/>
      <point x="395" y="-21" type="curve"/>
      <point x="387" y="35" type="line"/>
      <point x="335" y="-2"/>
      <point x="294" y="-26"/>
      <point x="221" y="-26" type="curve" smooth="yes"/>
      <point x="137" y="-26"/>
      <point x="97" y="4"/>
      <point x="97" y="84" type="curve"/>
      <point x="97" y="161"/>
      <point x="170" y="224"/>
      <point x="274" y="258" type="curve"/>
      <point x="266" y="464" type="line"/>
      <point x="220" y="483" type="line"/>
      <point x="213" y="290" type="line"/>
      <point x="101" y="241"/>
      <point x="31" y="159"/>
      <point x="31" y="82" type="curve" smooth="yes"/>
    </contour>
    <contour>
      <point x="196" y="547"/>
      <point x="218" y="525"/>
      <point x="244" y="525" type="curve" smooth="yes"/>
      <point x="271" y="525"/>
      <point x="292" y="547"/>
      <point x="292" y="574" type="curve" smooth="yes"/>
      <point x="292" y="600"/>
      <point x="271" y="622"/>
      <point x="244" y="622" type="curve" smooth="yes"/>
      <point x="218" y="622"/>
      <point x="196" y="600"/>
      <point x="196" y="574" type="curve" smooth="yes"/>
    </contour>
  </outline>
</glyph>
<glyph name="Acircumflex" format="1">
  <advance width="584"/>
  <unicode hex="00C2"/>
  <outline>
    <contour>
      <point x="318" y="680" type="line"/>
      <point x="253" y="680" type="line"/>
      <point x="6" y="0" type="line"/>
      <point x="65" y="0" type="line"/>
      <point x="140" y="204" type="line"/>
      <point x="437" y="204" type="line"/>
      <point x="517" y="0" type="line"/>
      <point x="578" y="10" type="line"/>
    </contour>
    <contour>
      <point x="286" y="600" type="line"/>
      <point x="419" y="254" type="line"/>
      <point x="157" y="254" type="line"/>
    </contour>
    <contour>
      <point x="211" y="739" type="line"/>
      <point x="286" y="848" type="line"/>
      <point x="360" y="739" type="line"/>
      <point x="422" y="739" type="line"/>
      <point x="316" y="892" type="line"/>
      <point x="256" y="892" type="line"/>
      <point x="151" y="739" type="line"/>
    </contour>
  </outline>
</glyph>
<glyph name="Aring" format="1">
  <advance width="584"/>
  <unicode hex="00C5"/>
  <outline>
    <contour>
      <point x="318" y="680" type="line"/>
      <point x="253" y="680" type="line"/>
      <point x="6" y="0" type="line"/>
      <point x="65" y="0" type="line"/>
      <point x="140" y="204" type="line"/>
      <point x="437" y="204" type="line"/>
      <point x="517" y="0" type="line"/>
      <point x="578" y="10" type="line"/>
    </contour>
    <contour>
      <point x="286" y="600" type="line"/>
      <point x="419" y="254" type="line"/>
      <point x="157" y="254" type="line"/>
    </contour>
    <contour>
      <point x="330" y="801"/>
      <point x="310" y="783"/>
      <point x="286" y="783" type="curve" smooth="yes"/>
      <point x="262" y="783"/>
      <point x="242" y="801"/>
      <point x="242" y="825" type="curve" smooth="yes"/>
      <point x="242" y="850"/>
      <point x="262" y="869"/>
      <point x="286" y="869" type="curve" smooth="yes"/>
      <point x="310" y="869"/>
      <point x="330" y="850"/>
      <point x="330" y="825" type="curve" smooth="yes"/>
    </contour>
    <contour>
      <point x="374" y="873"/>
      <point x="334" y="909"/>
      <point x="286" y="909" type="curve" smooth="yes"/>
      <point x="238" y="909"/>
      <point x="197" y="873"/>
      <point x="197" y="825" type="curve" smooth="yes"/>
      <point x="197" y="778"/>
      <point x="238" y="744"/>
      <point x="286" y="744" type="curve" smooth="yes"/>
      <point x="334" y="744"/>
      <point x="374" y="778"/>
      <point x="374" y="825" type="curve" smooth="yes"/>
    </contour>
  </outline>
</glyph>
<glyph name="Ecircumflex" format="1">
  <advance width="524"/>
  <unicode hex="00CA"/>
  <outline>
    <contour>
      <point x="105" y="0" type="line"/>
      <point x="493" y="0" type="line"/>
      <point x="487" y="50" type="line"/>
      <point x="167" y="50" type="line"/>
      <point x="167" y="326" type="line"/>
      <point x="372" y="326" type="line"/>
      <point x="367" y="371" type="line"/>
      <point x="167" y="371" type="line"/>
      <point x="167" y="635" type="line"/>
      <point x="470" y="635" type="line"/>
      <point x="465" y="680" type="line"/>
      <point x="105" y="680" type="line"/>
    </contour>
    <contour>
      <point x="207" y="739" type="line"/>
      <point x="282" y="848" type="line"/>
      <point x="356" y="739" type="line"/>
      <point x="418" y="739" type="line"/>
      <point x="312" y="892" type="line"/>
      <point x="252" y="892" type="line"/>
      <point x="147" y="739" type="line"/>
    </contour>
  </outline>
</glyph>
<glyph name="Edieresis" format="1">
  <advance width="524"/>
  <unicode hex="00CB"/>
  <outline>
    <contour>
      <point x="105" y="0" type="line"/>
      <point x="493" y="0" type="line"/>
      <point x="487" y="50" type="line"/>
      <point x="167" y="50" type="line"/>
      <point x="167" y="326" type="line"/>
      <point x="372" y="326" type="line"/>
      <point x="367" y="371" type="line"/>
      <point x="167" y="371" type="line"/>
      <point x="167" y="635" type="line"/>
      <point x="470" y="635" type="line"/>
      <point x="465" y="680" type="line"/>
      <point x="105" y="680" type="line"/>
    </contour>
    <contour>
      <point x="248" y="835"/>
      <point x="229" y="854"/>
      <point x="204" y="854" type="curve" smooth="yes"/>
      <point x="181" y="854"/>
      <point x="161" y="835"/>
      <point x="161" y="812" type="curve" smooth="yes"/>
      <point x="161" y="787"/>
      <point x="181" y="768"/>
      <point x="204" y="768" type="curve" smooth="yes"/>
      <point x="229" y="768"/>
      <point x="248" y="787"/>
      <point x="248" y="812" type="curve" smooth="yes"/>
    </contour>
    <contour>
      <point x="404" y="835"/>
      <point x="386" y="854"/>
      <point x="361" y="854" type="curve" smooth="yes"/>
      <point x="337" y="854"/>
      <point x="318" y="835"/>
      <point x="318" y="812" type="curve" smooth="yes"/>
      <point x="318" y="787"/>
      <point x="337" y="768"/>
      <point x="361" y="768" type="curve" smooth="yes"/>
      <point x="386" y="768"/>
      <point x="404" y="787"/>
      <point x="404" y="812" type="curve" smooth="yes"/>
    </contour>
  </outline>
</glyph>
<glyph name="Igrave" format="1">
  <advance width="272"/>
  <unicode hex="00CC"/>
  <outline>
    <contour>
      <point x="105" y="0" type="line"/>
      <point x="167" y="0" type="line"/>
      <point x="167" y="680" type="line"/>
      <point x="105" y="680" type="line"/>
    </contour>
    <contour>
      <point x="51" y="892" type="line"/>
      <point x="136" y="739" type="line"/>
      <point x="183" y="739" type="line"/>
      <point x="122" y="892" type="line"/>
    </contour>
  </outline>
</glyph>
<glyph name="Idieresis" format="1">
  <advance width="272"/>
  <unicode hex="00CF"/>
  <outline>
    <contour>
      <point x="105" y="0" type="line"/>
      <point x="167" y="0" type="line"/>
      <point x="167" y="680" type="line"/>
      <point x="105" y="680" type="line"/>
    </contour>
    <contour>
      <point x="102" y="835"/>
      <point x="83" y="854"/>
      <point x="58" y="854" type="curve" smooth="yes"/>
      <point x="35" y="854"/>
      <point x="15" y="835"/>
      <point x="15" y="812" type="curve" smooth="yes"/>
      <point x="15" y="787"/>
      <point x="35" y="768"/>
      <point x="58" y="768" type="curve" smooth="yes"/>
      <point x="83" y="768"/>
      <point x="102" y="787"/>
      <point x="102" y="812" type="curve" smooth="yes"/>
    </contour>
    <contour>
      <point x="258" y="835"/>
      <point x="240" y="854"/>
      <point x="215" y="854" type="curve" smooth="yes"/>
      <point x="191" y="854"/>
      <point x="172" y="835"/>
      <point x="172" y="812" type="curve" smooth="yes"/>
      <point x="172" y="787"/>
      <point x="191" y="768"/>
      <point x="215" y="768" type="curve" smooth="yes"/>
      <point x="240" y="768"/>
      <point x="258" y="787"/>
      <point x="258" y="812" type="curve" smooth="yes"/>
    </contour>
  </outline>
</glyph>
<glyph name="Otilde" format="1">
  <advance width="736"/>
  <unicode hex="00D5"/>
  <outline>
    <contour>
      <point x="664" y="531"/>
      <point x="580" y="696"/>
      <point x="371" y="696" type="curve"/>
      <point x="174" y="692"/>
      <point x="73" y="537"/>
      <point x="73" y="337" type="curve" smooth="yes"/>
      <point x="73" y="152"/>
      <point x="156" y="-14"/>
      <point x="365" y="-14" type="curve"/>
      <point x="562" y="-11"/>
      <point x="664" y="156"/>
      <point x="664" y="345" type="curve" smooth="yes"/>
    </contour>
    <contour>
      <point x="207" y="41"/>
      <point x="139" y="175"/>
      <point x="139" y="338" type="curve" smooth="yes"/>
      <point x="139" y="514"/>
      <point x="229" y="640"/>
      <point x="372" y="640" type="curve"/>
      <point x="529" y="640"/>
      <point x="596" y="507"/>
      <point x="596" y="344" type="curve" smooth="yes"/>
      <point x="596" y="167"/>
      <point x="507" y="41"/>
      <point x="363" y="41" type="curve"/>
    </contour>
    <contour>
      <point x="464" y="849" type="line"/>
      <point x="461" y="818"/>
      <point x="443" y="806"/>
      <point x="426" y="806" type="curve"/>
      <point x="391" y="806"/>
      <point x="369" y="853"/>
      <point x="313" y="853" type="curve" smooth="yes"/>
      <point x="267" y="853"/>
      <point x="227" y="833"/>
      <point x="230" y="762" type="curve"/>
      <point x="275" y="762" type="line"/>
      <point x="278" y="793"/>
      <point x="297" y="806"/>
      <point x="314" y="806" type="curve" smooth="yes"/>
      <point x="348" y="806"/>
      <point x="380" y="758"/>
      <point x="426" y="758" type="curve" smooth="yes"/>
      <point x="473" y="758"/>
      <point x="512" y="779"/>
      <point x="510" y="849" type="curve"/>
    </contour>
  </outline>
</glyph>
<glyph name="Udieresis" format="1">
  <advance width="685"/>
  <unicode hex="00DC"/>
  <outline>
    <contour>
      <point x="227" y="41"/>
      <point x="156" y="131"/>
      <point x="156" y="248" type="curve" smooth="yes"/>
      <point x="156" y="680" type="line"/>
      <point x="94" y="680" type="line"/>
      <point x="94" y="239" type="line" smooth="yes"/>
      <point x="94" y="93"/>
      <point x="188" y="-11"/>
      <point x="342" y="-12" type="curve"/>
      <point x="498" y="-12"/>
      <point x="591" y="93"/>
      <point x="591" y="239" type="curve" smooth="yes"/>
      <point x="591" y="680" type="line"/>
      <point x="528" y="680" type="line"/>
      <point x="528" y="248" type="line" smooth="yes"/>
      <point x="528" y="131"/>
      <point x="461" y="41"/>
      <point x="342" y="41" type="curve" smooth="yes"/>
    </contour>
    <contour>
      <point x="308" y="835"/>
      <point x="289" y="854"/>
      <point x="264" y="854" type="curve" smooth="yes"/>
      <point x="241" y="854"/>
      <point x="221" y="835"/>
      <point x="221" y="812" type="curve" smooth="yes"/>
      <point x="221" y="787"/>
      <point x="241" y="768"/>
      <point x="264" y="768" type="curve" smooth="yes"/>
      <point x="289" y="768"/>
      <point x="308" y="787"/>
      <point x="308" y="812" type="curve" smooth="yes"/>
    </contour>
    <contour>
      <point x="464" y="835"/>
      <point x="446" y="854"/>
      <point x="421" y="854" type="curve" smooth="yes"/>
      <point x="397" y="854"/>
      <point x="378" y="835"/>
      <point x="378" y="812" type="curve" smooth="yes"/>
      <point x="378" y="787"/>
      <point x="397" y="768"/>
      <point x="421" y="768" type="curve" smooth="yes"/>
      <point x="446" y="768"/>
      <point x="464" y="787"/>
      <point x="464" y="812" type="curve" smooth="yes"/>
    </contour>
  </outline>
</glyph>
<glyph name="Thorn" format="1">
  <advance width="589"/>
  <unicode hex="00DE"/>
  <outline>
    <contour>
      <point x="105" y="0" type="line"/>
      <point x="167" y="0" type="line"/>
      <point x="167" y="150" type="line"/>
      <point x="270" y="150" type="line" smooth="yes"/>
      <point x="412" y="150"/>
      <point x="524" y="214"/>
      <point x="526" y="361" type="curve"/>
      <point x="526" y="511"/>
      <point x="423" y="566"/>
      <point x="281" y="566" type="curve" smooth="yes"/>
      <point x="167" y="566" type="line"/>
      <point x="167" y="680" type="line"/>
      <point x="105" y="680" type="line"/>
    </contour>
    <contour>
      <point x="283" y="514" type="line" smooth="yes"/>
      <point x="393" y="514"/>
      <point x="463" y="478"/>
      <point x="463" y="360" type="curve"/>
      <point x="462" y="246"/>
      <point x="379" y="203"/>
      <point x="272" y="203" type="curve" smooth="yes"/>
      <point x="167" y="203" type="line"/>
      <point x="167" y="514" type="line"/>
    </contour>
  </outline>
</glyph>
<glyph name="aring" format="1">
  <advance width="500"/>
  <unicode hex="00E5"/>
  <outline>
    <contour>
      <point x="201" y="498"/>
      <point x="123" y="482"/>
      <point x="86" y="456" type="curve"/>
      <point x="105" y="412" type="line"/>
      <point x="140" y="428"/>
      <point x="173" y="446"/>
      <point x="244" y="446" type="curve" smooth="yes"/>
      <point x="323" y="446"/>
      <point x="360" y="397"/>
      <point x="360" y="330" type="curve" smooth="yes"/>
      <point x="360" y="281" type="line"/>
      <point x="225" y="281" type="line"/>
      <point x="123" y="282"/>
      <point x="52" y="229"/>
      <point x="52" y="136" type="curve" smooth="yes"/>
      <point x="52" y="51"/>
      <point x="105" y="-13"/>
      <point x="215" y="-13" type="curve" smooth="yes"/>
      <point x="272" y="-13"/>
      <point x="332" y="20"/>
      <point x="363" y="52" type="curve"/>
      <point x="381" y="0" type="line"/>
      <point x="422" y="0" type="line"/>
      <point x="422" y="340" type="line" smooth="yes"/>
      <point x="422" y="435"/>
      <point x="352" y="498"/>
      <point x="241" y="498" type="curve" smooth="yes"/>
    </contour>
    <contour>
      <point x="140" y="38"/>
      <point x="113" y="90"/>
      <point x="113" y="136" type="curve" smooth="yes"/>
      <point x="113" y="192"/>
      <point x="150" y="240"/>
      <point x="223" y="240" type="curve" smooth="yes"/>
      <point x="360" y="240" type="line"/>
      <point x="360" y="117" type="line"/>
      <point x="326" y="75"/>
      <point x="276" y="38"/>
      <point x="213" y="38" type="curve" smooth="yes"/>
    </contour>
    <contour>
      <point x="288" y="651"/>
      <point x="267" y="633"/>
      <point x="244" y="633" type="curve" smooth="yes"/>
      <point x="219" y="633"/>
      <point x="199" y="651"/>
      <point x="199" y="675" type="curve" smooth="yes"/>
      <point x="199" y="700"/>
      <point x="219" y="719"/>
      <point x="244" y="719" type="curve" smooth="yes"/>
      <point x="267" y="719"/>
      <point x="288" y="700"/>
      <point x="288" y="675" type="curve" smooth="yes"/>
    </contour>
    <contour>
      <point x="332" y="723"/>
      <point x="291" y="759"/>
      <point x="244" y="759" type="curve" smooth="yes"/>
      <point x="195" y="759"/>
      <point x="154" y="723"/>
      <point x="154" y="675" type="curve" smooth="yes"/>
      <point x="154" y="628"/>
      <point x="195" y="594"/>
      <point x="244" y="594" type="curve" smooth="yes"/>
      <point x="291" y="594"/>
      <point x="332" y="628"/>
      <point x="332" y="675" type="curve" smooth="yes"/>
    </contour>
  </outline>
</glyph>
<glyph name="ae" format="1">
  <advance width="830"/>
  <unicode hex="00E6"/>
  <outline>
    <contour>
      <point x="782" y="239" type="line"/>
      <point x="782" y="388"/>
      <point x="722" y="498"/>
      <point x="579" y="498" type="curve" smooth="yes"/>
      <point x="500" y="498"/>
      <point x="441" y="464"/>
      <point x="405" y="409" type="curve"/>
      <point x="378" y="463"/>
      <point x="321" y="498"/>
      <point x="241" y="498" type="curve" smooth="yes"/>
      <point x="201" y="498"/>
      <point x="123" y="482"/>
      <point x="86" y="456" type="curve"/>
      <point x="105" y="412" type="line"/>
      <point x="140" y="428"/>
      <point x="173" y="446"/>
      <point x="244" y="446" type="curve" smooth="yes"/>
      <point x="323" y="446"/>
      <point x="360" y="397"/>
      <point x="360" y="330" type="curve" smooth="yes"/>
      <point x="360" y="281" type="line"/>
      <point x="225" y="281" type="line"/>
      <point x="123" y="282"/>
      <point x="52" y="229"/>
      <point x="52" y="136" type="curve" smooth="yes"/>
      <point x="52" y="51"/>
      <point x="103" y="-13"/>
      <point x="219" y="-13" type="curve" smooth="yes"/>
      <point x="299" y="-13"/>
      <point x="369" y="33"/>
      <point x="401" y="84" type="curve"/>
      <point x="437" y="24"/>
      <point x="503" y="-13"/>
      <point x="594" y="-13" type="curve" smooth="yes"/>
      <point x="635" y="-13"/>
      <point x="717" y="0"/>
      <point x="755" y="25" type="curve"/>
      <point x="736" y="71" type="line"/>
      <point x="703" y="54"/>
      <point x="664" y="37"/>
      <point x="593" y="37" type="curve" smooth="yes"/>
      <point x="472" y="37"/>
      <point x="423" y="123"/>
      <point x="422" y="239" type="curve"/>
    </contour>
    <contour>
      <point x="140" y="38"/>
      <point x="113" y="90"/>
      <point x="113" y="136" type="curve" smooth="yes"/>
      <point x="113" y="192"/>
      <point x="150" y="239"/>
      <point x="223" y="239" type="curve" smooth="yes"/>
      <point x="360" y="239" type="line"/>
      <point x="360" y="200"/>
      <point x="367" y="166"/>
      <point x="377" y="134" type="curve"/>
      <point x="344" y="80"/>
      <point x="284" y="38"/>
      <point x="213" y="38" type="curve" smooth="yes"/>
    </contour>
    <contour>
      <point x="672" y="446"/>
      <point x="711" y="377"/>
      <point x="719" y="282" type="curve"/>
      <point x="423" y="282" type="line"/>
      <point x="435" y="377"/>
      <point x="481" y="446"/>
      <point x="577" y="446" type="curve" smooth="yes"/>
    </contour>
  </outline>
</glyph>
<glyph name="ccedilla" format="1">
  <advance width="463"/>
  <unicode hex="00E7"/>
  <outline>
    <contour>
      <point x="392" y="73" type="line"/>
      <point x="357" y="55"/>
      <point x="335" y="39"/>
      <point x="264" y="39" type="curve" smooth="yes"/>
      <point x="154" y="39"/>
      <point x="115" y="127"/>
      <point x="115" y="246" type="curve"/>
      <point x="117" y="360"/>
      <point x="162" y="446"/>
      <point x="269" y="446" type="curve" smooth="yes"/>
      <point x="339" y="446"/>
      <point x="363" y="428"/>
      <point x="397" y="412" type="curve"/>
      <point x="417" y="456" type="line"/>
      <point x="378" y="482"/>
      <point x="311" y="498"/>
      <point x="272" y="498" type="curve" smooth="yes"/>
      <point x="129" y="498"/>
      <point x="54" y="391"/>
      <point x="52" y="245" type="curve"/>
      <point x="52" y="103"/>
      <point x="113" y="1"/>
      <point x="238" y="-11" type="curve"/>
      <point x="212" y="-81" type="line"/>
      <point x="261" y="-86"/>
      <point x="300" y="-106"/>
      <point x="300" y="-134" type="curve" smooth="yes"/>
      <point x="300" y="-160"/>
      <point x="270" y="-174"/>
      <point x="244" y="-174" type="curve" smooth="yes"/>
      <point x="223" y="-174"/>
      <point x="196" y="-166"/>
      <point x="185" y="-160" type="curve"/>
      <point x="168" y="-202" type="line"/>
      <point x="187" y="-213"/>
      <point x="219" y="-221"/>
      <point x="244" y="-221" type="curve" smooth="yes"/>
      <point x="302" y="-221"/>
      <point x="356" y="-193"/>
      <point x="356" y="-132" type="curve" smooth="yes"/>
      <point x="356" y="-97"/>
      <point x="320" y="-60"/>
      <point x="275" y="-54" type="curve"/>
      <point x="291" y="-11" type="line"/>
      <point x="331" y="-6"/>
      <point x="379" y="8"/>
      <point x="412" y="28" type="curve"/>
    </contour>
  </outline>
</glyph>
<glyph name="icircumflex" format="1">
  <advance width="232"/>
  <unicode hex="00EE"/>
  <outline>
    <contour>
      <point x="85" y="0" type="line"/>
      <point x="148" y="0" type="line"/>
      <point x="148" y="485" type="line"/>
      <point x="85" y="485" type="line"/>
    </contour>
    <contour>
      <point x="41" y="589" type="line"/>
      <point x="117" y="698" type="line"/>
      <point x="190" y="589" type="line"/>
      <point x="252" y="589" type="line"/>
      <point x="146" y="742" type="line"/>
      <point x="87" y="742" type="line"/>
      <point x="-20" y="589" type="line"/>
    </contour>
  </outline>
</glyph>
<glyph name="otilde" format="1">
  <advance width="528"/>
  <unicode hex="00F5"/>
  <outline>
    <contour>
      <point x="52" y="97"/>
      <point x="116" y="-11"/>
      <point x="257" y="-13" type="curve"/>
      <point x="398" y="-13"/>
      <point x="474" y="92"/>
      <point x="475" y="239" type="curve"/>
      <point x="475" y="389"/>
      <point x="410" y="498"/>
      <point x="267" y="498" type="curve"/>
      <point x="127" y="496"/>
      <point x="54" y="389"/>
      <point x="52" y="245" type="curve"/>
    </contour>
    <contour>
      <point x="379" y="445"/>
      <point x="414" y="356"/>
      <point x="414" y="239" type="curve"/>
      <point x="412" y="123"/>
      <point x="366" y="40"/>
      <point x="258" y="40" type="curve" smooth="yes"/>
      <point x="149" y="40"/>
      <point x="115" y="127"/>
      <point x="115" y="246" type="curve"/>
      <point x="117" y="360"/>
      <point x="162" y="445"/>
      <point x="269" y="445" type="curve" smooth="yes"/>
    </contour>
    <contour>
      <point x="358" y="699" type="line"/>
      <point x="356" y="668"/>
      <point x="337" y="656"/>
      <point x="321" y="656" type="curve"/>
      <point x="286" y="656"/>
      <point x="264" y="703"/>
      <point x="207" y="703" type="curve" smooth="yes"/>
      <point x="161" y="703"/>
      <point x="122" y="683"/>
      <point x="123" y="612" type="curve"/>
      <point x="171" y="612" type="line"/>
      <point x="173" y="643"/>
      <point x="191" y="656"/>
      <point x="209" y="656" type="curve" smooth="yes"/>
      <point x="244" y="656"/>
      <point x="276" y="608"/>
      <point x="321" y="608" type="curve" smooth="yes"/>
      <point x="368" y="608"/>
      <point x="407" y="629"/>
      <point x="405" y="699" type="curve"/>
    </contour>
  </outline>
</glyph>
<glyph name="divide" format="1">
  <advance width="480"/>
  <unicode hex="00F7"/>
  <outline>
    <contour>
      <point x="182" y="386"/>
      <point x="206" y="360"/>
      <point x="239" y="360" type="curve" smooth="yes"/>
      <point x="270" y="360"/>
      <point x="294" y="386"/>
      <point x="294" y="416" type="curve" smooth="yes"/>
      <point x="294" y="448"/>
      <point x="270" y="472"/>
      <point x="239" y="472" type="curve" smooth="yes"/>
      <point x="206" y="472"/>
      <point x="182" y="448"/>
      <point x="182" y="416" type="curve" smooth="yes"/>
    </contour>
    <contour>
      <point x="185" y="83"/>
      <point x="209" y="57"/>
      <point x="241" y="57" type="curve" smooth="yes"/>
      <point x="272" y="57"/>
      <point x="297" y="83"/>
      <point x="297" y="114" type="curve" smooth="yes"/>
      <point x="297" y="145"/>
      <point x="272" y="170"/>
      <point x="241" y="170" type="curve" smooth="yes"/>
      <point x="209" y="170"/>
      <point x="185" y="145"/>
      <point x="185" y="114" type="curve" smooth="yes"/>
    </contour>
    <contour>
      <point x="458" y="248" type="line"/>
      <point x="451" y="298" type="line"/>
      <point x="21" y="298" type="line"/>
      <point x="29" y="248" type="line"/>
    </contour>
  </outline>
</glyph>
<glyph name="oslash" format="1">
  <advance width="528"/>
  <unicode hex="00F8"/>
  <outline>
    <contour>
      <point x="52" y="97"/>
      <point x="116" y="-11"/>
      <point x="257" y="-13" type="curve"/>
      <point x="398" y="-13"/>
      <point x="474" y="92"/>
      <point x="475" y="239" type="curve"/>
      <point x="475" y="389"/>
      <point x="410" y="498"/>
      <point x="267" y="498" type="curve"/>
      <point x="127" y="496"/>
      <point x="54" y="389"/>
      <point x="52" y="245" type="curve"/>
    </contour>
    <contour>
      <point x="297" y="445"/>
      <point x="321" y="439"/>
      <point x="338" y="428" type="curve"/>
      <point x="159" y="79" type="line"/>
      <point x="126" y="116"/>
      <point x="115" y="176"/>
      <point x="115" y="246" type="curve"/>
      <point x="117" y="360"/>
      <point x="162" y="445"/>
      <point x="269" y="445" type="curve" smooth="yes"/>
    </contour>
    <contour>
      <point x="412" y="123"/>
      <point x="366" y="40"/>
      <point x="258" y="40" type="curve" smooth="yes"/>
      <point x="238" y="40"/>
      <point x="219" y="42"/>
      <point x="204" y="49" type="curve"/>
      <point x="379" y="390" type="line"/>
      <point x="403" y="354"/>
      <point x="414" y="299"/>
      <point x="414" y="239" type="curve"/>
    </contour>
  </outline>
</glyph>
<glyph name="ucircumflex" format="1">
  <advance width="531"/>
  <unicode hex="00FB"/>
  <outline>
    <contour>
      <point x="448" y="485" type="line"/>
      <point x="386" y="485" type="line"/>
      <point x="386" y="107" type="line"/>
      <point x="339" y="63"/>
      <point x="278" y="41"/>
      <point x="241" y="41" type="curve" smooth="yes"/>
      <point x="172" y="41"/>
      <point x="140" y="93"/>
      <point x="140" y="159" type="curve" smooth="yes"/>
      <point x="140" y="485" type="line"/>
      <point x="78" y="485" type="line"/>
      <point x="78" y="150" type="line" smooth="yes"/>
      <point x="78" y="54"/>
      <point x="129" y="-12"/>
      <point x="236" y="-12" type="curve" smooth="yes"/>
      <point x="288" y="-12"/>
      <point x="345" y="17"/>
      <point x="387" y="55" type="curve"/>
      <point x="406" y="0" type="line"/>
      <point x="448" y="0" type="line"/>
    </contour>
    <contour>
      <point x="188" y="589" type="line"/>
      <point x="262" y="698" type="line"/>
      <point x="337" y="589" type="line"/>
      <point x="397" y="589" type="line"/>
      <point x="291" y="742" type="line"/>
      <point x="232" y="742" type="line"/>
      <point x="127" y="589" type="line"/>
    </contour>
  </outline>
</glyph>
<glyph name="udieresis" format="1">
  <advance width="531"/>
  <unicode hex="00FC"/>
  <outline>
    <contour>
      <point x="448" y="485" type="line"/>
      <point x="386" y="485" type="line"/>
      <point x="386" y="107" type="line"/>
      <point x="339" y="63"/>
      <point x="278" y="41"/>
      <point x="241" y="41" type="curve" smooth="yes"/>
      <point x="172" y="41"/>
      <point x="140" y="93"/>
      <point x="140" y="159" type="curve" smooth="yes"/>
      <point x="140" y="485" type="line"/>
      <point x="78" y="485" type="line"/>
      <point x="78" y="150" type="line" smooth="yes"/>
      <point x="78" y="54"/>
      <point x="129" y="-12"/>
      <point x="236" y="-12" type="curve" smooth="yes"/>
      <point x="288" y="-12"/>
      <point x="345" y="17"/>
      <point x="387" y="55" type="curve"/>
      <point x="406" y="0" type="line"/>
      <point x="448" y="0" type="line"/>
    </contour>
    <contour>
      <point x="228" y="685"/>
      <point x="209" y="704"/>
      <point x="185" y="704" type="curve" smooth="yes"/>
      <point x="160" y="704"/>
      <point x="140" y="685"/>
      <point x="140" y="662" type="curve" smooth="yes"/>
      <point x="140" y="637"/>
      <point x="160" y="618"/>
      <point x="185" y="618" type="curve" smooth="yes"/>
      <point x="209" y="618"/>
      <point x="228" y="637"/>
      <point x="228" y="662" type="curve" smooth="yes"/>
    </contour>
    <contour>
      <point x="385" y="685"/>
      <point x="366" y="704"/>
      <point x="341" y="704" type="curve" smooth="yes"/>
      <point x="318" y="704"/>
      <point x="297" y="685"/>
      <point x="297" y="662" type="curve" smooth="yes"/>
      <point x="297" y="637"/>
      <point x="318" y="618"/>
      <point x="341" y="618" type="curve" smooth="yes"/>
      <point x="366" y="618"/>
      <point x="385" y="637"/>
      <point x="385" y="662" type="curve" smooth="yes"/>
    </contour>
  </outline>
</glyph>
<glyph name="Amacron" format="1">
  <advance width="584"/>
  <unicode hex="0100"/>
  <outline>
    <contour>
      <point x="318" y="680" type="line"/>
      <point x="253" y="680" type="line"/>
      <point x="6" y="0" type="line"/>
      <point x="65" y="0" type="line"/>
      <point x="140" y="204" type="line"/>
      <point x="437" y="204" type="line"/>
      <point x="517" y="0" type="line"/>
      <point x="578" y="10" type="line"/>
    </contour>
    <contour>
      <point x="286" y="600" type="line"/>
      <point x="419" y="254" type="line"/>
      <point x="157" y="254" type="line"/>
    </contour>
    <contour>
      <point x="166" y="839" type="line"/>
      <point x="166" y="790" type="line"/>
      <point x="407" y="790" type="line"/>
      <point x="407" y="839" type="line"/>
    </contour>
  </outline>
</glyph>
<glyph name="Abreve" format="1">
  <advance width="584"/>
  <unicode hex="0102"/>
  <outline>
    <contour>
      <point x="318" y="680" type="line"/>
      <point x="253" y="680" type="line"/>
      <point x="6" y="0" type="line"/>
      <point x="65" y="0" type="line"/>
      <point x="140" y="204" type="line"/>
      <point x="437" y="204" type="line"/>
      <point x="517" y="0" type="line"/>
      <point x="578" y="10" type="line"/>
    </contour>
    <contour>
      <point x="286" y="600" type="line"/>
      <point x="419" y="254" type="line"/>
      <point x="157" y="254" type="line"/>
    </contour>
    <contour>
      <point x="379" y="753"/>
      <point x="416" y="814"/>
      <point x="416" y="881" type="curve"/>
      <point x="369" y="881" type="line"/>
      <point x="369" y="844"/>
      <point x="339" y="799"/>
      <point x="286" y="799" type="curve" smooth="yes"/>
      <point x="230" y="799"/>
      <point x="202" y="844"/>
      <point x="202" y="881" type="curve"/>
      <point x="156" y="881" type="line"/>
      <point x="156" y="814"/>
      <point x="193" y="753"/>
      <point x="286" y="751" type="curve"/>
    </contour>
  </outline>
</glyph>
<glyph name="Ccaron" format="1">
  <advance width="600"/>
  <unicode hex="010C"/>
  <outline>
    <contour>
      <point x="444" y="640"/>
      <point x="476" y="628"/>
      <point x="517" y="611" type="curve"/>
      <point x="537" y="657" type="line"/>
      <point x="499" y="683"/>
      <point x="412" y="694"/>
      <point x="371" y="694" type="curve" smooth="yes"/>
      <point x="174" y="694"/>
      <point x="73" y="536"/>
      <point x="73" y="336" type="curve" smooth="yes"/>
      <point x="73" y="150"/>
      <point x="156" y="-14"/>
      <point x="365" y="-14" type="curve"/>
      <point x="422" y="-14"/>
      <point x="499" y="3"/>
      <point x="537" y="23" type="curve"/>
      <point x="513" y="71" type="line"/>
      <point x="477" y="55"/>
      <point x="435" y="41"/>
      <point x="363" y="41" type="curve"/>
      <point x="207" y="41"/>
      <point x="139" y="174"/>
      <point x="139" y="337" type="curve" smooth="yes"/>
      <point x="139" y="513"/>
      <point x="229" y="639"/>
      <point x="372" y="640" type="curve" smooth="yes"/>
    </contour>
    <contour>
      <point x="234" y="892" type="line"/>
      <point x="339" y="739" type="line"/>
      <point x="399" y="739" type="line"/>
      <point x="505" y="892" type="line"/>
      <point x="443" y="892" type="line"/>
      <point x="369" y="784" type="line"/>
      <point x="294" y="892" type="line"/>
    </contour>
  </outline>
</glyph>
<glyph name="Dcaron" format="1">
  <advance width="693"/>
  <unicode hex="010E"/>
  <outline>
    <contour>
      <point x="105" y="0" type="line"/>
      <point x="318" y="0" type="line" smooth="yes"/>
      <point x="517" y="0"/>
      <point x="619" y="154"/>
      <point x="619" y="344" type="curve" smooth="yes"/>
      <point x="619" y="530"/>
      <point x="537" y="680"/>
      <point x="327" y="680" type="curve" smooth="yes"/>
      <point x="105" y="680" type="line"/>
    </contour>
    <contour>
      <point x="330" y="627" type="line" smooth="yes"/>
      <point x="486" y="627"/>
      <point x="559" y="505"/>
      <point x="559" y="343" type="curve" smooth="yes"/>
      <point x="559" y="167"/>
      <point x="463" y="52"/>
      <point x="320" y="52" type="curve" smooth="yes"/>
      <point x="167" y="52" type="line"/>
      <point x="167" y="627" type="line"/>
    </contour>
    <contour>
      <point x="168" y="891" type="line"/>
      <point x="273" y="738" type="line"/>
      <point x="333" y="738" type="line"/>
      <point x="439" y="891" type="line"/>
      <point x="377" y="891" type="line"/>
      <point x="303" y="783" type="line"/>
      <point x="228" y="891" type="line"/>
    </contour>
  </outline>
</glyph>
<glyph name="dcaron" format="1">
  <advance width="663"/>
  <unicode hex="010F"/>
  <outline>
    <contour>
      <point x="458" y="705" type="line"/>
      <point x="395" y="696" type="line"/>
      <point x="395" y="444" type="line"/>
      <point x="356" y="475"/>
      <point x="304" y="498"/>
      <point x="260" y="498" type="curve" smooth="yes"/>
      <point x="118" y="498"/>
      <point x="52" y="391"/>
      <point x="52" y="241" type="curve" smooth="yes"/>
      <point x="52" y="92"/>
      <point x="118" y="-13"/>
      <point x="260" y="-13" type="curve" smooth="yes"/>
      <point x="307" y="-13"/>
      <point x="360" y="10"/>
      <point x="401" y="43" type="curve"/>
      <point x="417" y="0" type="line"/>
      <point x="458" y="0" type="line"/>
    </contour>
    <contour>
      <point x="306" y="445"/>
      <point x="354" y="425"/>
      <point x="395" y="386" type="curve"/>
      <point x="395" y="98" type="line"/>
      <point x="354" y="59"/>
      <point x="306" y="40"/>
      <point x="266" y="40" type="curve" smooth="yes"/>
      <point x="156" y="40"/>
      <point x="115" y="124"/>
      <point x="115" y="242" type="curve" smooth="yes"/>
      <point x="115" y="360"/>
      <point x="156" y="445"/>
      <point x="266" y="445" type="curve" smooth="yes"/>
    </contour>
    <contour>
      <point x="657" y="681"/>
      <point x="636" y="702"/>
      <point x="610" y="702" type="curve" smooth="yes"/>
      <point x="583" y="702"/>
      <point x="561" y="680"/>
      <point x="561" y="654" type="curve" smooth="yes"/>
      <point x="561" y="630"/>
      <point x="578" y="609"/>
      <point x="605" y="606" type="curve"/>
      <point x="601" y="571"/>
      <point x="579" y="549"/>
      <point x="547" y="527" type="curve"/>
      <point x="566" y="498" type="line"/>
      <point x="616" y="523"/>
      <point x="657" y="587"/>
      <point x="657" y="647" type="curve" smooth="yes"/>
    </contour>
  </outline>
</glyph>
<glyph name="Dcroat" format="1">
  <advance width="700"/>
  <unicode hex="0110"/>
  <outline>
    <contour>
      <point x="111" y="0" type="line"/>
      <point x="324" y="0" type="line" smooth="yes"/>
      <point x="524" y="0"/>
      <point x="626" y="154"/>
      <point x="626" y="344" type="curve" smooth="yes"/>
      <point x="626" y="530"/>
      <point x="543" y="680"/>
      <point x="334" y="680" type="curve" smooth="yes"/>
      <point x="111" y="680" type="line"/>
      <point x="111" y="359" type="line"/>
      <point x="21" y="359" type="line"/>
      <point x="29" y="309" type="line"/>
      <point x="111" y="309" type="line"/>
    </contour>
    <contour>
      <point x="277" y="309" type="line"/>
      <point x="269" y="359" type="line"/>
      <point x="173" y="359" type="line"/>
      <point x="173" y="627" type="line"/>
      <point x="337" y="627" type="line" smooth="yes"/>
      <point x="492" y="627"/>
      <point x="565" y="505"/>
      <point x="565" y="343" type="curve" smooth="yes"/>
      <point x="565" y="167"/>
      <point x="469" y="52"/>
      <point x="325" y="52" type="curve" smooth="yes"/>
      <point x="173" y="52" type="line"/>
      <point x="173" y="309" type="line"/>
    </contour>
  </outline>
</glyph>
<glyph name="Emacron" format="1">
  <advance width="524"/>
  <unicode hex="0112"/>
  <outline>
    <contour>
      <point x="105" y="0" type="line"/>
      <point x="493" y="0" type="line"/>
      <point x="487" y="50" type="line"/>
      <point x="167" y="50" type="line"/>
      <point x="167" y="326" type="line"/>
      <point x="372" y="326" type="line"/>
      <point x="367" y="371" type="line"/>
      <point x="167" y="371" type="line"/>
      <point x="167" y="635" type="line"/>
      <point x="470" y="635" type="line"/>
      <point x="465" y="680" type="line"/>
      <point x="105" y="680" type="line"/>
    </contour>
    <contour>
      <point x="162" y="839" type="line"/>
      <point x="162" y="790" type="line"/>
      <point x="403" y="790" type="line"/>
      <point x="403" y="839" type="line"/>
    </contour>
  </outline>
</glyph>
<glyph name="Eogonek" format="1">
  <advance width="524"/>
  <unicode hex="0118"/>
  <outline>
    <contour>
      <point x="105" y="0" type="line"/>
      <point x="363" y="0" type="line"/>
      <point x="331" y="-28"/>
      <point x="311" y="-73"/>
      <point x="311" y="-111" type="curve" smooth="yes"/>
      <point x="311" y="-169"/>
      <point x="355" y="-207"/>
      <point x="415" y="-207" type="curve" smooth="yes"/>
      <point x="449" y="-207"/>
      <point x="478" y="-195"/>
      <point x="495" y="-177" type="curve"/>
      <point x="473" y="-139" type="line"/>
      <point x="457" y="-153"/>
      <point x="440" y="-160"/>
      <point x="418" y="-160" type="curve" smooth="yes"/>
      <point x="392" y="-160"/>
      <point x="366" y="-147"/>
      <point x="366" y="-107" type="curve" smooth="yes"/>
      <point x="366" y="-75"/>
      <point x="399" y="-25"/>
      <point x="433" y="0" type="curve"/>
      <point x="493" y="0" type="line"/>
      <point x="487" y="50" type="line"/>
      <point x="167" y="50" type="line"/>
      <point x="167" y="326" type="line"/>
      <point x="372" y="326" type="line"/>
      <point x="367" y="371" type="line"/>
      <point x="167" y="371" type="line"/>
      <point x="167" y="635" type="line"/>
      <point x="470" y="635" type="line"/>
      <point x="465" y="680" type="line"/>
      <point x="105" y="680" type="line"/>
    </contour>
  </outline>
</glyph>
<glyph name="Ecaron" format="1">
  <advance width="524"/>
  <unicode hex="011A"/>
  <outline>
    <contour>
      <point x="105" y="0" type="line"/>
      <point x="493" y="0" type="line"/>
      <point x="487" y="50" type="line"/>
      <point x="167" y="50" type="line"/>
      <point x="167" y="326" type="line"/>
      <point x="372" y="326" type="line"/>
      <point x="367" y="371" type="line"/>
      <point x="167" y="371" type="line"/>
      <point x="167" y="635" type="line"/>
      <point x="470" y="635" type="line"/>
      <point x="465" y="680" type="line"/>
      <point x="105" y="680" type="line"/>
    </contour>
    <contour>
      <point x="145" y="892" type="line"/>
      <point x="250" y="739" type="line"/>
      <point x="310" y="739" type="line"/>
      <point x="416" y="892" type="line"/>
      <point x="354" y="892" type="line"/>
      <point x="280" y="784" type="line"/>
      <point x="205" y="892" type="line"/>
    </contour>
  </outline>
</glyph>
<glyph name="Gbreve" format="1">
  <advance width="657"/>
  <unicode hex="011E"/>
  <outline>
    <contour>
      <point x="370" y="342" type="line"/>
      <point x="364" y="297" type="line"/>
      <point x="517" y="297" type="line"/>
      <point x="517" y="64" type="line"/>
      <point x="484" y="52"/>
      <point x="443" y="41"/>
      <point x="395" y="41" type="curve" smooth="yes"/>
      <point x="239" y="41"/>
      <point x="139" y="154"/>
      <point x="139" y="337" type="curve" smooth="yes"/>
      <point x="139" y="531"/>
      <point x="260" y="639"/>
      <point x="404" y="640" type="curve" smooth="yes"/>
      <point x="475" y="640"/>
      <point x="507" y="628"/>
      <point x="549" y="611" type="curve"/>
      <point x="568" y="657" type="line"/>
      <point x="531" y="683"/>
      <point x="443" y="694"/>
      <point x="402" y="694" type="curve" smooth="yes"/>
      <point x="206" y="694"/>
      <point x="73" y="552"/>
      <point x="73" y="336" type="curve" smooth="yes"/>
      <point x="73" y="136"/>
      <point x="188" y="-14"/>
      <point x="396" y="-14" type="curve" smooth="yes"/>
      <point x="453" y="-14"/>
      <point x="542" y="6"/>
      <point x="579" y="31" type="curve"/>
      <point x="578" y="32" type="line"/>
      <point x="579" y="32" type="line"/>
      <point x="579" y="342" type="line"/>
    </contour>
    <contour>
      <point x="495" y="753"/>
      <point x="532" y="814"/>
      <point x="532" y="881" type="curve"/>
      <point x="485" y="881" type="line"/>
      <point x="485" y="844"/>
      <point x="455" y="799"/>
      <point x="402" y="799" type="curve" smooth="yes"/>
      <point x="346" y="799"/>
      <point x="318" y="844"/>
      <point x="318" y="881" type="curve"/>
      <point x="272" y="881" type="line"/>
      <point x="272" y="814"/>
      <point x="309" y="753"/>
      <point x="402" y="751" type="curve"/>
    </contour>
  </outline>
</glyph>
<glyph name="Gcedilla" format="1">
  <advance width="657"/>
  <unicode hex="0122"/>
  <outline>
    <contour>
      <point x="370" y="342" type="line"/>
      <point x="364" y="297" type="line"/>
      <point x="517" y="297" type="line"/>
      <point x="517" y="64" type="line"/>
      <point x="484" y="52"/>
      <point x="443" y="41"/>
      <point x="395" y="41" type="curve" smooth="yes"/>
      <point x="239" y="41"/>
      <point x="139" y="154"/>
      <point x="139" y="337" type="curve" smooth="yes"/>
      <point x="139" y="531"/>
      <point x="260" y="639"/>
      <point x="404" y="640" type="curve" smooth="yes"/>
      <point x="475" y="640"/>
      <point x="507" y="628"/>
      <point x="549" y="611" type="curve"/>
      <point x="568" y="657" type="line"/>
      <point x="531" y="683"/>
      <point x="443" y="694"/>
      <point x="402" y="694" type="curve" smooth="yes"/>
      <point x="206" y="694"/>
      <point x="73" y="552"/>
      <point x="73" y="336" type="curve" smooth="yes"/>
      <point x="73" y="150"/>
      <point x="172" y="8"/>
      <point x="353" y="-11" type="curve"/>
      <point x="325" y="-81" type="line"/>
      <point x="376" y="-86"/>
      <point x="414" y="-106"/>
      <point x="414" y="-134" type="curve" smooth="yes"/>
      <point x="414" y="-160"/>
      <point x="384" y="-174"/>
      <point x="357" y="-174" type="curve" smooth="yes"/>
      <point x="337" y="-174"/>
      <point x="310" y="-166"/>
      <point x="298" y="-160" type="curve"/>
      <point x="283" y="-202" type="line"/>
      <point x="301" y="-213"/>
      <point x="332" y="-221"/>
      <point x="357" y="-221" type="curve" smooth="yes"/>
      <point x="416" y="-221"/>
      <point x="469" y="-193"/>
      <point x="469" y="-132" type="curve" smooth="yes"/>
      <point x="469" y="-97"/>
      <point x="434" y="-60"/>
      <point x="389" y="-54" type="curve"/>
      <point x="405" y="-14" type="line"/>
      <point x="462" y="-12"/>
      <point x="544" y="7"/>
      <point x="579" y="31" type="curve"/>
      <point x="578" y="32" type="line"/>
      <point x="579" y="32" type="line"/>
      <point x="579" y="342" type="line"/>
    </contour>
  </outline>
</glyph>
<glyph name="Iogonek" format="1">
  <advance width="272"/>
  <unicode hex="012E"/>
  <outline>
    <contour>
      <point x="105" y="4" type="line"/>
      <point x="70" y="-24"/>
      <point x="48" y="-71"/>
      <point x="48" y="-111" type="curve" smooth="yes"/>
      <point x="48" y="-169"/>
      <point x="92" y="-207"/>
      <point x="152" y="-207" type="curve" smooth="yes"/>
      <point x="186" y="-207"/>
      <point x="215" y="-195"/>
      <point x="232" y="-177" type="curve"/>
      <point x="210" y="-139" type="line"/>
      <point x="194" y="-153"/>
      <point x="177" y="-160"/>
      <point x="155" y="-160" type="curve" smooth="yes"/>
      <point x="129" y="-160"/>
      <point x="103" y="-147"/>
      <point x="103" y="-107" type="curve" smooth="yes"/>
      <point x="103" y="-74"/>
      <point x="138" y="-20"/>
      <point x="167" y="0" type="curve"/>
      <point x="167" y="680" type="line"/>
      <point x="105" y="680" type="line"/>
    </contour>
  </outline>
</glyph>
<glyph name="Lacute" format="1">
  <advance width="507"/>
  <unicode hex="0139"/>
  <outline>
    <contour>
      <point x="486" y="0" type="line"/>
      <point x="481" y="50" type="line"/>
      <point x="167" y="50" type="line"/>
      <point x="167" y="680" type="line"/>
      <point x="105" y="680" type="line"/>
      <point x="105" y="0" type="line"/>
    </contour>
    <contour>
      <point x="197" y="892" type="line"/>
      <point x="137" y="739" type="line"/>
      <point x="183" y="739" type="line"/>
      <point x="269" y="892" type="line"/>
    </contour>
  </outline>
</glyph>
<glyph name="Lcedilla" format="1">
  <advance width="507"/>
  <unicode hex="013B"/>
  <outline>
    <contour>
      <point x="486" y="0" type="line"/>
      <point x="481" y="50" type="line"/>
      <point x="167" y="50" type="line"/>
      <point x="167" y="680" type="line"/>
      <point x="105" y="680" type="line"/>
      <point x="105" y="0" type="line"/>
    </contour>
    <contour>
      <point x="360" y="-41"/>
      <point x="339" y="-21"/>
      <point x="312" y="-21" type="curve" smooth="yes"/>
      <point x="286" y="-21"/>
      <point x="264" y="-42"/>
      <point x="264" y="-69" type="curve" smooth="yes"/>
      <point x="264" y="-92"/>
      <point x="281" y="-113"/>
      <point x="307" y="-116" type="curve"/>
      <point x="304" y="-151"/>
      <point x="281" y="-174"/>
      <point x="250" y="-195" type="curve"/>
      <point x="268" y="-225" type="line"/>
      <point x="318" y="-200"/>
      <point x="360" y="-135"/>
      <point x="360" y="-75" type="curve" smooth="yes"/>
    </contour>
  </outline>
</glyph>
<glyph name="lcedilla" format="1">
  <advance width="230"/>
  <unicode hex="013C"/>
  <outline>
    <contour>
      <point x="84" y="0" type="line"/>
      <point x="146" y="0" type="line"/>
      <point x="146" y="706" type="line"/>
      <point x="84" y="696" type="line"/>
    </contour>
    <contour>
      <point x="162" y="-41"/>
      <point x="141" y="-21"/>
      <point x="115" y="-21" type="curve" smooth="yes"/>
      <point x="87" y="-21"/>
      <point x="67" y="-42"/>
      <point x="67" y="-69" type="curve" smooth="yes"/>
      <point x="67" y="-92"/>
      <point x="84" y="-113"/>
      <point x="110" y="-116" type="curve"/>
      <point x="107" y="-151"/>
      <point x="85" y="-174"/>
      <point x="52" y="-195" type="curve"/>
      <point x="71" y="-225" type="line"/>
      <point x="121" y="-200"/>
      <point x="162" y="-135"/>
      <point x="162" y="-75" type="curve" smooth="yes"/>
    </contour>
  </outline>
</glyph>
<glyph name="lcaron" format="1">
  <advance width="351"/>
  <unicode hex="013E"/>
  <outline>
    <contour>
      <point x="84" y="0" type="line"/>
      <point x="146" y="0" type="line"/>
      <point x="146" y="706" type="line"/>
      <point x="84" y="696" type="line"/>
    </contour>
    <contour>
      <point x="345" y="681"/>
      <point x="324" y="702"/>
      <point x="297" y="702" type="curve" smooth="yes"/>
      <point x="272" y="702"/>
      <point x="250" y="680"/>
      <point x="250" y="654" type="curve" smooth="yes"/>
      <point x="250" y="630"/>
      <point x="266" y="609"/>
      <point x="292" y="606" type="curve"/>
      <point x="290" y="571"/>
      <point x="267" y="549"/>
      <point x="235" y="527" type="curve"/>
      <point x="253" y="498" type="line"/>
      <point x="304" y="523"/>
      <point x="345" y="587"/>
      <point x="345" y="647" type="curve" smooth="yes"/>
    </contour>
  </outline>
</glyph>
<glyph name="Lslash" format="1">
  <advance width="510"/>
  <unicode hex="0141"/>
  <outline>
    <contour>
      <point x="489" y="0" type="line"/>
      <point x="484" y="50" type="line"/>
      <point x="169" y="50" type="line"/>
      <point x="169" y="317" type="line"/>
      <point x="304" y="435" type="line"/>
      <point x="274" y="472" type="line"/>
      <point x="169" y="381" type="line"/>
      <point x="169" y="680" type="line"/>
      <point x="107" y="680" type="line"/>
      <point x="107" y="325" type="line"/>
      <point x="25" y="255" type="line"/>
      <point x="55" y="216" type="line"/>
      <point x="107" y="262" type="line"/>
      <point x="107" y="0" type="line"/>
    </contour>
  </outline>
</glyph>
<glyph name="lslash" format="1">
  <advance width="230"/>
  <unicode hex="0142"/>
  <outline>
    <contour>
      <point x="253" y="455" type="line"/>
      <point x="224" y="494" type="line"/>
      <point x="146" y="424" type="line"/>
      <point x="146" y="706" type="line"/>
      <point x="84" y="696" type="line"/>
      <point x="84" y="370" type="line"/>
      <point x="-24" y="276" type="line"/>
      <point x="6" y="237" type="line"/>
      <point x="84" y="306" type="line"/>
      <point x="84" y="0" type="line"/>
      <point x="146" y="0" type="line"/>
      <point x="146" y="360" type="line"/>
    </contour>
  </outline>
</glyph>
<glyph name="ncedilla" format="1">
  <advance width="552"/>
  <unicode hex="0146"/>
  <outline>
    <contour>
      <point x="84" y="0" type="line"/>
      <point x="146" y="0" type="line"/>
      <point x="146" y="356" type="line"/>
      <point x="192" y="414"/>
      <point x="267" y="445"/>
      <point x="310" y="445" type="curve" smooth="yes"/>
      <point x="381" y="444"/>
      <point x="412" y="392"/>
      <point x="412" y="325" type="curve" smooth="yes"/>
      <point x="412" y="1" type="line"/>
      <point x="474" y="1" type="line"/>
      <point x="474" y="337" type="line" smooth="yes"/>
      <point x="474" y="431"/>
      <point x="422" y="498"/>
      <point x="317" y="498" type="curve" smooth="yes"/>
      <point x="257" y="498"/>
      <point x="186" y="457"/>
      <point x="145" y="409" type="curve"/>
      <point x="125" y="485" type="line"/>
      <point x="84" y="485" type="line"/>
    </contour>
    <contour>
      <point x="323" y="-41"/>
      <point x="302" y="-21"/>
      <point x="275" y="-21" type="curve" smooth="yes"/>
      <point x="248" y="-21"/>
      <point x="226" y="-42"/>
      <point x="226" y="-69" type="curve" smooth="yes"/>
      <point x="226" y="-92"/>
      <point x="244" y="-113"/>
      <point x="270" y="-116" type="curve"/>
      <point x="267" y="-151"/>
      <point x="244" y="-174"/>
      <point x="213" y="-195" type="curve"/>
      <point x="230" y="-225" type="line"/>
      <point x="281" y="-200"/>
      <point x="323" y="-135"/>
      <point x="323" y="-75" type="curve" smooth="yes"/>
    </contour>
  </outline>
</glyph>
<glyph name="ncaron" format="1">
  <advance width="552"/>
  <unicode hex="0148"/>
  <outline>
    <contour>
      <point x="84" y="0" type="line"/>
      <point x="146" y="0" type="line"/>
      <point x="146" y="356" type="line"/>
      <point x="192" y="414"/>
      <point x="267" y="445"/>
      <point x="310" y="445" type="curve" smooth="yes"/>
      <point x="381" y="444"/>
      <point x="412" y="392"/>
      <point x="412" y="325" type="curve" smooth="yes"/>
      <point x="412" y="1" type="line"/>
      <point x="474" y="1" type="line"/>
      <point x="474" y="337" type="line" smooth="yes"/>
      <point x="474" y="431"/>
      <point x="422" y="498"/>
      <point x="317" y="498" type="curve" smooth="yes"/>
      <point x="257" y="498"/>
      <point x="186" y="457"/>
      <point x="145" y="409" type="curve"/>
      <point x="125" y="485" type="line"/>
      <point x="84" y="485" type="line"/>
    </contour>
    <contour>
      <point x="180" y="742" type="line"/>
      <point x="286" y="589" type="line"/>
      <point x="344" y="589" type="line"/>
      <point x="451" y="742" type="line"/>
      <point x="389" y="742" type="line"/>
      <point x="316" y="634" type="line"/>
      <point x="240" y="742" type="line"/>
    </contour>
  </outline>
</glyph>
<glyph name="ohungarumlaut" format="1">
  <advance width="528"/>
  <unicode hex="0151"/>
  <outline>
    <contour>
      <point x="52" y="97"/>
      <point x="116" y="-11"/>
      <point x="257" y="-13" type="curve"/>
      <point x="398" y="-13"/>
      <point x="474" y="92"/>
      <point x="475" y="239" type="curve"/>
      <point x="475" y="389"/>
      <point x="410" y="498"/>
      <point x="267" y="498" type="curve"/>
      <point x="127" y="496"/>
      <point x="54" y="389"/>
      <point x="52" y="245" type="curve"/>
    </contour>
    <contour>
      <point x="379" y="445"/>
      <point x="414" y="356"/>
      <point x="414" y="239" type="curve"/>
      <point x="412" y="123"/>
      <point x="366" y="40"/>
      <point x="258" y="40" type="curve" smooth="yes"/>
      <point x="149" y="40"/>
      <point x="115" y="127"/>
      <point x="115" y="246" type="curve"/>
      <point x="117" y="360"/>
      <point x="162" y="445"/>
      <point x="269" y="445" type="curve" smooth="yes"/>
    </contour>
    <contour>
      <point x="220" y="742" type="line"/>
      <point x="160" y="589" type="line"/>
      <point x="204" y="589" type="line"/>
      <point x="289" y="742" type="line"/>
    </contour>
    <contour>
      <point x="344" y="742" type="line"/>
      <point x="284" y="589" type="line"/>
      <point x="328" y="589" type="line"/>
      <point x="413" y="742" type="line"/>
    </contour>
  </outline>
</glyph>
<glyph name="OE" format="1">
  <advance width="942"/>
  <unicode hex="0152"/>
  <outline>
    <contour>
      <point x="911" y="0" type="line"/>
      <point x="906" y="50" type="line"/>
      <point x="585" y="50" type="line"/>
      <point x="585" y="326" type="line"/>
      <point x="791" y="326" type="line"/>
      <point x="785" y="371" type="line"/>
      <point x="585" y="371" type="line"/>
      <point x="585" y="635" type="line"/>
      <point x="890" y="635" type="line"/>
      <point x="883" y="680" type="line"/>
      <point x="523" y="680" type="line"/>
      <point x="523" y="670" type="line"/>
      <point x="480" y="686"/>
      <point x="416" y="694"/>
      <point x="382" y="694" type="curve" smooth="yes"/>
      <point x="185" y="694"/>
      <point x="73" y="536"/>
      <point x="73" y="336" type="curve" smooth="yes"/>
      <point x="73" y="150"/>
      <point x="167" y="-14"/>
      <point x="376" y="-14" type="curve" smooth="yes"/>
      <point x="422" y="-14"/>
      <point x="482" y="-4"/>
      <point x="523" y="12" type="curve"/>
      <point x="523" y="0" type="line"/>
    </contour>
    <contour>
      <point x="452" y="640"/>
      <point x="484" y="629"/>
      <point x="523" y="612" type="curve"/>
      <point x="523" y="71" type="line"/>
      <point x="487" y="55"/>
      <point x="444" y="41"/>
      <point x="373" y="41" type="curve" smooth="yes"/>
      <point x="219" y="41"/>
      <point x="139" y="174"/>
      <point x="139" y="337" type="curve" smooth="yes"/>
      <point x="139" y="513"/>
      <point x="239" y="639"/>
      <point x="384" y="640" type="curve" smooth="yes"/>
    </contour>
  </outline>
</glyph>
<glyph name="racute" format="1">
  <advance width="321"/>
  <unicode hex="0155"/>
  <outline>
    <contour>
      <point x="84" y="0" type="line"/>
      <point x="146" y="0" type="line"/>
      <point x="146" y="356" type="line"/>
      <point x="184" y="397"/>
      <point x="247" y="436"/>
      <point x="309" y="436" type="curve"/>
      <point x="292" y="485" type="line"/>
      <point x="241" y="485"/>
      <point x="178" y="448"/>
      <point x="143" y="418" type="curve"/>
      <point x="125" y="485" type="line"/>
      <point x="84" y="485" type="line"/>
    </contour>
    <contour>
      <point x="197" y="742" type="line"/>
      <point x="138" y="589" type="line"/>
      <point x="185" y="589" type="line"/>
      <point x="269" y="742" type="line"/>
    </contour>
  </outline>
</glyph>
<glyph name="rcaron" format="1">
  <advance width="321"/>
  <unicode hex="0159"/>
  <outline>
    <contour>
      <point x="84" y="0" type="line"/>
      <point x="146" y="0" type="line"/>
      <point x="146" y="356" type="line"/>
      <point x="184" y="397"/>
      <point x="247" y="436"/>
      <point x="309" y="436" type="curve"/>
      <point x="292" y="485" type="line"/>
      <point x="241" y="485"/>
      <point x="178" y="448"/>
      <point x="143" y="418" type="curve"/>
      <point x="125" y="485" type="line"/>
      <point x="84" y="485" type="line"/>
    </contour>
    <contour>
      <point x="24" y="742" type="line"/>
      <point x="130" y="589" type="line"/>
      <point x="189" y="589" type="line"/>
      <point x="295" y="742" type="line"/>
      <point x="234" y="742" type="line"/>
      <point x="160" y="634" type="line"/>
      <point x="85" y="742" type="line"/>
    </contour>
  </outline>
</glyph>
<glyph name="Scedilla" format="1">
  <advance width="533"/>
  <unicode hex="015E"/>
  <outline>
    <contour>
      <point x="178" y="38"/>
      <point x="114" y="60"/>
      <point x="79" y="77" type="curve"/>
      <point x="64" y="29" type="line"/>
      <point x="83" y="12"/>
      <point x="160" y="-6"/>
      <point x="218" y="-11" type="curve"/>
      <point x="190" y="-81" type="line"/>
      <point x="241" y="-86"/>
      <point x="279" y="-106"/>
      <point x="279" y="-134" type="curve" smooth="yes"/>
      <point x="279" y="-160"/>
      <point x="250" y="-174"/>
      <point x="223" y="-174" type="curve" smooth="yes"/>
      <point x="202" y="-174"/>
      <point x="176" y="-166"/>
      <point x="164" y="-160" type="curve"/>
      <point x="148" y="-202" type="line"/>
      <point x="167" y="-213"/>
      <point x="198" y="-221"/>
      <point x="223" y="-221" type="curve" smooth="yes"/>
      <point x="281" y="-221"/>
      <point x="335" y="-193"/>
      <point x="335" y="-132" type="curve" smooth="yes"/>
      <point x="335" y="-97"/>
      <point x="298" y="-60"/>
      <point x="255" y="-54" type="curve"/>
      <point x="271" y="-12" type="line"/>
      <point x="404" y="-5"/>
      <point x="479" y="65"/>
      <point x="481" y="160" type="curve" smooth="yes"/>
      <point x="486" y="360"/>
      <point x="111" y="370"/>
      <point x="111" y="530" type="curve" smooth="yes"/>
      <point x="111" y="600"/>
      <point x="170" y="644"/>
      <point x="267" y="644" type="curve" smooth="yes"/>
      <point x="337" y="644"/>
      <point x="376" y="626"/>
      <point x="411" y="610" type="curve"/>
      <point x="433" y="657" type="line"/>
      <point x="393" y="677"/>
      <point x="332" y="696"/>
      <point x="265" y="696" type="curve" smooth="yes"/>
      <point x="136" y="696"/>
      <point x="54" y="624"/>
      <point x="53" y="530" type="curve" smooth="yes"/>
      <point x="51" y="323"/>
      <point x="422" y="317"/>
      <point x="422" y="160" type="curve" smooth="yes"/>
      <point x="422" y="90"/>
      <point x="360" y="38"/>
      <point x="245" y="38" type="curve" smooth="yes"/>
    </contour>
  </outline>
</glyph>
<glyph name="Scaron" format="1">
  <advance width="533"/>
  <unicode hex="0160"/>
  <outline>
    <contour>
      <point x="178" y="38"/>
      <point x="114" y="60"/>
      <point x="79" y="77" type="curve"/>
      <point x="64" y="29" type="line"/>
      <point x="87" y="9"/>
      <point x="188" y="-13"/>
      <point x="246" y="-13" type="curve" smooth="yes"/>
      <point x="395" y="-13"/>
      <point x="479" y="59"/>
      <point x="481" y="160" type="curve" smooth="yes"/>
      <point x="486" y="360"/>
      <point x="111" y="370"/>
      <point x="111" y="530" type="curve" smooth="yes"/>
      <point x="111" y="600"/>
      <point x="170" y="644"/>
      <point x="267" y="644" type="curve" smooth="yes"/>
      <point x="337" y="644"/>
      <point x="376" y="626"/>
      <point x="411" y="610" type="curve"/>
      <point x="433" y="657" type="line"/>
      <point x="393" y="677"/>
      <point x="332" y="696"/>
      <point x="265" y="696" type="curve" smooth="yes"/>
      <point x="136" y="696"/>
      <point x="54" y="624"/>
      <point x="53" y="530" type="curve" smooth="yes"/>
      <point x="51" y="323"/>
      <point x="422" y="317"/>
      <point x="422" y="160" type="curve" smooth="yes"/>
      <point x="422" y="90"/>
      <point x="360" y="38"/>
      <point x="245" y="38" type="curve" smooth="yes"/>
    </contour>
    <contour>
      <point x="128" y="892" type="line"/>
      <point x="233" y="739" type="line"/>
      <point x="293" y="739" type="line"/>
      <point x="399" y="892" type="line"/>
      <point x="337" y="892" type="line"/>
      <point x="263" y="784" type="line"/>
      <point x="188" y="892" type="line"/>
    </contour>
  </outline>
</glyph>
<glyph name="Tcaron" format="1">
  <advance width="514"/>
  <unicode hex="0164"/>
  <outline>
    <contour>
      <point x="503" y="631" type="line"/>
      <point x="498" y="680" type="line"/>
      <point x="10" y="680" type="line"/>
      <point x="10" y="631" type="line"/>
      <point x="225" y="631" type="line"/>
      <point x="225" y="0" type="line"/>
      <point x="288" y="0" type="line"/>
      <point x="288" y="631" type="line"/>
    </contour>
    <contour>
      <point x="120" y="892" type="line"/>
      <point x="225" y="739" type="line"/>
      <point x="285" y="739" type="line"/>
      <point x="391" y="892" type="line"/>
      <point x="329" y="892" type="line"/>
      <point x="255" y="784" type="line"/>
      <point x="180" y="892" type="line"/>
    </contour>
  </outline>
</glyph>
<glyph name="umacron" format="1">
  <advance width="531"/>
  <unicode hex="016B"/>
  <outline>
    <contour>
      <point x="448" y="485" type="line"/>
      <point x="386" y="485" type="line"/>
      <point x="386" y="107" type="line"/>
      <point x="339" y="63"/>
      <point x="278" y="41"/>
      <point x="241" y="41" type="curve" smooth="yes"/>
      <point x="172" y="41"/>
      <point x="140" y="93"/>
      <point x="140" y="159" type="curve" smooth="yes"/>
      <point x="140" y="485" type="line"/>
      <point x="78" y="485" type="line"/>
      <point x="78" y="150" type="line" smooth="yes"/>
      <point x="78" y="54"/>
      <point x="129" y="-12"/>
      <point x="236" y="-12" type="curve" smooth="yes"/>
      <point x="288" y="-12"/>
      <point x="345" y="17"/>
      <point x="387" y="55" type="curve"/>
      <point x="406" y="0" type="line"/>
      <point x="448" y="0" type="line"/>
    </contour>
    <contour>
      <point x="141" y="689" type="line"/>
      <point x="141" y="640" type="line"/>
      <point x="384" y="640" type="line"/>
      <point x="384" y="689" type="line"/>
    </contour>
  </outline>
</glyph>
<glyph name="Uring" format="1">
  <advance width="685"/>
  <unicode hex="016E"/>
  <outline>
    <contour>
      <point x="227" y="41"/>
      <point x="156" y="131"/>
      <point x="156" y="248" type="curve" smooth="yes"/>
      <point x="156" y="680" type="line"/>
      <point x="94" y="680" type="line"/>
      <point x="94" y="239" type="line" smooth="yes"/>
      <point x="94" y="93"/>
      <point x="188" y="-11"/>
      <point x="342" y="-12" type="curve"/>
      <point x="498" y="-12"/>
      <point x="591" y="93"/>
      <point x="591" y="239" type="curve" smooth="yes"/>
      <point x="591" y="680" type="line"/>
      <point x="528" y="680" type="line"/>
      <point x="528" y="248" type="line" smooth="yes"/>
      <point x="528" y="131"/>
      <point x="461" y="41"/>
      <point x="342" y="41" type="curve" smooth="yes"/>
    </contour>
    <contour>
      <point x="386" y="801"/>
      <point x="366" y="783"/>
      <point x="342" y="783" type="curve" smooth="yes"/>
      <point x="318" y="783"/>
      <point x="298" y="801"/>
      <point x="298" y="825" type="curve" smooth="yes"/>
      <point x="298" y="850"/>
      <point x="318" y="869"/>
      <point x="342" y="869" type="curve" smooth="yes"/>
      <point x="366" y="869"/>
      <point x="386" y="850"/>
      <point x="386" y="825" type="curve" smooth="yes"/>
    </contour>
    <contour>
      <point x="430" y="873"/>
      <point x="390" y="909"/>
      <point x="342" y="909" type="curve" smooth="yes"/>
      <point x="294" y="909"/>
      <point x="253" y="873"/>
      <point x="253" y="825" type="curve" smooth="yes"/>
      <point x="253" y="778"/>
      <point x="294" y="744"/>
      <point x="342" y="744" type="curve" smooth="yes"/>
      <point x="390" y="744"/>
      <point x="430" y="778"/>
      <point x="430" y="825" type="curve" smooth="yes"/>
    </contour>
  </outline>
</glyph>
<glyph name="uring" format="1">
  <advance width="531"/>
  <unicode hex="016F"/>
  <outline>
    <contour>
      <point x="448" y="485" type="line"/>
      <point x="386" y="485" type="line"/>
      <point x="386" y="107" type="line"/>
      <point x="339" y="63"/>
      <point x="278" y="41"/>
      <point x="241" y="41" type="curve" smooth="yes"/>
      <point x="172" y="41"/>
      <point x="140" y="93"/>
      <point x="140" y="159" type="curve" smooth="yes"/>
      <point x="140" y="485" type="line"/>
      <point x="78" y="485" type="line"/>
      <point x="78" y="150" type="line" smooth="yes"/>
      <point x="78" y="54"/>
      <point x="129" y="-12"/>
      <point x="236" y="-12" type="curve" smooth="yes"/>
      <point x="288" y="-12"/>
      <point x="345" y="17"/>
      <point x="387" y="55" type="curve"/>
      <point x="406" y="0" type="line"/>
      <point x="448" y="0" type="line"/>
    </contour>
    <contour>
      <point x="306" y="651"/>
      <point x="288" y="633"/>
      <point x="262" y="633" type="curve" smooth="yes"/>
      <point x="239" y="633"/>
      <point x="219" y="651"/>
      <point x="219" y="675" type="curve" smooth="yes"/>
      <point x="219" y="700"/>
      <point x="239" y="719"/>
      <point x="262" y="719" type="curve" smooth="yes"/>
      <point x="288" y="719"/>
      <point x="306" y="700"/>
      <point x="306" y="675" type="curve" smooth="yes"/>
    </contour>
    <contour>
      <point x="351" y="723"/>
      <point x="309" y="759"/>
      <point x="262" y="759" type="curve" smooth="yes"/>
      <point x="214" y="759"/>
      <point x="173" y="723"/>
      <point x="173" y="675" type="curve" smooth="yes"/>
      <point x="173" y="628"/>
      <point x="214" y="594"/>
      <point x="262" y="594" type="curve" smooth="yes"/>
      <point x="309" y="594"/>
      <point x="351" y="628"/>
      <point x="351" y="675" type="curve" smooth="yes"/>
    </contour>
  </outline>
</glyph>
<glyph name="uogonek" format="1">
  <advance width="531"/>
  <unicode hex="0173"/>
  <outline>
    <contour>
      <point x="448" y="485" type="line"/>
      <point x="386" y="485" type="line"/>
      <point x="386" y="107" type="line"/>
      <point x="339" y="63"/>
      <point x="278" y="41"/>
      <point x="241" y="41" type="curve" smooth="yes"/>
      <point x="172" y="41"/>
      <point x="140" y="93"/>
      <point x="140" y="159" type="curve" smooth="yes"/>
      <point x="140" y="485" type="line"/>
      <point x="78" y="485" type="line"/>
      <point x="78" y="150" type="line" smooth="yes"/>
      <point x="78" y="54"/>
      <point x="129" y="-12"/>
      <point x="236" y="-12" type="curve" smooth="yes"/>
      <point x="288" y="-12"/>
      <point x="345" y="17"/>
      <point x="387" y="55" type="curve"/>
      <point x="399" y="18" type="line"/>
      <point x="363" y="-10"/>
      <point x="325" y="-62"/>
      <point x="325" y="-111" type="curve" smooth="yes"/>
      <point x="325" y="-169"/>
      <point x="370" y="-207"/>
      <point x="428" y="-207" type="curve" smooth="yes"/>
      <point x="463" y="-207"/>
      <point x="493" y="-195"/>
      <point x="510" y="-177" type="curve"/>
      <point x="486" y="-139" type="line"/>
      <point x="471" y="-153"/>
      <point x="454" y="-160"/>
      <point x="434" y="-160" type="curve" smooth="yes"/>
      <point x="406" y="-160"/>
      <point x="381" y="-147"/>
      <point x="381" y="-107" type="curve" smooth="yes"/>
      <point x="381" y="-69"/>
      <point x="419" y="-22"/>
      <point x="448" y="0" type="curve"/>
    </contour>
  </outline>
</glyph>
<glyph name="zdotaccent" format="1">
  <advance width="472"/>
  <unicode hex="017C"/>
  <outline>
    <contour>
      <point x="428" y="453" type="line"/>
      <point x="425" y="485" type="line"/>
      <point x="71" y="485" type="line"/>
      <point x="87" y="436" type="line"/>
      <point x="343" y="436" type="line"/>
      <point x="42" y="31" type="line"/>
      <point x="50" y="0" type="line"/>
      <point x="422" y="0" type="line"/>
      <point x="412" y="48" type="line"/>
      <point x="123" y="48" type="line"/>
    </contour>
    <contour>
      <point x="308" y="692"/>
      <point x="288" y="714"/>
      <point x="260" y="714" type="curve" smooth="yes"/>
      <point x="233" y="714"/>
      <point x="213" y="692"/>
      <point x="213" y="666" type="curve" smooth="yes"/>
      <point x="213" y="639"/>
      <point x="233" y="618"/>
      <point x="260" y="618" type="curve" smooth="yes"/>
      <point x="288" y="618"/>
      <point x="308" y="639"/>
      <point x="308" y="666" type="curve" smooth="yes"/>
    </contour>
  </outline>
</glyph>
<glyph name="Zcaron" format="1">
  <advance width="566"/>
  <unicode hex="017D"/>
  <outline>
    <contour>
      <point x="519" y="0" type="line"/>
      <point x="514" y="50" type="line"/>
      <point x="94" y="50" type="line"/>
      <point x="534" y="631" type="line"/>
      <point x="529" y="680" type="line"/>
      <point x="52" y="680" type="line"/>
      <point x="62" y="631" type="line"/>
      <point x="467" y="631" type="line"/>
      <point x="25" y="50" type="line"/>
      <point x="31" y="0" type="line"/>
    </contour>
    <contour>
      <point x="153" y="892" type="line"/>
      <point x="258" y="739" type="line"/>
      <point x="318" y="739" type="line"/>
      <point x="424" y="892" type="line"/>
      <point x="362" y="892" type="line"/>
      <point x="288" y="784" type="line"/>
      <point x="213" y="892" type="line"/>
    </contour>
  </outline>
</glyph>
<glyph name="zcaron" format="1">
  <advance width="472"/>
  <unicode hex="017E"/>
  <outline>
    <contour>
      <point x="428" y="453" type="line"/>
      <point x="425" y="485" type="line"/>
      <point x="71" y="485" type="line"/>
      <point x="87" y="436" type="line"/>
      <point x="343" y="436" type="line"/>
      <point x="42" y="31" type="line"/>
      <point x="50" y="0" type="line"/>
      <point x="422" y="0" type="line"/>
      <point x="412" y="48" type="line"/>
      <point x="123" y="48" type="line"/>
    </contour>
    <contour>
      <point x="122" y="742" type="line"/>
      <point x="229" y="589" type="line"/>
      <point x="288" y="589" type="line"/>
      <point x="394" y="742" type="line"/>
      <point x="332" y="742" type="line"/>
      <point x="258" y="634" type="line"/>
      <point x="184" y="742" type="line"/>
    </contour>
  </outline>
</glyph>
<glyph name="Scommaaccent" format="1">
  <advance width="533"/>
  <unicode hex="0218"/>
  <outline>
    <contour>
      <point x="178" y="38"/>
      <point x="114" y="60"/>
      <point x="79" y="77" type="curve"/>
      <point x="64" y="29" type="line"/>
      <point x="87" y="9"/>
      <point x="188" y="-13"/>
      <point x="246" y="-13" type="curve" smooth="yes"/>
      <point x="395" y="-13"/>
      <point x="479" y="59"/>
      <point x="481" y="160" type="curve" smooth="yes"/>
      <point x="486" y="360"/>
      <point x="111" y="370"/>
      <point x="111" y="530" type="curve" smooth="yes"/>
      <point x="111" y="600"/>
      <point x="170" y="644"/>
      <point x="267" y="644" type="curve" smooth="yes"/>
      <point x="337" y="644"/>
      <point x="376" y="626"/>
      <point x="411" y="610" type="curve"/>
      <point x="433" y="657" type="line"/>
      <point x="393" y="677"/>
      <point x="332" y="696"/>
      <point x="265" y="696" type="curve" smooth="yes"/>
      <point x="136" y="696"/>
      <point x="54" y="624"/>
      <point x="53" y="530" type="curve" smooth="yes"/>
      <point x="51" y="323"/>
      <point x="422" y="317"/>
      <point x="422" y="160" type="curve" smooth="yes"/>
      <point x="422" y="90"/>
      <point x="360" y="38"/>
      <point x="245" y="38" type="curve" smooth="yes"/>
    </contour>
    <contour>
      <point x="292" y="-41"/>
      <point x="272" y="-21"/>
      <point x="245" y="-21" type="curve" smooth="yes"/>
      <point x="219" y="-21"/>
      <point x="197" y="-42"/>
      <point x="197" y="-69" type="curve" smooth="yes"/>
      <point x="197" y="-92"/>
      <point x="213" y="-113"/>
      <point x="240" y="-116" type="curve"/>
      <point x="238" y="-151"/>
      <point x="214" y="-174"/>
      <point x="183" y="-195" type="curve"/>
      <point x="201" y="-225" type="line"/>
      <point x="252" y="-200"/>
      <point x="292" y="-135"/>
      <point x="292" y="-75" type="curve" smooth="yes"/>
    </contour>
  </outline>
</glyph>
<glyph name="uni021A" format="1">
  <advance width="514"/>
  <unicode hex="021A"/>
  <outline>
    <contour>
      <point x="503" y="631" type="line"/>
      <point x="498" y="680" type="line"/>
      <point x="10" y="680" type="line"/>
      <point x="10" y="631" type="line"/>
      <point x="225" y="631" type="line"/>
      <point x="225" y="0" type="line"/>
      <point x="288" y="0" type="line"/>
      <point x="288" y="631" type="line"/>
    </contour>
    <contour>
      <point x="304" y="-41"/>
      <point x="283" y="-21"/>
      <point x="257" y="-21" type="curve" smooth="yes"/>
      <point x="230" y="-21"/>
      <point x="208" y="-42"/>
      <point x="208" y="-69" type="curve" smooth="yes"/>
      <point x="208" y="-92"/>
      <point x="225" y="-113"/>
      <point x="252" y="-116" type="curve"/>
      <point x="248" y="-151"/>
      <point x="225" y="-174"/>
      <point x="193" y="-195" type="curve"/>
      <point x="213" y="-225" type="line"/>
      <point x="262" y="-200"/>
      <point x="304" y="-135"/>
      <point x="304" y="-75" type="curve" smooth="yes"/>
    </contour>
  </outline>
</glyph>
<glyph name="uni021B" format="1">
  <advance width="309"/>
  <unicode hex="021B"/>
  <outline>
    <contour>
      <point x="265" y="428" type="line"/>
      <point x="244" y="475" type="line"/>
      <point x="156" y="475" type="line"/>
      <point x="156" y="623" type="line"/>
      <point x="93" y="601" type="line"/>
      <point x="93" y="475" type="line"/>
      <point x="21" y="475" type="line"/>
      <point x="22" y="428" type="line"/>
      <point x="93" y="428" type="line"/>
      <point x="93" y="116" type="line" smooth="yes"/>
      <point x="93" y="31"/>
      <point x="140" y="-13"/>
      <point x="211" y="-13" type="curve" smooth="yes"/>
      <point x="239" y="-13"/>
      <point x="264" y="-4"/>
      <point x="277" y="-1" type="curve"/>
      <point x="265" y="50" type="line"/>
      <point x="258" y="47"/>
      <point x="239" y="41"/>
      <point x="224" y="41" type="curve" smooth="yes"/>
      <point x="174" y="41"/>
      <point x="156" y="75"/>
      <point x="156" y="123" type="curve" smooth="yes"/>
      <point x="156" y="428" type="line"/>
    </contour>
    <contour>
      <point x="246" y="-41"/>
      <point x="225" y="-21"/>
      <point x="198" y="-21" type="curve" smooth="yes"/>
      <point x="172" y="-21"/>
      <point x="150" y="-42"/>
      <point x="150" y="-69" type="curve" smooth="yes"/>
      <point x="150" y="-92"/>
      <point x="167" y="-113"/>
      <point x="192" y="-116" type="curve"/>
      <point x="190" y="-151"/>
      <point x="167" y="-174"/>
      <point x="135" y="-195" type="curve"/>
      <point x="154" y="-225" type="line"/>
      <point x="204" y="-200"/>
      <point x="246" y="-135"/>
      <point x="246" y="-75" type="curve" smooth="yes"/>
    </contour>
  </outline>
</glyph>
<glyph name="dotaccent" format="1">
  <advance width="127"/>
  <unicode hex="02D9"/>
  <outline>
    <contour>
      <point x="111" y="692"/>
      <point x="90" y="714"/>
      <point x="64" y="714" type="curve" smooth="yes"/>
      <point x="37" y="714"/>
      <point x="16" y="692"/>
      <point x="16" y="666" type="curve" smooth="yes"/>
      <point x="16" y="639"/>
      <point x="37" y="618"/>
      <point x="64" y="618" type="curve" smooth="yes"/>
      <point x="90" y="618"/>
      <point x="111" y="639"/>
      <point x="111" y="666" type="curve" smooth="yes"/>
    </contour>
    <contour>
      <point x="64" y="535" type="move" name="_top"/>
    </contour>
  </outline>
</glyph>
<glyph name="tilde" format="1">
  <advance width="314"/>
  <unicode hex="02DC"/>
  <outline>
    <contour>
      <point x="251" y="699" type="line"/>
      <point x="248" y="668"/>
      <point x="230" y="656"/>
      <point x="213" y="656" type="curve"/>
      <point x="178" y="656"/>
      <point x="156" y="703"/>
      <point x="100" y="703" type="curve" smooth="yes"/>
      <point x="54" y="703"/>
      <point x="14" y="683"/>
      <point x="17" y="612" type="curve"/>
      <point x="62" y="612" type="line"/>
      <point x="65" y="643"/>
      <point x="84" y="656"/>
      <point x="101" y="656" type="curve" smooth="yes"/>
      <point x="135" y="656"/>
      <point x="167" y="608"/>
      <point x="213" y="608" type="curve" smooth="yes"/>
      <point x="260" y="608"/>
      <point x="299" y="629"/>
      <point x="297" y="699" type="curve"/>
    </contour>
    <contour>
      <point x="158" y="535" type="move" name="_top"/>
    </contour>
  </outline>
</glyph>
<glyph name="pi" format="1">
  <advance width="580"/>
  <unicode hex="03C0"/>
  <outline>
    <contour>
      <point x="115" y="0" type="line"/>
      <point x="178" y="0" type="line"/>
      <point x="178" y="435" type="line"/>
      <point x="402" y="435" type="line"/>
      <point x="402" y="0" type="line"/>
      <point x="465" y="0" type="line"/>
      <point x="465" y="435" type="line"/>
      <point x="565" y="435" type="line"/>
      <point x="565" y="485" type="line"/>
      <point x="16" y="485" type="line"/>
      <point x="16" y="435" type="line"/>
      <point x="115" y="435" type="line"/>
    </contour>
  </outline>
</glyph>
<glyph name="dv_Anusvara" format="1">
  <advance width="0"/>
  <unicode hex="0902"/>
  <outline>
    <contour>
      <point x="17" y="771"/>
      <point x="40" y="749"/>
      <point x="69" y="749" type="curve" smooth="yes"/>
      <point x="98" y="749"/>
      <point x="121" y="771"/>
      <point x="121" y="800" type="curve" smooth="yes"/>
      <point x="121" y="830"/>
      <point x="98" y="852"/>
      <point x="69" y="852" type="curve" smooth="yes"/>
      <point x="40" y="852"/>
      <point x="17" y="830"/>
      <point x="17" y="800" type="curve" smooth="yes"/>
    </contour>
  </outline>
</glyph>
<glyph name="dv_VocalicR" format="1">
  <advance width="897"/>
  <unicode hex="090B"/>
  <outline>
    <contour>
      <point x="634" y="76"/>
      <point x="619" y="78"/>
      <point x="589" y="87" type="curve"/>
      <point x="574" y="35" type="line"/>
      <point x="608" y="23"/>
      <point x="629" y="20"/>
      <point x="668" y="20" type="curve" smooth="yes"/>
      <point x="778" y="20"/>
      <point x="830" y="102"/>
      <point x="830" y="196" type="curve" smooth="yes"/>
      <point x="830" y="247"/>
      <point x="802" y="347"/>
      <point x="736" y="406" type="curve"/>
      <point x="756" y="423"/>
      <point x="762" y="440"/>
      <point x="762" y="456" type="curve" smooth="yes"/>
      <point x="762" y="497"/>
      <point x="718" y="524"/>
      <point x="678" y="524" type="curve" smooth="yes"/>
      <point x="647" y="524"/>
      <point x="631" y="510"/>
      <point x="631" y="484" type="curve" smooth="yes"/>
      <point x="631" y="454"/>
      <point x="645" y="430"/>
      <point x="658" y="419" type="curve"/>
      <point x="638" y="385"/>
      <point x="587" y="331"/>
      <point x="479" y="331" type="curve" smooth="yes"/>
      <point x="459" y="331" type="line"/>
      <point x="459" y="626" type="line"/>
      <point x="909" y="626" type="line"/>
      <point x="893" y="680" type="line"/>
      <point x="-11" y="680" type="line"/>
      <point x="3" y="626" type="line"/>
      <point x="391" y="626" type="line"/>
      <point x="391" y="367" type="line"/>
      <point x="308" y="479"/>
      <point x="228" y="482"/>
      <point x="162" y="482" type="curve" smooth="yes"/>
      <point x="138" y="482"/>
      <point x="76" y="469"/>
      <point x="48" y="454" type="curve"/>
      <point x="73" y="400" type="line"/>
      <point x="102" y="413"/>
      <point x="139" y="428"/>
      <point x="165" y="428" type="curve" smooth="yes"/>
      <point x="223" y="428"/>
      <point x="282" y="420"/>
      <point x="374" y="309" type="curve"/>
      <point x="89" y="155" type="line"/>
      <point x="124" y="108" type="line"/>
      <point x="391" y="251" type="line"/>
      <point x="391" y="0" type="line"/>
      <point x="459" y="-16" type="line"/>
      <point x="459" y="277" type="line"/>
      <point x="498" y="277" type="line" smooth="yes"/>
      <point x="591" y="277"/>
      <point x="669" y="332"/>
      <point x="693" y="372" type="curve"/>
      <point x="738" y="316"/>
      <point x="766" y="267"/>
      <point x="766" y="204" type="curve" smooth="yes"/>
      <point x="766" y="113"/>
      <point x="714" y="76"/>
      <point x="668" y="76" type="curve" smooth="yes"/>
    </contour>
  </outline>
</glyph>
<glyph name="dv_CandraE" format="1">
  <advance width="676"/>
  <unicode hex="090D"/>
  <outline>
    <contour>
      <point x="503" y="930" type="line"/>
      <point x="465" y="855"/>
      <point x="414" y="818"/>
      <point x="350" y="818" type="curve" smooth="yes"/>
      <point x="284" y="818"/>
      <point x="232" y="855"/>
      <point x="194" y="930" type="curve"/>
      <point x="150" y="902" type="line"/>
      <point x="194" y="813"/>
      <point x="260" y="769"/>
      <point x="350" y="769" type="curve" smooth="yes"/>
      <point x="436" y="769"/>
      <point x="503" y="813"/>
      <point x="549" y="902" type="curve"/>
    </contour>
    <contour>
      <point x="492" y="268" type="line" smooth="yes"/>
      <point x="492" y="181"/>
      <point x="462" y="154"/>
      <point x="387" y="127" type="curve"/>
      <point x="414" y="76" type="line"/>
      <point x="519" y="109"/>
      <point x="561" y="155"/>
      <point x="561" y="245" type="curve" smooth="yes"/>
      <point x="561" y="626" type="line"/>
      <point x="687" y="626" type="line"/>
      <point x="673" y="680" type="line"/>
      <point x="-11" y="680" type="line"/>
      <point x="3" y="626" type="line"/>
      <point x="129" y="626" type="line"/>
      <point x="129" y="135" type="line" smooth="yes"/>
      <point x="129" y="47"/>
      <point x="165" y="-1"/>
      <point x="224" y="-36" type="curve" smooth="yes"/>
      <point x="476" y="-186" type="line"/>
      <point x="512" y="-135" type="line"/>
      <point x="248" y="29" type="line" smooth="yes"/>
      <point x="208" y="54"/>
      <point x="197" y="99"/>
      <point x="197" y="139" type="curve" smooth="yes"/>
      <point x="197" y="626" type="line"/>
      <point x="492" y="626" type="line"/>
    </contour>
  </outline>
</glyph>
<glyph name="dv_ShortE" format="1">
  <advance width="676"/>
  <unicode hex="090E"/>
  <outline>
    <contour>
      <point x="284" y="843" type="line" smooth="yes"/>
      <point x="224" y="843"/>
      <point x="181" y="875"/>
      <point x="181" y="926" type="curve"/>
      <point x="117" y="941" type="line"/>
      <point x="117" y="926" type="line" smooth="yes"/>
      <point x="117" y="842"/>
      <point x="185" y="785"/>
      <point x="289" y="785" type="curve" smooth="yes"/>
      <point x="393" y="785" type="line" smooth="yes"/>
      <point x="459" y="785"/>
      <point x="492" y="748"/>
      <point x="492" y="697" type="curve" smooth="yes"/>
      <point x="492" y="680" type="line"/>
      <point x="-11" y="680" type="line"/>
      <point x="3" y="626" type="line"/>
      <point x="129" y="626" type="line"/>
      <point x="129" y="135" type="line" smooth="yes"/>
      <point x="129" y="47"/>
      <point x="165" y="-1"/>
      <point x="224" y="-36" type="curve" smooth="yes"/>
      <point x="476" y="-186" type="line"/>
      <point x="512" y="-135" type="line"/>
      <point x="248" y="29" type="line" smooth="yes"/>
      <point x="208" y="54"/>
      <point x="197" y="99"/>
      <point x="197" y="139" type="curve" smooth="yes"/>
      <point x="197" y="626" type="line"/>
      <point x="492" y="626" type="line"/>
      <point x="492" y="268" type="line" smooth="yes"/>
      <point x="492" y="181"/>
      <point x="462" y="154"/>
      <point x="387" y="127" type="curve"/>
      <point x="414" y="76" type="line"/>
      <point x="519" y="109"/>
      <point x="561" y="155"/>
      <point x="561" y="245" type="curve" smooth="yes"/>
      <point x="561" y="626" type="line"/>
      <point x="687" y="626" type="line"/>
      <point x="673" y="680" type="line"/>
      <point x="561" y="680" type="line"/>
      <point x="561" y="697" type="line" smooth="yes"/>
      <point x="561" y="778"/>
      <point x="492" y="843"/>
      <point x="387" y="843" type="curve" smooth="yes"/>
    </contour>
  </outline>
</glyph>
<glyph name="dv_CandraO" format="1">
  <advance width="1138"/>
  <unicode hex="0911"/>
  <outline>
    <contour>
      <point x="999" y="930" type="line"/>
      <point x="960" y="855"/>
      <point x="909" y="818"/>
      <point x="845" y="818" type="curve" smooth="yes"/>
      <point x="779" y="818"/>
      <point x="727" y="855"/>
      <point x="689" y="930" type="curve"/>
      <point x="644" y="902" type="line"/>
      <point x="689" y="813"/>
      <point x="756" y="769"/>
      <point x="845" y="769" type="curve" smooth="yes"/>
      <point x="932" y="769"/>
      <point x="998" y="813"/>
      <point x="1044" y="902" type="curve"/>
    </contour>
    <contour>
      <point x="671" y="0" type="line"/>
      <point x="739" y="-16" type="line"/>
      <point x="739" y="626" type="line"/>
      <point x="947" y="626" type="line"/>
      <point x="947" y="0" type="line"/>
      <point x="1016" y="-16" type="line"/>
      <point x="1016" y="626" type="line"/>
      <point x="1149" y="626" type="line"/>
      <point x="1135" y="680" type="line"/>
      <point x="536" y="680" type="line"/>
      <point x="552" y="626" type="line"/>
      <point x="671" y="626" type="line"/>
      <point x="671" y="375" type="line"/>
      <point x="383" y="375" type="line"/>
      <point x="435" y="405"/>
      <point x="471" y="457"/>
      <point x="471" y="517" type="curve" smooth="yes"/>
      <point x="471" y="610"/>
      <point x="419" y="694"/>
      <point x="274" y="694" type="curve" smooth="yes"/>
      <point x="197" y="694"/>
      <point x="124" y="664"/>
      <point x="81" y="629" type="curve"/>
      <point x="90" y="571" type="line"/>
      <point x="141" y="611"/>
      <point x="202" y="638"/>
      <point x="271" y="638" type="curve" smooth="yes"/>
      <point x="362" y="638"/>
      <point x="400" y="581"/>
      <point x="400" y="514" type="curve" smooth="yes"/>
      <point x="400" y="434"/>
      <point x="345" y="374"/>
      <point x="225" y="374" type="curve" smooth="yes"/>
      <point x="134" y="374" type="line"/>
      <point x="155" y="325" type="line"/>
      <point x="218" y="325" type="line" smooth="yes"/>
      <point x="370" y="325"/>
      <point x="415" y="270"/>
      <point x="415" y="177" type="curve" smooth="yes"/>
      <point x="415" y="87"/>
      <point x="349" y="40"/>
      <point x="260" y="40" type="curve" smooth="yes"/>
      <point x="190" y="40"/>
      <point x="127" y="64"/>
      <point x="81" y="99" type="curve"/>
      <point x="69" y="41" type="line"/>
      <point x="111" y="11"/>
      <point x="176" y="-16"/>
      <point x="257" y="-16" type="curve" smooth="yes"/>
      <point x="408" y="-16"/>
      <point x="486" y="67"/>
      <point x="486" y="179" type="curve" smooth="yes"/>
      <point x="486" y="245"/>
      <point x="453" y="292"/>
      <point x="397" y="324" type="curve"/>
      <point x="671" y="324" type="line"/>
    </contour>
  </outline>
</glyph>
<glyph name="dv_ShortO" format="1">
  <advance width="1138"/>
  <unicode hex="0912"/>
  <outline>
    <contour>
      <point x="779" y="843" type="line" smooth="yes"/>
      <point x="719" y="843"/>
      <point x="675" y="875"/>
      <point x="675" y="926" type="curve"/>
      <point x="611" y="941" type="line"/>
      <point x="611" y="926" type="line" smooth="yes"/>
      <point x="611" y="842"/>
      <point x="680" y="785"/>
      <point x="783" y="785" type="curve" smooth="yes"/>
      <point x="848" y="785" type="line" smooth="yes"/>
      <point x="915" y="785"/>
      <point x="948" y="748"/>
      <point x="948" y="697" type="curve" smooth="yes"/>
      <point x="948" y="680" type="line"/>
      <point x="536" y="680" type="line"/>
      <point x="552" y="626" type="line"/>
      <point x="671" y="626" type="line"/>
      <point x="671" y="375" type="line"/>
      <point x="383" y="375" type="line"/>
      <point x="435" y="405"/>
      <point x="471" y="452"/>
      <point x="471" y="512" type="curve" smooth="yes"/>
      <point x="471" y="605"/>
      <point x="419" y="694"/>
      <point x="274" y="694" type="curve" smooth="yes"/>
      <point x="197" y="694"/>
      <point x="124" y="664"/>
      <point x="81" y="629" type="curve"/>
      <point x="90" y="571" type="line"/>
      <point x="141" y="611"/>
      <point x="202" y="638"/>
      <point x="271" y="638" type="curve" smooth="yes"/>
      <point x="362" y="638"/>
      <point x="400" y="576"/>
      <point x="400" y="510" type="curve" smooth="yes"/>
      <point x="400" y="428"/>
      <point x="345" y="374"/>
      <point x="225" y="374" type="curve" smooth="yes"/>
      <point x="134" y="374" type="line"/>
      <point x="155" y="325" type="line"/>
      <point x="218" y="325" type="line" smooth="yes"/>
      <point x="370" y="325"/>
      <point x="415" y="265"/>
      <point x="415" y="172" type="curve" smooth="yes"/>
      <point x="415" y="83"/>
      <point x="349" y="40"/>
      <point x="260" y="40" type="curve" smooth="yes"/>
      <point x="190" y="40"/>
      <point x="127" y="64"/>
      <point x="81" y="99" type="curve"/>
      <point x="69" y="41" type="line"/>
      <point x="111" y="11"/>
      <point x="176" y="-16"/>
      <point x="257" y="-16" type="curve" smooth="yes"/>
      <point x="408" y="-16"/>
      <point x="486" y="62"/>
      <point x="486" y="173" type="curve" smooth="yes"/>
      <point x="486" y="239"/>
      <point x="453" y="292"/>
      <point x="397" y="324" type="curve"/>
      <point x="671" y="324" type="line"/>
      <point x="671" y="0" type="line"/>
      <point x="739" y="-16" type="line"/>
      <point x="739" y="626" type="line"/>
      <point x="947" y="626" type="line"/>
      <point x="947" y="0" type="line"/>
      <point x="1016" y="-16" type="line"/>
      <point x="1016" y="626" type="line"/>
      <point x="1149" y="626" type="line"/>
      <point x="1135" y="680" type="line"/>
      <point x="1016" y="680" type="line"/>
      <point x="1016" y="697" type="line" smooth="yes"/>
      <point x="1016" y="778"/>
      <point x="947" y="843"/>
      <point x="844" y="843" type="curve" smooth="yes"/>
    </contour>
  </outline>
</glyph>
<glyph name="dv_Ga" format="1">
  <advance width="610"/>
  <unicode hex="0917"/>
  <outline>
    <contour>
      <point x="421" y="0" type="line"/>
      <point x="489" y="-16" type="line"/>
      <point x="489" y="626" type="line"/>
      <point x="622" y="626" type="line"/>
      <point x="607" y="680" type="line"/>
      <point x="-11" y="680" type="line"/>
      <point x="3" y="626" type="line"/>
      <point x="123" y="626" type="line"/>
      <point x="123" y="322" type="line"/>
      <point x="88" y="322" type="line" smooth="yes"/>
      <point x="70" y="322"/>
      <point x="56" y="308"/>
      <point x="56" y="287" type="curve" smooth="yes"/>
      <point x="56" y="240"/>
      <point x="103" y="182"/>
      <point x="164" y="182" type="curve" smooth="yes"/>
      <point x="183" y="182"/>
      <point x="192" y="199"/>
      <point x="192" y="225" type="curve" smooth="yes"/>
      <point x="192" y="626" type="line"/>
      <point x="421" y="626" type="line"/>
    </contour>
  </outline>
</glyph>
<glyph name="dv_Gha" format="1">
  <advance width="701"/>
  <unicode hex="0918"/>
  <outline>
    <contour>
      <point x="512" y="0" type="line"/>
      <point x="579" y="-16" type="line"/>
      <point x="579" y="626" type="line"/>
      <point x="713" y="626" type="line"/>
      <point x="698" y="680" type="line"/>
      <point x="-11" y="680" type="line"/>
      <point x="3" y="626" type="line"/>
      <point x="125" y="626" type="line"/>
      <point x="103" y="603"/>
      <point x="88" y="570"/>
      <point x="88" y="538" type="curve" smooth="yes"/>
      <point x="88" y="476"/>
      <point x="122" y="422"/>
      <point x="175" y="405" type="curve"/>
      <point x="111" y="390"/>
      <point x="77" y="326"/>
      <point x="77" y="256" type="curve" smooth="yes"/>
      <point x="77" y="168"/>
      <point x="154" y="87"/>
      <point x="282" y="87" type="curve" smooth="yes"/>
      <point x="401" y="87"/>
      <point x="469" y="141"/>
      <point x="512" y="213" type="curve"/>
    </contour>
    <contour>
      <point x="512" y="626" type="line"/>
      <point x="512" y="447" type="line" smooth="yes"/>
      <point x="512" y="236"/>
      <point x="417" y="147"/>
      <point x="285" y="147" type="curve" smooth="yes"/>
      <point x="206" y="147"/>
      <point x="148" y="196"/>
      <point x="148" y="255" type="curve" smooth="yes"/>
      <point x="148" y="321"/>
      <point x="183" y="380"/>
      <point x="303" y="380" type="curve" smooth="yes"/>
      <point x="353" y="380" type="line"/>
      <point x="332" y="428" type="line"/>
      <point x="297" y="428" type="line" smooth="yes"/>
      <point x="202" y="428"/>
      <point x="158" y="472"/>
      <point x="158" y="537" type="curve" smooth="yes"/>
      <point x="158" y="577"/>
      <point x="179" y="612"/>
      <point x="223" y="626" type="curve"/>
    </contour>
  </outline>
</glyph>
<glyph name="dv_Tta" format="1">
  <advance width="625"/>
  <unicode hex="091F"/>
  <outline>
    <contour>
      <point x="236" y="41"/>
      <point x="132" y="81"/>
      <point x="132" y="227" type="curve" smooth="yes"/>
      <point x="132" y="355"/>
      <point x="234" y="416"/>
      <point x="372" y="416" type="curve" smooth="yes"/>
      <point x="497" y="416" type="line"/>
      <point x="497" y="626" type="line"/>
      <point x="636" y="626" type="line"/>
      <point x="622" y="680" type="line"/>
      <point x="-11" y="680" type="line"/>
      <point x="3" y="626" type="line"/>
      <point x="428" y="626" type="line"/>
      <point x="428" y="475" type="line"/>
      <point x="372" y="475" type="line" smooth="yes"/>
      <point x="197" y="475"/>
      <point x="60" y="393"/>
      <point x="60" y="227" type="curve" smooth="yes"/>
      <point x="60" y="38"/>
      <point x="206" y="-18"/>
      <point x="360" y="-18" type="curve" smooth="yes"/>
      <point x="440" y="-18"/>
      <point x="517" y="2"/>
      <point x="568" y="41" type="curve"/>
      <point x="560" y="104" type="line"/>
      <point x="499" y="60"/>
      <point x="434" y="41"/>
      <point x="360" y="41" type="curve" smooth="yes"/>
    </contour>
  </outline>
</glyph>
<glyph name="dv_Pa" format="1">
  <advance width="650"/>
  <unicode hex="092A"/>
  <outline>
    <contour>
      <point x="460" y="0" type="line"/>
      <point x="528" y="-16" type="line"/>
      <point x="528" y="626" type="line"/>
      <point x="661" y="626" type="line"/>
      <point x="646" y="680" type="line"/>
      <point x="-11" y="680" type="line"/>
      <point x="3" y="626" type="line"/>
      <point x="104" y="626" type="line"/>
      <point x="104" y="387" type="line" smooth="yes"/>
      <point x="104" y="255"/>
      <point x="185" y="178"/>
      <point x="311" y="178" type="curve" smooth="yes"/>
      <point x="372" y="178"/>
      <point x="425" y="198"/>
      <point x="460" y="231" type="curve"/>
    </contour>
    <contour>
      <point x="460" y="387" type="line"/>
      <point x="460" y="292"/>
      <point x="409" y="236"/>
      <point x="316" y="236" type="curve" smooth="yes"/>
      <point x="218" y="236"/>
      <point x="171" y="294"/>
      <point x="171" y="387" type="curve" smooth="yes"/>
      <point x="171" y="626" type="line"/>
      <point x="460" y="626" type="line"/>
    </contour>
  </outline>
</glyph>
<glyph name="dv_Rra" format="1">
  <advance width="435"/>
  <unicode hex="0931"/>
  <outline>
    <contour>
      <point x="42" y="5"/>
      <point x="66" y="-19"/>
      <point x="94" y="-19" type="curve" smooth="yes"/>
      <point x="123" y="-19"/>
      <point x="147" y="5"/>
      <point x="147" y="33" type="curve" smooth="yes"/>
      <point x="147" y="62"/>
      <point x="123" y="85"/>
      <point x="94" y="85" type="curve" smooth="yes"/>
      <point x="66" y="85"/>
      <point x="42" y="62"/>
      <point x="42" y="33" type="curve" smooth="yes"/>
    </contour>
    <contour>
      <point x="132" y="260" type="line"/>
      <point x="290" y="-18" type="line"/>
      <point x="360" y="0" type="line"/>
      <point x="195" y="264" type="line"/>
      <point x="297" y="285"/>
      <point x="366" y="368"/>
      <point x="366" y="467" type="curve" smooth="yes"/>
      <point x="366" y="526"/>
      <point x="346" y="586"/>
      <point x="309" y="626" type="curve"/>
      <point x="447" y="626" type="line"/>
      <point x="431" y="680" type="line"/>
      <point x="-11" y="680" type="line"/>
      <point x="3" y="626" type="line"/>
      <point x="213" y="626" type="line"/>
      <point x="261" y="600"/>
      <point x="294" y="530"/>
      <point x="294" y="467" type="curve" smooth="yes"/>
      <point x="294" y="389"/>
      <point x="249" y="339"/>
      <point x="188" y="324" type="curve"/>
      <point x="176" y="351" type="line" smooth="yes"/>
      <point x="167" y="372"/>
      <point x="156" y="391"/>
      <point x="139" y="391" type="curve" smooth="yes"/>
      <point x="91" y="391"/>
      <point x="54" y="327"/>
      <point x="61" y="285" type="curve" smooth="yes"/>
      <point x="64" y="271"/>
      <point x="76" y="260"/>
      <point x="91" y="260" type="curve" smooth="yes"/>
    </contour>
  </outline>
</glyph>
<glyph name="dv_Ssa" format="1">
  <advance width="654"/>
  <unicode hex="0937"/>
  <outline>
    <contour>
      <point x="464" y="0" type="line"/>
      <point x="532" y="-16" type="line"/>
      <point x="532" y="626" type="line"/>
      <point x="666" y="626" type="line"/>
      <point x="651" y="680" type="line"/>
      <point x="-11" y="680" type="line"/>
      <point x="3" y="626" type="line"/>
      <point x="104" y="626" type="line"/>
      <point x="104" y="387" type="line" smooth="yes"/>
      <point x="104" y="255"/>
      <point x="185" y="178"/>
      <point x="311" y="178" type="curve" smooth="yes"/>
      <point x="372" y="178"/>
      <point x="429" y="198"/>
      <point x="464" y="231" type="curve"/>
    </contour>
    <contour>
      <point x="218" y="236"/>
      <point x="171" y="294"/>
      <point x="171" y="387" type="curve" smooth="yes"/>
      <point x="171" y="597" type="line"/>
      <point x="435" y="289" type="line"/>
      <point x="411" y="255"/>
      <point x="370" y="236"/>
      <point x="316" y="236" type="curve" smooth="yes"/>
    </contour>
    <contour>
      <point x="464" y="387" type="line" smooth="yes"/>
      <point x="464" y="371"/>
      <point x="463" y="358"/>
      <point x="460" y="344" type="curve"/>
      <point x="217" y="626" type="line"/>
      <point x="464" y="626" type="line"/>
    </contour>
  </outline>
</glyph>
<glyph name="dv_Sa" format="1">
  <advance width="761"/>
  <unicode hex="0938"/>
  <outline>
    <contour>
      <point x="132" y="260" type="line"/>
      <point x="290" y="-18" type="line"/>
      <point x="360" y="0" type="line"/>
      <point x="195" y="264" type="line"/>
      <point x="226" y="270"/>
      <point x="255" y="283"/>
      <point x="278" y="299" type="curve"/>
      <point x="570" y="299" type="line"/>
      <point x="570" y="0" type="line"/>
      <point x="639" y="-16" type="line"/>
      <point x="639" y="626" type="line"/>
      <point x="771" y="626" type="line"/>
      <point x="757" y="680" type="line"/>
      <point x="-11" y="680" type="line"/>
      <point x="3" y="626" type="line"/>
      <point x="213" y="626" type="line"/>
      <point x="261" y="600"/>
      <point x="294" y="530"/>
      <point x="294" y="467" type="curve" smooth="yes"/>
      <point x="294" y="389"/>
      <point x="249" y="339"/>
      <point x="188" y="324" type="curve"/>
      <point x="176" y="351" type="line" smooth="yes"/>
      <point x="167" y="372"/>
      <point x="156" y="391"/>
      <point x="139" y="391" type="curve" smooth="yes"/>
      <point x="91" y="391"/>
      <point x="54" y="327"/>
      <point x="61" y="285" type="curve" smooth="yes"/>
      <point x="64" y="271"/>
      <point x="76" y="260"/>
      <point x="91" y="260" type="curve" smooth="yes"/>
    </contour>
    <contour>
      <point x="570" y="626" type="line"/>
      <point x="570" y="351" type="line"/>
      <point x="329" y="351" type="line"/>
      <point x="353" y="384"/>
      <point x="366" y="423"/>
      <point x="366" y="467" type="curve" smooth="yes"/>
      <point x="366" y="526"/>
      <point x="346" y="586"/>
      <point x="309" y="626" type="curve"/>
    </contour>
  </outline>
</glyph>
<glyph name="dv_MatraOoe" format="1">
  <advance width="314"/>
  <unicode hex="093B"/>
  <outline>
    <contour>
      <point x="189" y="881" type="line"/>
      <point x="126" y="897" type="line"/>
      <point x="126" y="680" type="line"/>
      <point x="-11" y="680" type="line"/>
      <point x="3" y="626" type="line"/>
      <point x="123" y="626" type="line"/>
      <point x="123" y="0" type="line"/>
      <point x="191" y="-16" type="line"/>
      <point x="191" y="626" type="line"/>
      <point x="325" y="626" type="line"/>
      <point x="309" y="680" type="line"/>
      <point x="189" y="680" type="line"/>
    </contour>
  </outline>
</glyph>
<glyph name="dv_Nukta" format="1">
  <advance width="0"/>
  <unicode hex="093C"/>
  <outline>
    <contour>
      <point x="17" y="-132"/>
      <point x="40" y="-155"/>
      <point x="69" y="-155" type="curve" smooth="yes"/>
      <point x="98" y="-155"/>
      <point x="121" y="-132"/>
      <point x="121" y="-104" type="curve" smooth="yes"/>
      <point x="121" y="-74"/>
      <point x="98" y="-52"/>
      <point x="69" y="-52" type="curve" smooth="yes"/>
      <point x="40" y="-52"/>
      <point x="17" y="-74"/>
      <point x="17" y="-104" type="curve" smooth="yes"/>
    </contour>
  </outline>
</glyph>
<glyph name="dv_MatraUu" format="1">
  <advance width="0"/>
  <unicode hex="0942"/>
  <outline>
    <contour>
      <point x="-56" y="-71"/>
      <point x="-8" y="-123"/>
      <point x="64" y="-207" type="curve"/>
      <point x="105" y="-179" type="line"/>
      <point x="41" y="-80"/>
      <point x="-44" y="-18"/>
      <point x="-137" y="-18" type="curve" smooth="yes"/>
      <point x="-223" y="-18"/>
      <point x="-292" y="-71"/>
      <point x="-292" y="-156" type="curve" smooth="yes"/>
      <point x="-292" y="-245"/>
      <point x="-220" y="-296"/>
      <point x="-149" y="-296" type="curve" smooth="yes"/>
      <point x="-90" y="-296" type="line"/>
      <point x="-90" y="-245" type="line"/>
      <point x="-139" y="-245" type="line" smooth="yes"/>
      <point x="-197" y="-245"/>
      <point x="-233" y="-208"/>
      <point x="-233" y="-156" type="curve" smooth="yes"/>
      <point x="-233" y="-107"/>
      <point x="-200" y="-71"/>
      <point x="-139" y="-71" type="curve"/>
    </contour>
  </outline>
</glyph>
<glyph name="dv_MatraCandraE" format="1">
  <advance width="0"/>
  <unicode hex="0945"/>
  <outline>
    <contour>
      <point x="372" y="930" type="line"/>
      <point x="333" y="855"/>
      <point x="282" y="818"/>
      <point x="218" y="818" type="curve" smooth="yes"/>
      <point x="152" y="818"/>
      <point x="100" y="855"/>
      <point x="62" y="930" type="curve"/>
      <point x="17" y="902" type="line"/>
      <point x="62" y="813"/>
      <point x="129" y="769"/>
      <point x="218" y="769" type="curve" smooth="yes"/>
      <point x="304" y="769"/>
      <point x="371" y="813"/>
      <point x="418" y="902" type="curve"/>
    </contour>
  </outline>
</glyph>
<glyph name="dv_MatraShortE" format="1">
  <advance width="0"/>
  <unicode hex="0946"/>
  <outline>
    <contour>
      <point x="-345" y="843"/>
      <point x="-389" y="875"/>
      <point x="-389" y="926" type="curve"/>
      <point x="-453" y="941" type="line"/>
      <point x="-453" y="926" type="line" smooth="yes"/>
      <point x="-453" y="842"/>
      <point x="-385" y="786"/>
      <point x="-281" y="785" type="curve"/>
      <point x="-214" y="785"/>
      <point x="-181" y="748"/>
      <point x="-181" y="697" type="curve" smooth="yes"/>
      <point x="-181" y="656" type="line"/>
      <point x="-113" y="656" type="line"/>
      <point x="-113" y="697" type="line" smooth="yes"/>
      <point x="-113" y="778"/>
      <point x="-182" y="842"/>
      <point x="-286" y="843" type="curve"/>
    </contour>
  </outline>
</glyph>
<glyph name="dv_MatraE" format="1">
  <advance width="0"/>
  <unicode hex="0947"/>
  <outline>
    <contour>
      <point x="-105" y="650" type="line"/>
      <point x="-399" y="941" type="line"/>
      <point x="-455" y="904" type="line"/>
      <point x="-179" y="650" type="line"/>
    </contour>
  </outline>
</glyph>
<glyph name="dv_MatraAi" format="1">
  <advance width="0"/>
  <unicode hex="0948"/>
  <outline>
    <contour>
      <point x="-127" y="680" type="line"/>
      <point x="-211" y="1017" type="line"/>
      <point x="-277" y="993" type="line"/>
      <point x="-202" y="767" type="line"/>
      <point x="-277" y="860"/>
      <point x="-332" y="866"/>
      <point x="-406" y="866" type="curve" smooth="yes"/>
      <point x="-502" y="866" type="line"/>
      <point x="-488" y="806" type="line"/>
      <point x="-403" y="806" type="line" smooth="yes"/>
      <point x="-347" y="806"/>
      <point x="-302" y="801"/>
      <point x="-233" y="725" type="curve" smooth="yes"/>
      <point x="-191" y="680" type="line"/>
    </contour>
  </outline>
</glyph>
<glyph name="dv_MatraShortO" format="1">
  <advance width="314"/>
  <unicode hex="094A"/>
  <outline>
    <contour>
      <point x="-43" y="843"/>
      <point x="-85" y="875"/>
      <point x="-85" y="926" type="curve"/>
      <point x="-150" y="941" type="line"/>
      <point x="-150" y="926" type="line" smooth="yes"/>
      <point x="-150" y="842"/>
      <point x="-81" y="786"/>
      <point x="24" y="785" type="curve"/>
      <point x="90" y="785"/>
      <point x="123" y="748"/>
      <point x="123" y="697" type="curve" smooth="yes"/>
      <point x="123" y="680" type="line"/>
      <point x="-11" y="680" type="line"/>
      <point x="3" y="626" type="line"/>
      <point x="123" y="626" type="line"/>
      <point x="123" y="0" type="line"/>
      <point x="191" y="-16" type="line"/>
      <point x="191" y="626" type="line"/>
      <point x="325" y="626" type="line"/>
      <point x="309" y="680" type="line"/>
      <point x="191" y="680" type="line"/>
      <point x="191" y="697" type="line" smooth="yes"/>
      <point x="191" y="778"/>
      <point x="123" y="842"/>
      <point x="17" y="843" type="curve"/>
    </contour>
  </outline>
</glyph>
<glyph name="dv_Om" format="1">
  <advance width="853"/>
  <unicode hex="0950"/>
  <outline>
    <contour>
      <point x="755" y="824" type="line"/>
      <point x="716" y="749"/>
      <point x="666" y="713"/>
      <point x="600" y="713" type="curve" smooth="yes"/>
      <point x="535" y="713"/>
      <point x="483" y="749"/>
      <point x="445" y="824" type="curve"/>
      <point x="400" y="796" type="line"/>
      <point x="445" y="706"/>
      <point x="512" y="663"/>
      <point x="600" y="663" type="curve" smooth="yes"/>
      <point x="687" y="663"/>
      <point x="754" y="706"/>
      <point x="799" y="796" type="curve"/>
    </contour>
    <contour>
      <point x="551" y="790"/>
      <point x="573" y="767"/>
      <point x="602" y="767" type="curve" smooth="yes"/>
      <point x="632" y="767"/>
      <point x="655" y="790"/>
      <point x="655" y="819" type="curve" smooth="yes"/>
      <point x="655" y="848"/>
      <point x="632" y="872"/>
      <point x="602" y="872" type="curve" smooth="yes"/>
      <point x="573" y="872"/>
      <point x="551" y="848"/>
      <point x="551" y="819" type="curve" smooth="yes"/>
    </contour>
    <contour>
      <point x="471" y="610"/>
      <point x="419" y="694"/>
      <point x="274" y="694" type="curve" smooth="yes"/>
      <point x="197" y="694"/>
      <point x="124" y="664"/>
      <point x="81" y="629" type="curve"/>
      <point x="90" y="571" type="line"/>
      <point x="141" y="611"/>
      <point x="202" y="638"/>
      <point x="271" y="638" type="curve" smooth="yes"/>
      <point x="362" y="638"/>
      <point x="400" y="581"/>
      <point x="400" y="514" type="curve" smooth="yes"/>
      <point x="400" y="434"/>
      <point x="345" y="374"/>
      <point x="225" y="374" type="curve" smooth="yes"/>
      <point x="134" y="374" type="line"/>
      <point x="155" y="325" type="line"/>
      <point x="218" y="325" type="line" smooth="yes"/>
      <point x="370" y="325"/>
      <point x="415" y="270"/>
      <point x="415" y="177" type="curve" smooth="yes"/>
      <point x="415" y="87"/>
      <point x="349" y="39"/>
      <point x="260" y="40" type="curve" smooth="yes"/>
      <point x="190" y="41"/>
      <point x="127" y="64"/>
      <point x="81" y="99" type="curve"/>
      <point x="69" y="41" type="line"/>
      <point x="111" y="11"/>
      <point x="176" y="-16"/>
      <point x="257" y="-16" type="curve" smooth="yes"/>
      <point x="408" y="-16"/>
      <point x="486" y="67"/>
      <point x="486" y="179" type="curve" smooth="yes"/>
      <point x="486" y="202"/>
      <point x="482" y="231"/>
      <point x="470" y="257" type="curve"/>
      <point x="499" y="292"/>
      <point x="549" y="330"/>
      <point x="623" y="330" type="curve" smooth="yes"/>
      <point x="700" y="330"/>
      <point x="759" y="271"/>
      <point x="760" y="184" type="curve"/>
      <point x="760" y="96"/>
      <point x="700" y="37"/>
      <point x="617" y="37" type="curve"/>
      <point x="629" y="-20" type="line"/>
      <point x="736" y="-20"/>
      <point x="836" y="56"/>
      <point x="836" y="183" type="curve" smooth="yes"/>
      <point x="836" y="299"/>
      <point x="753" y="387"/>
      <point x="621" y="387" type="curve" smooth="yes"/>
      <point x="534" y="387"/>
      <point x="470" y="343"/>
      <point x="439" y="307" type="curve"/>
      <point x="419" y="329"/>
      <point x="388" y="342"/>
      <point x="349" y="353" type="curve"/>
      <point x="434" y="378"/>
      <point x="471" y="457"/>
      <point x="471" y="517" type="curve" smooth="yes"/>
    </contour>
  </outline>
</glyph>
<glyph name="dv_Anudatta" format="1">
  <advance width="0"/>
  <unicode hex="0952"/>
  <outline>
    <contour>
      <point x="566" y="-140" type="line"/>
      <point x="552" y="-87" type="line"/>
      <point x="17" y="-87" type="line"/>
      <point x="31" y="-140" type="line"/>
    </contour>
  </outline>
</glyph>
<glyph name="dv_Graveaccent" format="1">
  <advance width="0"/>
  <unicode hex="0953"/>
  <outline>
    <contour>
      <point x="154" y="759" type="line"/>
      <point x="96" y="939" type="line"/>
      <point x="17" y="939" type="line"/>
      <point x="110" y="759" type="line"/>
    </contour>
  </outline>
</glyph>
<glyph name="dv_Acuteaccent" format="1">
  <advance width="0"/>
  <unicode hex="0954"/>
  <outline>
    <contour>
      <point x="154" y="939" type="line"/>
      <point x="75" y="939" type="line"/>
      <point x="17" y="759" type="line"/>
      <point x="60" y="759" type="line"/>
    </contour>
  </outline>
</glyph>
<glyph name="dv_MatraUe" format="1">
  <advance width="0"/>
  <unicode hex="0956"/>
  <outline>
    <contour>
      <point x="372" y="-39" type="line"/>
      <point x="333" y="-113"/>
      <point x="282" y="-151"/>
      <point x="218" y="-151" type="curve" smooth="yes"/>
      <point x="152" y="-151"/>
      <point x="100" y="-113"/>
      <point x="62" y="-39" type="curve"/>
      <point x="17" y="-67" type="line"/>
      <point x="62" y="-155"/>
      <point x="129" y="-198"/>
      <point x="218" y="-198" type="curve" smooth="yes"/>
      <point x="304" y="-198"/>
      <point x="371" y="-155"/>
      <point x="418" y="-67" type="curve"/>
    </contour>
  </outline>
</glyph>
<glyph name="dv_Khha" format="1">
  <advance width="904"/>
  <unicode hex="0959"/>
  <outline>
    <contour>
      <point x="782" y="-16" type="line"/>
      <point x="782" y="626" type="line"/>
      <point x="915" y="626" type="line"/>
      <point x="901" y="680" type="line"/>
      <point x="-11" y="680" type="line"/>
      <point x="3" y="626" type="line"/>
      <point x="196" y="626" type="line"/>
      <point x="245" y="600"/>
      <point x="277" y="530"/>
      <point x="277" y="467" type="curve" smooth="yes"/>
      <point x="277" y="389"/>
      <point x="232" y="339"/>
      <point x="171" y="324" type="curve"/>
      <point x="171" y="351" type="line" smooth="yes"/>
      <point x="171" y="374"/>
      <point x="162" y="391"/>
      <point x="144" y="391" type="curve" smooth="yes"/>
      <point x="85" y="391"/>
      <point x="40" y="327"/>
      <point x="48" y="285" type="curve" smooth="yes"/>
      <point x="50" y="271"/>
      <point x="62" y="260"/>
      <point x="78" y="260" type="curve" smooth="yes"/>
      <point x="117" y="260" type="line"/>
      <point x="123" y="127"/>
      <point x="241" y="-16"/>
      <point x="440" y="-16" type="curve" smooth="yes"/>
      <point x="561" y="-16"/>
      <point x="657" y="36"/>
      <point x="714" y="106" type="curve"/>
      <point x="714" y="0" type="line"/>
    </contour>
    <contour>
      <point x="473" y="521"/>
      <point x="394" y="445"/>
      <point x="394" y="344" type="curve" smooth="yes"/>
      <point x="394" y="232"/>
      <point x="484" y="166"/>
      <point x="589" y="166" type="curve" smooth="yes"/>
      <point x="633" y="166"/>
      <point x="673" y="181"/>
      <point x="705" y="206" type="curve"/>
      <point x="677" y="120"/>
      <point x="578" y="41"/>
      <point x="440" y="41" type="curve" smooth="yes"/>
      <point x="293" y="41"/>
      <point x="185" y="167"/>
      <point x="179" y="265" type="curve"/>
      <point x="279" y="287"/>
      <point x="345" y="370"/>
      <point x="345" y="467" type="curve" smooth="yes"/>
      <point x="345" y="526"/>
      <point x="325" y="586"/>
      <point x="288" y="626" type="curve"/>
      <point x="714" y="626" type="line"/>
      <point x="714" y="481" type="line"/>
      <point x="682" y="507"/>
      <point x="638" y="521"/>
      <point x="589" y="521" type="curve" smooth="yes"/>
    </contour>
    <contour>
      <point x="517" y="220"/>
      <point x="464" y="267"/>
      <point x="464" y="344" type="curve"/>
      <point x="465" y="420"/>
      <point x="521" y="468"/>
      <point x="589" y="468" type="curve" smooth="yes"/>
      <point x="661" y="468"/>
      <point x="714" y="420"/>
      <point x="714" y="343" type="curve" smooth="yes"/>
      <point x="714" y="267"/>
      <point x="661" y="220"/>
      <point x="589" y="220" type="curve" smooth="yes"/>
    </contour>
    <contour>
      <point x="41" y="5"/>
      <point x="64" y="-19"/>
      <point x="92" y="-19" type="curve" smooth="yes"/>
      <point x="122" y="-19"/>
      <point x="145" y="5"/>
      <point x="145" y="33" type="curve" smooth="yes"/>
      <point x="145" y="62"/>
      <point x="122" y="85"/>
      <point x="92" y="85" type="curve" smooth="yes"/>
      <point x="64" y="85"/>
      <point x="41" y="62"/>
      <point x="41" y="33" type="curve" smooth="yes"/>
    </contour>
  </outline>
</glyph>
<glyph name="dv_VocalicRr" format="1">
  <advance width="891"/>
  <unicode hex="0960"/>
  <outline>
    <contour>
      <point x="634" y="40"/>
      <point x="641" y="22"/>
      <point x="654" y="9" type="curve"/>
      <point x="637" y="-4"/>
      <point x="625" y="-22"/>
      <point x="625" y="-50" type="curve" smooth="yes"/>
      <point x="625" y="-111"/>
      <point x="681" y="-131"/>
      <point x="729" y="-131" type="curve" smooth="yes"/>
      <point x="748" y="-131" type="line"/>
      <point x="769" y="-83" type="line"/>
      <point x="746" y="-83" type="line" smooth="yes"/>
      <point x="720" y="-83"/>
      <point x="690" y="-75"/>
      <point x="690" y="-50" type="curve" smooth="yes"/>
      <point x="690" y="-25"/>
      <point x="720" y="-18"/>
      <point x="746" y="-18" type="curve" smooth="yes"/>
      <point x="757" y="-18" type="line"/>
      <point x="777" y="30" type="line"/>
      <point x="759" y="30" type="line" smooth="yes"/>
      <point x="734" y="30"/>
      <point x="703" y="31"/>
      <point x="703" y="64" type="curve" smooth="yes"/>
      <point x="703" y="108"/>
      <point x="820" y="150"/>
      <point x="820" y="232" type="curve" smooth="yes"/>
      <point x="820" y="284"/>
      <point x="799" y="335"/>
      <point x="733" y="408" type="curve"/>
      <point x="752" y="426"/>
      <point x="762" y="440"/>
      <point x="762" y="456" type="curve" smooth="yes"/>
      <point x="762" y="497"/>
      <point x="718" y="524"/>
      <point x="678" y="524" type="curve" smooth="yes"/>
      <point x="647" y="524"/>
      <point x="631" y="510"/>
      <point x="631" y="484" type="curve" smooth="yes"/>
      <point x="631" y="454"/>
      <point x="645" y="430"/>
      <point x="658" y="419" type="curve"/>
      <point x="637" y="385"/>
      <point x="584" y="331"/>
      <point x="479" y="331" type="curve" smooth="yes"/>
      <point x="459" y="331" type="line"/>
      <point x="459" y="626" type="line"/>
      <point x="902" y="626" type="line"/>
      <point x="888" y="680" type="line"/>
      <point x="-11" y="680" type="line"/>
      <point x="3" y="626" type="line"/>
      <point x="391" y="626" type="line"/>
      <point x="391" y="367" type="line"/>
      <point x="308" y="479"/>
      <point x="228" y="482"/>
      <point x="162" y="482" type="curve" smooth="yes"/>
      <point x="138" y="482"/>
      <point x="76" y="469"/>
      <point x="48" y="454" type="curve"/>
      <point x="73" y="400" type="line"/>
      <point x="102" y="413"/>
      <point x="139" y="428"/>
      <point x="165" y="428" type="curve" smooth="yes"/>
      <point x="223" y="428"/>
      <point x="282" y="420"/>
      <point x="374" y="309" type="curve"/>
      <point x="89" y="155" type="line"/>
      <point x="124" y="108" type="line"/>
      <point x="391" y="251" type="line"/>
      <point x="391" y="0" type="line"/>
      <point x="459" y="-16" type="line"/>
      <point x="459" y="277" type="line"/>
      <point x="498" y="277" type="line" smooth="yes"/>
      <point x="591" y="277"/>
      <point x="669" y="332"/>
      <point x="693" y="372" type="curve"/>
      <point x="743" y="303"/>
      <point x="755" y="267"/>
      <point x="755" y="236" type="curve" smooth="yes"/>
      <point x="755" y="171"/>
      <point x="634" y="122"/>
      <point x="634" y="62" type="curve" smooth="yes"/>
    </contour>
  </outline>
</glyph>
<glyph name="dv_MatraVocalicL" format="1">
  <advance width="0"/>
  <unicode hex="0962"/>
  <outline>
    <contour>
      <point x="244" y="-138" type="line" smooth="yes"/>
      <point x="244" y="-90"/>
      <point x="275" y="-67"/>
      <point x="306" y="-67" type="curve" smooth="yes"/>
      <point x="332" y="-67"/>
      <point x="358" y="-86"/>
      <point x="358" y="-118" type="curve" smooth="yes"/>
      <point x="358" y="-165"/>
      <point x="308" y="-201"/>
      <point x="308" y="-258" type="curve" smooth="yes"/>
      <point x="308" y="-292"/>
      <point x="355" y="-305"/>
      <point x="382" y="-305" type="curve" smooth="yes"/>
      <point x="395" y="-305" type="line"/>
      <point x="406" y="-265" type="line"/>
      <point x="397" y="-265" type="line" smooth="yes"/>
      <point x="380" y="-265"/>
      <point x="364" y="-259"/>
      <point x="364" y="-246" type="curve" smooth="yes"/>
      <point x="364" y="-207"/>
      <point x="414" y="-170"/>
      <point x="414" y="-115" type="curve" smooth="yes"/>
      <point x="414" y="-64"/>
      <point x="369" y="-18"/>
      <point x="306" y="-18" type="curve" smooth="yes"/>
      <point x="270" y="-18"/>
      <point x="229" y="-46"/>
      <point x="215" y="-76" type="curve"/>
      <point x="204" y="-44"/>
      <point x="160" y="-18"/>
      <point x="123" y="-18" type="curve"/>
      <point x="66" y="-19"/>
      <point x="17" y="-64"/>
      <point x="17" y="-115" type="curve" smooth="yes"/>
      <point x="17" y="-181"/>
      <point x="50" y="-236"/>
      <point x="85" y="-305" type="curve"/>
      <point x="134" y="-292" type="line"/>
      <point x="96" y="-217"/>
      <point x="71" y="-172"/>
      <point x="71" y="-118" type="curve" smooth="yes"/>
      <point x="71" y="-90"/>
      <point x="99" y="-66"/>
      <point x="123" y="-67" type="curve"/>
      <point x="155" y="-66"/>
      <point x="185" y="-85"/>
      <point x="187" y="-138" type="curve"/>
      <point x="187" y="-191" type="line"/>
      <point x="244" y="-204" type="line"/>
    </contour>
  </outline>
</glyph>
<glyph name="dv_MatraVocalicLl" format="1">
  <advance width="0"/>
  <unicode hex="0963"/>
  <outline>
    <contour>
      <point x="291" y="-377"/>
      <point x="337" y="-394"/>
      <point x="373" y="-394" type="curve" smooth="yes"/>
      <point x="389" y="-394" type="line"/>
      <point x="406" y="-356" type="line"/>
      <point x="388" y="-356" type="line" smooth="yes"/>
      <point x="367" y="-356"/>
      <point x="344" y="-350"/>
      <point x="344" y="-329" type="curve" smooth="yes"/>
      <point x="344" y="-310"/>
      <point x="364" y="-305"/>
      <point x="384" y="-305" type="curve" smooth="yes"/>
      <point x="395" y="-305" type="line"/>
      <point x="406" y="-265" type="line"/>
      <point x="397" y="-265" type="line" smooth="yes"/>
      <point x="380" y="-265"/>
      <point x="364" y="-259"/>
      <point x="364" y="-246" type="curve" smooth="yes"/>
      <point x="364" y="-207"/>
      <point x="414" y="-170"/>
      <point x="414" y="-115" type="curve" smooth="yes"/>
      <point x="414" y="-64"/>
      <point x="369" y="-18"/>
      <point x="306" y="-18" type="curve" smooth="yes"/>
      <point x="270" y="-18"/>
      <point x="229" y="-46"/>
      <point x="215" y="-76" type="curve"/>
      <point x="204" y="-44"/>
      <point x="160" y="-18"/>
      <point x="123" y="-18" type="curve" smooth="yes"/>
      <point x="66" y="-19"/>
      <point x="17" y="-64"/>
      <point x="17" y="-115" type="curve" smooth="yes"/>
      <point x="17" y="-181"/>
      <point x="50" y="-236"/>
      <point x="85" y="-305" type="curve"/>
      <point x="134" y="-292" type="line"/>
      <point x="96" y="-217"/>
      <point x="71" y="-172"/>
      <point x="71" y="-118" type="curve" smooth="yes"/>
      <point x="71" y="-90"/>
      <point x="99" y="-66"/>
      <point x="123" y="-67" type="curve"/>
      <point x="155" y="-66"/>
      <point x="185" y="-85"/>
      <point x="187" y="-138" type="curve"/>
      <point x="187" y="-191" type="line"/>
      <point x="244" y="-204" type="line"/>
      <point x="244" y="-138" type="line" smooth="yes"/>
      <point x="244" y="-90"/>
      <point x="275" y="-67"/>
      <point x="306" y="-67" type="curve" smooth="yes"/>
      <point x="332" y="-67"/>
      <point x="358" y="-86"/>
      <point x="358" y="-118" type="curve" smooth="yes"/>
      <point x="358" y="-165"/>
      <point x="308" y="-201"/>
      <point x="308" y="-258" type="curve" smooth="yes"/>
      <point x="308" y="-266"/>
      <point x="310" y="-274"/>
      <point x="316" y="-280" type="curve"/>
      <point x="301" y="-291"/>
      <point x="291" y="-306"/>
      <point x="291" y="-329" type="curve" smooth="yes"/>
    </contour>
  </outline>
</glyph>
<glyph name="dv_Zero" format="1">
  <advance width="701"/>
  <unicode hex="0966"/>
  <outline>
    <contour>
      <point x="188" y="622"/>
      <point x="69" y="496"/>
      <point x="69" y="339" type="curve" smooth="yes"/>
      <point x="69" y="183"/>
      <point x="188" y="57"/>
      <point x="351" y="57" type="curve" smooth="yes"/>
      <point x="513" y="57"/>
      <point x="633" y="183"/>
      <point x="633" y="339" type="curve" smooth="yes"/>
      <point x="633" y="496"/>
      <point x="513" y="622"/>
      <point x="351" y="622" type="curve" smooth="yes"/>
    </contour>
    <contour>
      <point x="225" y="118"/>
      <point x="139" y="209"/>
      <point x="139" y="339" type="curve" smooth="yes"/>
      <point x="139" y="470"/>
      <point x="225" y="561"/>
      <point x="351" y="561" type="curve" smooth="yes"/>
      <point x="477" y="561"/>
      <point x="562" y="470"/>
      <point x="562" y="339" type="curve" smooth="yes"/>
      <point x="562" y="209"/>
      <point x="477" y="118"/>
      <point x="351" y="118" type="curve" smooth="yes"/>
    </contour>
  </outline>
</glyph>
<glyph name="dv_Three" format="1">
  <advance width="507"/>
  <unicode hex="0969"/>
  <outline>
    <contour>
      <point x="188" y="694"/>
      <point x="126" y="669"/>
      <point x="83" y="634" type="curve"/>
      <point x="92" y="577" type="line"/>
      <point x="143" y="617"/>
      <point x="192" y="637"/>
      <point x="261" y="637" type="curve" smooth="yes"/>
      <point x="322" y="637"/>
      <point x="369" y="600"/>
      <point x="369" y="540" type="curve" smooth="yes"/>
      <point x="369" y="475"/>
      <point x="325" y="435"/>
      <point x="230" y="435" type="curve" smooth="yes"/>
      <point x="132" y="435" type="line"/>
      <point x="146" y="386" type="line"/>
      <point x="224" y="386" type="line" smooth="yes"/>
      <point x="344" y="386"/>
      <point x="380" y="323"/>
      <point x="380" y="258" type="curve" smooth="yes"/>
      <point x="380" y="194"/>
      <point x="311" y="149"/>
      <point x="236" y="147" type="curve" smooth="yes"/>
      <point x="219" y="147"/>
      <point x="202" y="149"/>
      <point x="187" y="153" type="curve"/>
      <point x="173" y="196"/>
      <point x="134" y="229"/>
      <point x="90" y="229" type="curve" smooth="yes"/>
      <point x="68" y="229"/>
      <point x="51" y="215"/>
      <point x="51" y="194" type="curve" smooth="yes"/>
      <point x="51" y="147"/>
      <point x="100" y="110"/>
      <point x="137" y="93" type="curve"/>
      <point x="265" y="-71" type="line"/>
      <point x="309" y="-39" type="line"/>
      <point x="209" y="87" type="line"/>
      <point x="234" y="87" type="line" smooth="yes"/>
      <point x="361" y="87"/>
      <point x="451" y="160"/>
      <point x="451" y="258" type="curve" smooth="yes"/>
      <point x="451" y="330"/>
      <point x="418" y="395"/>
      <point x="353" y="412" type="curve"/>
      <point x="405" y="428"/>
      <point x="438" y="479"/>
      <point x="438" y="542" type="curve" smooth="yes"/>
      <point x="438" y="626"/>
      <point x="372" y="694"/>
      <point x="264" y="694" type="curve" smooth="yes"/>
    </contour>
  </outline>
</glyph>
<glyph name="dv_Four" format="1">
  <advance width="708"/>
  <unicode hex="096A"/>
  <outline>
    <contour>
      <point x="57" y="642" type="line"/>
      <point x="134" y="568"/>
      <point x="233" y="476"/>
      <point x="312" y="384" type="curve"/>
      <point x="242" y="295"/>
      <point x="190" y="207"/>
      <point x="190" y="134" type="curve" smooth="yes"/>
      <point x="190" y="43"/>
      <point x="251" y="-18"/>
      <point x="354" y="-18" type="curve" smooth="yes"/>
      <point x="457" y="-18"/>
      <point x="517" y="41"/>
      <point x="517" y="134" type="curve" smooth="yes"/>
      <point x="517" y="207"/>
      <point x="465" y="295"/>
      <point x="395" y="384" type="curve"/>
      <point x="474" y="476"/>
      <point x="573" y="568"/>
      <point x="651" y="642" type="curve"/>
      <point x="611" y="694" type="line"/>
      <point x="540" y="626"/>
      <point x="439" y="531"/>
      <point x="354" y="434" type="curve"/>
      <point x="269" y="531"/>
      <point x="167" y="626"/>
      <point x="97" y="694" type="curve"/>
    </contour>
    <contour>
      <point x="261" y="190"/>
      <point x="299" y="260"/>
      <point x="354" y="332" type="curve"/>
      <point x="408" y="260"/>
      <point x="447" y="190"/>
      <point x="447" y="134" type="curve" smooth="yes"/>
      <point x="447" y="74"/>
      <point x="402" y="40"/>
      <point x="354" y="40" type="curve" smooth="yes"/>
      <point x="306" y="40"/>
      <point x="261" y="74"/>
      <point x="261" y="134" type="curve" smooth="yes"/>
    </contour>
  </outline>
</glyph>
<glyph name="dv_Five" format="1">
  <advance width="482"/>
  <unicode hex="096B"/>
  <outline>
    <contour>
      <point x="292" y="40"/>
      <point x="267" y="42"/>
      <point x="237" y="52" type="curve"/>
      <point x="221" y="-2" type="line"/>
      <point x="256" y="-14"/>
      <point x="295" y="-16"/>
      <point x="318" y="-16" type="curve" smooth="yes"/>
      <point x="435" y="-16"/>
      <point x="471" y="48"/>
      <point x="471" y="120" type="curve" smooth="yes"/>
      <point x="471" y="162"/>
      <point x="445" y="256"/>
      <point x="407" y="303" type="curve"/>
      <point x="426" y="321"/>
      <point x="431" y="338"/>
      <point x="431" y="355" type="curve" smooth="yes"/>
      <point x="431" y="395"/>
      <point x="388" y="421"/>
      <point x="349" y="421" type="curve" smooth="yes"/>
      <point x="320" y="421"/>
      <point x="302" y="397"/>
      <point x="301" y="376" type="curve" smooth="yes"/>
      <point x="300" y="360"/>
      <point x="305" y="344"/>
      <point x="315" y="327" type="curve"/>
      <point x="300" y="327" type="line" smooth="yes"/>
      <point x="202" y="327"/>
      <point x="147" y="368"/>
      <point x="147" y="479" type="curve" smooth="yes"/>
      <point x="147" y="680" type="line"/>
      <point x="80" y="680" type="line"/>
      <point x="80" y="479" type="line" smooth="yes"/>
      <point x="80" y="335"/>
      <point x="170" y="270"/>
      <point x="295" y="270" type="curve" smooth="yes"/>
      <point x="317" y="270"/>
      <point x="337" y="272"/>
      <point x="356" y="276" type="curve"/>
      <point x="384" y="235"/>
      <point x="408" y="182"/>
      <point x="408" y="116" type="curve" smooth="yes"/>
      <point x="408" y="72"/>
      <point x="383" y="40"/>
      <point x="316" y="40" type="curve" smooth="yes"/>
    </contour>
  </outline>
</glyph>
<glyph name="dv_Six" format="1">
  <advance width="531"/>
  <unicode hex="096C"/>
  <outline>
    <contour>
      <point x="497" y="-8" type="line"/>
      <point x="426" y="111" type="line"/>
      <point x="451" y="132"/>
      <point x="464" y="153"/>
      <point x="464" y="173" type="curve" smooth="yes"/>
      <point x="464" y="210"/>
      <point x="416" y="235"/>
      <point x="385" y="235" type="curve" smooth="yes"/>
      <point x="356" y="235"/>
      <point x="338" y="216"/>
      <point x="338" y="189" type="curve" smooth="yes"/>
      <point x="338" y="176"/>
      <point x="339" y="166"/>
      <point x="342" y="156" type="curve"/>
      <point x="324" y="150"/>
      <point x="304" y="147"/>
      <point x="282" y="147" type="curve"/>
      <point x="206" y="149"/>
      <point x="139" y="194"/>
      <point x="139" y="258" type="curve" smooth="yes"/>
      <point x="139" y="323"/>
      <point x="174" y="386"/>
      <point x="293" y="386" type="curve" smooth="yes"/>
      <point x="395" y="386" type="line"/>
      <point x="381" y="435" type="line"/>
      <point x="288" y="435" type="line" smooth="yes"/>
      <point x="192" y="435"/>
      <point x="150" y="475"/>
      <point x="150" y="540" type="curve" smooth="yes"/>
      <point x="150" y="600"/>
      <point x="196" y="637"/>
      <point x="257" y="637" type="curve" smooth="yes"/>
      <point x="325" y="637"/>
      <point x="374" y="617"/>
      <point x="426" y="577" type="curve"/>
      <point x="435" y="634" type="line"/>
      <point x="392" y="669"/>
      <point x="330" y="694"/>
      <point x="255" y="694" type="curve" smooth="yes"/>
      <point x="145" y="694"/>
      <point x="80" y="626"/>
      <point x="80" y="542" type="curve" smooth="yes"/>
      <point x="80" y="479"/>
      <point x="113" y="428"/>
      <point x="166" y="412" type="curve"/>
      <point x="101" y="395"/>
      <point x="69" y="330"/>
      <point x="69" y="258" type="curve" smooth="yes"/>
      <point x="69" y="160"/>
      <point x="156" y="87"/>
      <point x="285" y="87" type="curve" smooth="yes"/>
      <point x="300" y="87"/>
      <point x="350" y="87"/>
      <point x="370" y="98" type="curve"/>
      <point x="370" y="96"/>
      <point x="371" y="94"/>
      <point x="372" y="93" type="curve"/>
      <point x="444" y="-41" type="line"/>
    </contour>
  </outline>
</glyph>
<glyph name="dv_Highspacedot" format="1">
  <advance width="184"/>
  <unicode hex="0971"/>
  <outline>
    <contour>
      <point x="40" y="266"/>
      <point x="63" y="244"/>
      <point x="92" y="244" type="curve" smooth="yes"/>
      <point x="121" y="244"/>
      <point x="144" y="266"/>
      <point x="144" y="295" type="curve" smooth="yes"/>
      <point x="144" y="325"/>
      <point x="121" y="347"/>
      <point x="92" y="347" type="curve" smooth="yes"/>
      <point x="63" y="347"/>
      <point x="40" y="325"/>
      <point x="40" y="295" type="curve" smooth="yes"/>
    </contour>
  </outline>
</glyph>
<glyph name="dv_Ooe" format="1">
  <advance width="1138"/>
  <unicode hex="0974"/>
  <outline>
    <contour>
      <point x="671" y="0" type="line"/>
      <point x="739" y="-16" type="line"/>
      <point x="739" y="626" type="line"/>
      <point x="947" y="626" type="line"/>
      <point x="947" y="0" type="line"/>
      <point x="1016" y="-16" type="line"/>
      <point x="1016" y="626" type="line"/>
      <point x="1149" y="626" type="line"/>
      <point x="1135" y="680" type="line"/>
      <point x="1012" y="680" type="line"/>
      <point x="1012" y="881" type="line"/>
      <point x="948" y="897" type="line"/>
      <point x="948" y="680" type="line"/>
      <point x="536" y="680" type="line"/>
      <point x="552" y="626" type="line"/>
      <point x="671" y="626" type="line"/>
      <point x="671" y="375" type="line"/>
      <point x="383" y="375" type="line"/>
      <point x="435" y="405"/>
      <point x="471" y="457"/>
      <point x="471" y="517" type="curve" smooth="yes"/>
      <point x="471" y="610"/>
      <point x="419" y="694"/>
      <point x="274" y="694" type="curve" smooth="yes"/>
      <point x="197" y="694"/>
      <point x="124" y="664"/>
      <point x="81" y="629" type="curve"/>
      <point x="90" y="571" type="line"/>
      <point x="141" y="611"/>
      <point x="202" y="638"/>
      <point x="271" y="638" type="curve" smooth="yes"/>
      <point x="362" y="638"/>
      <point x="400" y="581"/>
      <point x="400" y="514" type="curve" smooth="yes"/>
      <point x="400" y="434"/>
      <point x="345" y="374"/>
      <point x="225" y="374" type="curve" smooth="yes"/>
      <point x="134" y="374" type="line"/>
      <point x="155" y="325" type="line"/>
      <point x="218" y="325" type="line" smooth="yes"/>
      <point x="370" y="325"/>
      <point x="415" y="270"/>
      <point x="415" y="177" type="curve" smooth="yes"/>
      <point x="415" y="87"/>
      <point x="349" y="39"/>
      <point x="260" y="40" type="curve" smooth="yes"/>
      <point x="190" y="41"/>
      <point x="127" y="64"/>
      <point x="81" y="99" type="curve"/>
      <point x="69" y="41" type="line"/>
      <point x="111" y="11"/>
      <point x="176" y="-16"/>
      <point x="257" y="-16" type="curve" smooth="yes"/>
      <point x="408" y="-16"/>
      <point x="486" y="67"/>
      <point x="486" y="179" type="curve" smooth="yes"/>
      <point x="486" y="245"/>
      <point x="453" y="292"/>
      <point x="397" y="324" type="curve"/>
      <point x="671" y="324" type="line"/>
    </contour>
  </outline>
</glyph>
<glyph name="dv_MarwariDda" format="1">
  <advance width="611"/>
  <unicode hex="0978"/>
  <outline>
    <contour>
      <point x="192" y="626" type="line"/>
      <point x="622" y="626" type="line"/>
      <point x="607" y="680" type="line"/>
      <point x="-11" y="680" type="line"/>
      <point x="3" y="626" type="line"/>
      <point x="123" y="626" type="line"/>
      <point x="123" y="348" type="line"/>
      <point x="88" y="348" type="line" smooth="yes"/>
      <point x="72" y="348"/>
      <point x="59" y="336"/>
      <point x="57" y="322" type="curve" smooth="yes"/>
      <point x="48" y="276"/>
      <point x="99" y="208"/>
      <point x="164" y="208" type="curve" smooth="yes"/>
      <point x="183" y="208"/>
      <point x="192" y="225"/>
      <point x="192" y="251" type="curve" smooth="yes"/>
      <point x="192" y="290" type="line"/>
      <point x="316" y="290" type="line" smooth="yes"/>
      <point x="414" y="290"/>
      <point x="461" y="232"/>
      <point x="461" y="139" type="curve" smooth="yes"/>
      <point x="461" y="0" type="line"/>
      <point x="529" y="-16" type="line"/>
      <point x="529" y="139" type="line" smooth="yes"/>
      <point x="529" y="271"/>
      <point x="447" y="348"/>
      <point x="321" y="348" type="curve" smooth="yes"/>
      <point x="192" y="348" type="line"/>
    </contour>
  </outline>
</glyph>
<glyph name="dv_HeavyYa" format="1">
  <advance width="611"/>
  <unicode hex="097A"/>
  <outline>
    <contour>
      <point x="160" y="442"/>
      <point x="120" y="389"/>
      <point x="79" y="377" type="curve"/>
      <point x="67" y="363" type="line"/>
      <point x="67" y="267"/>
      <point x="166" y="178"/>
      <point x="285" y="178" type="curve" smooth="yes"/>
      <point x="346" y="178"/>
      <point x="396" y="198"/>
      <point x="431" y="231" type="curve"/>
      <point x="431" y="0" type="line"/>
      <point x="498" y="-16" type="line"/>
      <point x="498" y="626" type="line"/>
      <point x="633" y="626" type="line"/>
      <point x="617" y="680" type="line"/>
      <point x="-6" y="680" type="line"/>
      <point x="9" y="626" type="line"/>
      <point x="81" y="626" type="line"/>
      <point x="130" y="610"/>
      <point x="160" y="572"/>
      <point x="160" y="516" type="curve" smooth="yes"/>
    </contour>
    <contour>
      <point x="210" y="240"/>
      <point x="146" y="288"/>
      <point x="133" y="344" type="curve"/>
      <point x="196" y="376"/>
      <point x="224" y="446"/>
      <point x="224" y="510" type="curve" smooth="yes"/>
      <point x="224" y="526" type="line"/>
      <point x="414" y="307" type="line"/>
      <point x="391" y="261"/>
      <point x="347" y="236"/>
      <point x="285" y="236" type="curve"/>
    </contour>
    <contour>
      <point x="431" y="626" type="line"/>
      <point x="431" y="387" type="line" smooth="yes"/>
      <point x="431" y="379"/>
      <point x="430" y="371"/>
      <point x="430" y="364" type="curve"/>
      <point x="202" y="626" type="line"/>
    </contour>
  </outline>
</glyph>
<glyph name="dv_Jja" format="1">
  <advance width="747"/>
  <unicode hex="097C"/>
  <outline>
    <contour>
      <point x="557" y="402" type="line"/>
      <point x="557" y="0" type="line"/>
      <point x="624" y="-16" type="line"/>
      <point x="624" y="626" type="line"/>
      <point x="758" y="626" type="line"/>
      <point x="743" y="680" type="line"/>
      <point x="-11" y="680" type="line"/>
      <point x="3" y="626" type="line"/>
      <point x="557" y="626" type="line"/>
      <point x="557" y="461" type="line"/>
      <point x="129" y="461" type="line"/>
      <point x="147" y="402" type="line"/>
      <point x="200" y="402" type="line" smooth="yes"/>
      <point x="288" y="402"/>
      <point x="347" y="356"/>
      <point x="347" y="272" type="curve" smooth="yes"/>
      <point x="347" y="190"/>
      <point x="288" y="140"/>
      <point x="200" y="140" type="curve"/>
      <point x="131" y="141"/>
      <point x="71" y="164"/>
      <point x="24" y="199" type="curve"/>
      <point x="11" y="141" type="line"/>
      <point x="54" y="111"/>
      <point x="119" y="85"/>
      <point x="200" y="85" type="curve" smooth="yes"/>
      <point x="323" y="85"/>
      <point x="416" y="149"/>
      <point x="416" y="272" type="curve" smooth="yes"/>
      <point x="416" y="326"/>
      <point x="397" y="370"/>
      <point x="366" y="402" type="curve"/>
    </contour>
    <contour>
      <point x="634" y="-140" type="line"/>
      <point x="619" y="-87" type="line"/>
      <point x="40" y="-87" type="line"/>
      <point x="55" y="-140" type="line"/>
    </contour>
  </outline>
</glyph>
<glyph name="uni200C" format="1">
  <advance width="0"/>
  <unicode hex="200C"/>
  <outline>
    <contour>
      <point x="30" y="1237" type="line"/>
      <point x="30" y="-68" type="line"/>
      <point x="-30" y="-68" type="line"/>
      <point x="-30" y="1237" type="line"/>
    </contour>
  </outline>
</glyph>
<glyph name="emdash" format="1">
  <advance width="505"/>
  <unicode hex="2014"/>
  <outline>
    <contour>
      <point x="490" y="248" type="line"/>
      <point x="482" y="298" type="line"/>
      <point x="16" y="298" type="line"/>
      <point x="24" y="248" type="line"/>
    </contour>
  </outline>
</glyph>
<glyph name="quoteleft" format="1">
  <advance width="121"/>
  <unicode hex="2018"/>
  <outline>
    <contour>
      <point x="6" y="519"/>
      <point x="25" y="498"/>
      <point x="53" y="498" type="curve" smooth="yes"/>
      <point x="80" y="498"/>
      <point x="101" y="519"/>
      <point x="101" y="545" type="curve" smooth="yes"/>
      <point x="101" y="569"/>
      <point x="85" y="590"/>
      <point x="57" y="593" type="curve"/>
      <point x="60" y="628"/>
      <point x="84" y="651"/>
      <point x="116" y="671" type="curve"/>
      <point x="97" y="702" type="line"/>
      <point x="48" y="676"/>
      <point x="6" y="612"/>
      <point x="6" y="552" type="curve" smooth="yes"/>
    </contour>
  </outline>
</glyph>
<glyph name="dagger" format="1">
  <advance width="344"/>
  <unicode hex="2020"/>
  <outline>
    <contour>
      <point x="206" y="780" type="line"/>
      <point x="140" y="783" type="line"/>
      <point x="140" y="625" type="line"/>
      <point x="16" y="625" type="line"/>
      <point x="35" y="577" type="line"/>
      <point x="140" y="577" type="line"/>
      <point x="150" y="0" type="line"/>
      <point x="196" y="-4" type="line"/>
      <point x="206" y="577" type="line"/>
      <point x="329" y="577" type="line"/>
      <point x="310" y="625" type="line"/>
      <point x="206" y="625" type="line"/>
    </contour>
  </outline>
</glyph>
<glyph name="daggerdbl" format="1">
  <advance width="378"/>
  <unicode hex="2021"/>
  <outline>
    <contour>
      <point x="154" y="-6" type="line"/>
      <point x="223" y="1" type="line"/>
      <point x="218" y="186" type="line"/>
      <point x="347" y="186" type="line"/>
      <point x="328" y="235" type="line"/>
      <point x="219" y="235" type="line"/>
      <point x="222" y="534" type="line"/>
      <point x="347" y="534" type="line"/>
      <point x="328" y="584" type="line"/>
      <point x="219" y="584" type="line"/>
      <point x="224" y="780" type="line"/>
      <point x="156" y="783" type="line"/>
      <point x="161" y="584" type="line"/>
      <point x="31" y="584" type="line"/>
      <point x="50" y="534" type="line"/>
      <point x="159" y="534" type="line"/>
      <point x="156" y="235" type="line"/>
      <point x="31" y="235" type="line"/>
      <point x="50" y="186" type="line"/>
      <point x="159" y="186" type="line"/>
    </contour>
  </outline>
</glyph>
